<?xml version="1.0" encoding="UTF-8" standalone="no"?>
<svg
   xmlns:dc="http://purl.org/dc/elements/1.1/"
   xmlns:cc="http://creativecommons.org/ns#"
   xmlns:rdf="http://www.w3.org/1999/02/22-rdf-syntax-ns#"
   xmlns:svg="http://www.w3.org/2000/svg"
   xmlns="http://www.w3.org/2000/svg"
   xmlns:sodipodi="http://sodipodi.sourceforge.net/DTD/sodipodi-0.dtd"
   xmlns:inkscape="http://www.inkscape.org/namespaces/inkscape"
   version="1.1"
   width="51.323364mm"
   height="40.323349mm"
   viewBox="0 0 20206.049 15875.335"
   id="svg2587"
   sodipodi:docname="AtmoNode-Master.svg"
   inkscape:version="1.0.1 (c497b03c, 2020-09-10)">
  <metadata
     id="metadata2593">
    <rdf:RDF>
      <cc:Work
         rdf:about="">
        <dc:format>image/svg+xml</dc:format>
        <dc:type
           rdf:resource="http://purl.org/dc/dcmitype/StillImage" />
        <dc:title>SVG Picture created as AtmoNode-brd.svg date 2020/12/25 16:44:00 </dc:title>
      </cc:Work>
    </rdf:RDF>
  </metadata>
  <defs
     id="defs2591" />
  <sodipodi:namedview
     pagecolor="#ffffff"
     bordercolor="#666666"
     borderopacity="1"
     objecttolerance="10"
     gridtolerance="10"
     guidetolerance="10"
     inkscape:pageopacity="0"
     inkscape:pageshadow="2"
     inkscape:window-width="1792"
     inkscape:window-height="1067"
     id="namedview2589"
     showgrid="false"
     inkscape:zoom="3.8077041"
     inkscape:cx="138.09749"
     inkscape:cy="68.441036"
     inkscape:window-x="0"
     inkscape:window-y="25"
     inkscape:window-maximized="0"
     inkscape:current-layer="svg2587"
     units="mm"
     fit-margin-top="0"
     fit-margin-left="0"
     fit-margin-right="0"
     fit-margin-bottom="0"
     inkscape:document-rotation="0" />
  <title
     id="title1677">SVG Picture created as AtmoNode-brd.svg date 2020/12/25 16:44:00 </title>
  <desc
     id="desc1679">Picture generated by PCBNEW </desc>
  <g
     style="fill:#000000;fill-opacity:1;stroke:#000000;stroke-linecap:round;stroke-linejoin:round;stroke-opacity:1"
     id="g1681"
     transform="translate(-41119.333,-35017.34)" />
  <g
     style="fill:#000000;fill-opacity:0;stroke:#000000;stroke-width:-0.000393701;stroke-linecap:round;stroke-linejoin:round;stroke-opacity:1"
     id="g1683"
     transform="translate(-41119.333,-35017.34)" />
  <g
     style="fill:#000000;fill-opacity:0;stroke:#000000;stroke-width:39.3701;stroke-linecap:round;stroke-linejoin:round;stroke-opacity:1"
     id="g1685"
     transform="translate(-41119.333,-35017.34)" />
  <g
     style="fill:#000000;fill-opacity:0;stroke:#000000;stroke-width:39.3701;stroke-linecap:round;stroke-linejoin:round;stroke-opacity:1"
     id="g1691"
     transform="translate(-41119.333,-35017.34)" />
  <g
     style="fill:#000000;fill-opacity:0;stroke:#000000;stroke-width:39.3701;stroke-linecap:round;stroke-linejoin:round;stroke-opacity:1"
     id="g1697"
     transform="translate(-41119.333,-35017.34)" />
  <g
     style="fill:#000000;fill-opacity:0;stroke:#000000;stroke-width:39.3701;stroke-linecap:round;stroke-linejoin:round;stroke-opacity:1"
     id="g1703"
     transform="translate(-41119.333,-35017.34)" />
  <g
     style="fill:#000000;fill-opacity:0;stroke:#000000;stroke-width:39.3701;stroke-linecap:round;stroke-linejoin:round;stroke-opacity:1"
     id="g1709"
     transform="translate(-41119.333,-35017.34)" />
  <g
     style="fill:#000000;fill-opacity:0;stroke:#000000;stroke-width:39.3701;stroke-linecap:round;stroke-linejoin:round;stroke-opacity:1"
     id="g1715"
     transform="translate(-41119.333,-35017.34)" />
  <g
     style="fill:#000000;fill-opacity:0;stroke:#000000;stroke-width:39.3701;stroke-linecap:round;stroke-linejoin:round;stroke-opacity:1"
     id="g1721"
     transform="translate(-41119.333,-35017.34)" />
  <g
     style="fill:#000000;fill-opacity:0;stroke:#000000;stroke-width:39.3701;stroke-linecap:round;stroke-linejoin:round;stroke-opacity:1"
     id="g1727"
     transform="translate(-41119.333,-35017.34)" />
  <g
     style="fill:#000000;fill-opacity:0;stroke:#000000;stroke-width:39.3701;stroke-linecap:round;stroke-linejoin:round;stroke-opacity:1"
     id="g1733"
     transform="translate(-41119.333,-35017.34)" />
  <g
     style="fill:#000000;fill-opacity:0;stroke:#000000;stroke-width:39.3701;stroke-linecap:round;stroke-linejoin:round;stroke-opacity:1"
     id="g1743"
     transform="translate(-41119.333,-35017.34)" />
  <g
     style="fill:#000000;fill-opacity:0;stroke:#000000;stroke-width:39.3701;stroke-linecap:round;stroke-linejoin:round;stroke-opacity:1"
     id="g1751"
     transform="translate(-41119.333,-35017.34)" />
  <g
     style="fill:#000000;fill-opacity:0;stroke:#000000;stroke-width:39.3701;stroke-linecap:round;stroke-linejoin:round;stroke-opacity:1"
     id="g1759"
     transform="translate(-41119.333,-35017.34)" />
  <g
     style="fill:#000000;fill-opacity:0;stroke:#000000;stroke-width:39.3701;stroke-linecap:round;stroke-linejoin:round;stroke-opacity:1"
     id="g1769"
     transform="translate(-41119.333,-35017.34)" />
  <g
     style="fill:#000000;fill-opacity:0;stroke:#000000;stroke-width:39.3701;stroke-linecap:round;stroke-linejoin:round;stroke-opacity:1"
     id="g1777"
     transform="translate(-41119.333,-35017.34)" />
  <g
     style="fill:#000000;fill-opacity:0;stroke:#000000;stroke-width:39.3701;stroke-linecap:round;stroke-linejoin:round;stroke-opacity:1"
     id="g1785"
     transform="translate(-41119.333,-35017.34)" />
  <g
     style="fill:#000000;fill-opacity:0;stroke:#000000;stroke-width:39.3701;stroke-linecap:round;stroke-linejoin:round;stroke-opacity:1"
     id="g1791"
     transform="translate(-41119.333,-35017.34)" />
  <g
     style="fill:#000000;fill-opacity:0;stroke:#000000;stroke-width:39.3701;stroke-linecap:round;stroke-linejoin:round;stroke-opacity:1"
     id="g1797"
     transform="translate(-41119.333,-35017.34)" />
  <g
     style="fill:#000000;fill-opacity:0;stroke:#000000;stroke-width:39.3701;stroke-linecap:round;stroke-linejoin:round;stroke-opacity:1"
     id="g1803"
     transform="translate(-41119.333,-35017.34)" />
  <g
     style="fill:#000000;fill-opacity:0;stroke:#000000;stroke-width:39.3701;stroke-linecap:round;stroke-linejoin:round;stroke-opacity:1"
     id="g1809"
     transform="translate(-41119.333,-35017.34)" />
  <g
     style="fill:#000000;fill-opacity:0;stroke:#000000;stroke-width:39.3701;stroke-linecap:round;stroke-linejoin:round;stroke-opacity:1"
     id="g1815"
     transform="translate(-41119.333,-35017.34)" />
  <g
     style="fill:#000000;fill-opacity:0;stroke:#000000;stroke-width:39.3701;stroke-linecap:round;stroke-linejoin:round;stroke-opacity:1"
     id="g1825"
     transform="translate(-41119.333,-35017.34)" />
  <g
     style="fill:#000000;fill-opacity:0;stroke:#000000;stroke-width:39.3701;stroke-linecap:round;stroke-linejoin:round;stroke-opacity:1"
     id="g1833"
     transform="translate(-41119.333,-35017.34)" />
  <g
     style="fill:#000000;fill-opacity:0;stroke:#000000;stroke-width:39.3701;stroke-linecap:round;stroke-linejoin:round;stroke-opacity:1"
     id="g1841"
     transform="translate(-41119.333,-35017.34)" />
  <g
     style="fill:#000000;fill-opacity:0;stroke:#000000;stroke-width:39.3701;stroke-linecap:round;stroke-linejoin:round;stroke-opacity:1"
     id="g1851"
     transform="translate(-41119.333,-35017.34)" />
  <g
     style="fill:#000000;fill-opacity:0;stroke:#000000;stroke-width:39.3701;stroke-linecap:round;stroke-linejoin:round;stroke-opacity:1"
     id="g1859"
     transform="translate(-41119.333,-35017.34)" />
  <g
     style="fill:#000000;fill-opacity:0;stroke:#000000;stroke-width:39.3701;stroke-linecap:round;stroke-linejoin:round;stroke-opacity:1"
     id="g1867"
     transform="translate(-41119.333,-35017.34)" />
  <g
     style="fill:#000000;fill-opacity:0;stroke:#000000;stroke-width:39.3701;stroke-linecap:round;stroke-linejoin:round;stroke-opacity:1"
     id="g1873"
     transform="translate(-41119.333,-35017.34)" />
  <g
     style="fill:#000000;fill-opacity:0;stroke:#000000;stroke-width:39.3701;stroke-linecap:round;stroke-linejoin:round;stroke-opacity:1"
     id="g1879"
     transform="translate(-41119.333,-35017.34)" />
  <g
     style="fill:#000000;fill-opacity:0;stroke:#000000;stroke-width:39.3701;stroke-linecap:round;stroke-linejoin:round;stroke-opacity:1"
     id="g1885"
     transform="translate(-41119.333,-35017.34)" />
  <g
     style="fill:#000000;fill-opacity:0;stroke:#000000;stroke-width:39.3701;stroke-linecap:round;stroke-linejoin:round;stroke-opacity:1"
     id="g1895"
     transform="translate(-41119.333,-35017.34)" />
  <g
     style="fill:#000000;fill-opacity:0;stroke:#000000;stroke-width:39.3701;stroke-linecap:round;stroke-linejoin:round;stroke-opacity:1"
     id="g1903"
     transform="translate(-41119.333,-35017.34)" />
  <g
     style="fill:#000000;fill-opacity:0;stroke:#000000;stroke-width:39.3701;stroke-linecap:round;stroke-linejoin:round;stroke-opacity:1"
     id="g1911"
     transform="translate(-41119.333,-35017.34)" />
  <g
     style="fill:#000000;fill-opacity:0;stroke:#000000;stroke-width:39.3701;stroke-linecap:round;stroke-linejoin:round;stroke-opacity:1"
     id="g1919"
     transform="translate(-41119.333,-35017.34)" />
  <g
     style="fill:#000000;fill-opacity:0;stroke:#000000;stroke-width:39.3701;stroke-linecap:round;stroke-linejoin:round;stroke-opacity:1"
     id="g1925"
     transform="translate(-41119.333,-35017.34)" />
  <g
     style="fill:#000000;fill-opacity:0;stroke:#000000;stroke-width:39.3701;stroke-linecap:round;stroke-linejoin:round;stroke-opacity:1"
     id="g1931"
     transform="translate(-41119.333,-35017.34)" />
  <g
     style="fill:#000000;fill-opacity:0;stroke:#000000;stroke-width:39.3701;stroke-linecap:round;stroke-linejoin:round;stroke-opacity:1"
     id="g1937"
     transform="translate(-41119.333,-35017.34)" />
  <g
     style="fill:#000000;fill-opacity:0;stroke:#000000;stroke-width:39.3701;stroke-linecap:round;stroke-linejoin:round;stroke-opacity:1"
     id="g1947"
     transform="translate(-41119.333,-35017.34)" />
  <g
     style="fill:#000000;fill-opacity:0;stroke:#000000;stroke-width:39.3701;stroke-linecap:round;stroke-linejoin:round;stroke-opacity:1"
     id="g1955"
     transform="translate(-41119.333,-35017.34)" />
  <g
     style="fill:#000000;fill-opacity:0;stroke:#000000;stroke-width:39.3701;stroke-linecap:round;stroke-linejoin:round;stroke-opacity:1"
     id="g1963"
     transform="translate(-41119.333,-35017.34)" />
  <g
     style="fill:#000000;fill-opacity:0;stroke:#000000;stroke-width:39.3701;stroke-linecap:round;stroke-linejoin:round;stroke-opacity:1"
     id="g1971"
     transform="translate(-41119.333,-35017.34)" />
  <g
     style="fill:#000000;fill-opacity:0;stroke:#000000;stroke-width:39.3701;stroke-linecap:round;stroke-linejoin:round;stroke-opacity:1"
     id="g1993"
     transform="translate(-41119.333,-35017.34)" />
  <g
     style="fill:#000000;fill-opacity:0;stroke:#000000;stroke-width:39.3701;stroke-linecap:round;stroke-linejoin:round;stroke-opacity:1"
     id="g1999"
     transform="translate(-41119.333,-35017.34)" />
  <g
     style="fill:#000000;fill-opacity:0;stroke:#000000;stroke-width:39.3701;stroke-linecap:round;stroke-linejoin:round;stroke-opacity:1"
     id="g2099"
     transform="translate(-41119.333,-35017.34)" />
  <g
     style="fill:#000000;fill-opacity:0;stroke:#000000;stroke-width:39.3701;stroke-linecap:round;stroke-linejoin:round;stroke-opacity:1"
     id="g2105"
     transform="translate(-41119.333,-35017.34)" />
  <g
     style="fill:#000000;fill-opacity:0;stroke:#000000;stroke-width:39.3701;stroke-linecap:round;stroke-linejoin:round;stroke-opacity:1"
     id="g2123"
     transform="translate(-41119.333,-35017.34)" />
  <g
     style="fill:#000000;fill-opacity:0;stroke:#000000;stroke-width:39.3701;stroke-linecap:round;stroke-linejoin:round;stroke-opacity:1"
     id="g2151"
     transform="translate(-41119.333,-35017.34)" />
  <g
     style="fill:#000000;fill-opacity:0;stroke:#000000;stroke-width:39.3701;stroke-linecap:round;stroke-linejoin:round;stroke-opacity:1"
     id="g2177"
     transform="translate(-41119.333,-35017.34)" />
  <g
     style="fill:#000000;fill-opacity:0;stroke:#000000;stroke-width:39.3701;stroke-linecap:round;stroke-linejoin:round;stroke-opacity:1"
     id="g2183"
     transform="translate(-41119.333,-35017.34)" />
  <g
     style="fill:#000000;fill-opacity:0;stroke:#000000;stroke-width:39.3701;stroke-linecap:round;stroke-linejoin:round;stroke-opacity:1"
     id="g2209"
     transform="translate(-41119.333,-35017.34)" />
  <g
     style="fill:#000000;fill-opacity:0;stroke:#000000;stroke-width:39.3701;stroke-linecap:round;stroke-linejoin:round;stroke-opacity:1"
     id="g2291"
     transform="translate(-41119.333,-35017.34)" />
  <g
     style="fill:#000000;fill-opacity:0;stroke:#000000;stroke-width:39.3701;stroke-linecap:round;stroke-linejoin:round;stroke-opacity:1"
     id="g2297"
     transform="translate(-41119.333,-35017.34)" />
  <g
     style="fill:#000000;fill-opacity:0;stroke:#000000;stroke-width:39.3701;stroke-linecap:round;stroke-linejoin:round;stroke-opacity:1"
     id="g2321"
     transform="translate(-41119.333,-35017.34)" />
  <g
     style="fill:#000000;fill-opacity:0;stroke:#000000;stroke-width:39.3701;stroke-linecap:round;stroke-linejoin:round;stroke-opacity:1"
     id="g2327"
     transform="translate(-41119.333,-35017.34)" />
  <g
     style="fill:#000000;fill-opacity:0;stroke:#ff0000;stroke-width:47.2441;stroke-linecap:round;stroke-linejoin:round;stroke-opacity:1"
     id="g2341"
     transform="matrix(1.1051116,0,0,1,-46267.7,-35017.34)">
    <path
       d="M 53381,39775 H 48980"
       id="path2333"
       style="stroke:#ff0000" />
    <path
       d="M 53381,41976 V 39775"
       id="path2335"
       style="stroke:#ff0000" />
    <path
       d="m 48980,41976 h 4401"
       id="path2337"
       style="stroke:#ff0000" />
    <path
       d="m 48980,39775 v 2201"
       id="path2339"
       style="stroke:#ff0000" />
  </g>
  <g
     style="fill:#000000;fill-opacity:1;stroke:#000000;stroke-width:0;stroke-linecap:round;stroke-linejoin:round;stroke-opacity:1"
     id="g2345"
     transform="translate(-41119.333,-35017.34)">
    <circle
       cx="48326.801"
       cy="39173.199"
       r="23.622"
       id="circle2343" />
  </g>
  <g
     style="fill:#000000;fill-opacity:1;stroke:#000000;stroke-width:47.2441;stroke-linecap:round;stroke-linejoin:round;stroke-opacity:1"
     id="g2347"
     transform="translate(-41119.333,-35017.34)" />
  <g
     style="fill:#000000;fill-opacity:0;stroke:#000000;stroke-width:47.2441;stroke-linecap:round;stroke-linejoin:round;stroke-opacity:1"
     id="g2383"
     transform="translate(-41119.333,-35017.34)">
    <path
       d="M 52838,44527 H 49688"
       id="path2349" />
    <path
       d="m 52838,43740 v 787"
       id="path2351" />
    <path
       d="m 52842,43740 h -4"
       id="path2353" />
    <path
       d="M 54035,43740 H 52842"
       id="path2355" />
    <path
       d="m 54035,39173 v 4567"
       id="path2357" />
    <path
       d="m 48326,39173 h 5709"
       id="path2359" />
    <path
       d="M 48326,43740 V 39173"
       id="path2361" />
    <path
       d="M 49688,43740 H 48326"
       id="path2363" />
    <path
       d="m 49688,44527 v -787"
       id="path2365" />
    <path
       d="m 58996,45370 v 2409"
       id="path2367" />
    <path
       d="M 58996,47779 H 57539"
       id="path2369" />
    <path
       d="M 57539,47779 V 45370"
       id="path2371" />
    <path
       d="m 57539,45370 h 1457"
       id="path2373" />
    <path
       d="M 43366,47779 V 45370"
       id="path2375" />
    <path
       d="m 43366,45370 h 1456"
       id="path2377" />
    <path
       d="m 44822,45370 v 2409"
       id="path2379" />
    <path
       d="M 44822,47779 H 43366"
       id="path2381" />
  </g>
  <g
     style="fill:#000000;fill-opacity:0;stroke:#000000;stroke-width:59.0551;stroke-linecap:round;stroke-linejoin:round;stroke-opacity:1"
     id="g2405"
     transform="translate(-41119.333,-35017.34)">
    <g
       transform="rotate(180,51181.1,40984.3)"
       id="g2387">
      <text
         x="51181.102"
         y="41181.102"
         textLength="1877.58"
         font-size="524.934px"
         lengthAdjust="spacingAndGlyphs"
         text-anchor="middle"
         opacity="0"
         id="text2385">64x32</text>
    </g>
    <path
       d="m 51827,41199 h 75 l 38,-18 19,-19 37,-56 19,-75 v -150 l -19,-38 -19,-19 -37,-18 h -75 l -38,18 -18,19 -19,38 v 93 l 19,38 18,19 38,18 h 75 l 37,-18 19,-19 19,-38"
       id="path2389" />
    <path
       d="m 51452,41068 v -262"
       id="path2391" />
    <path
       d="m 51546,41218 94,-281 h -244"
       id="path2393" />
    <path
       d="m 51284,40806 -207,262"
       id="path2395" />
    <path
       d="m 51284,41068 -207,-262"
       id="path2397" />
    <path
       d="m 50965,41199 h -244 l 132,-150 h -57 l -37,-18 -19,-19 -19,-38 v -93 l 19,-38 19,-19 37,-18 h 113 l 37,18 19,19"
       id="path2399" />
    <path
       d="m 50571,41162 -18,19 -38,18 h -94 l -37,-18 -19,-19 -19,-38 v -37 l 19,-56 225,-225 h -244"
       id="path2401" />
    <g
       id="g2403" />
  </g>
  <g
     style="fill:#000000;fill-opacity:0;stroke:#000000;stroke-width:59.0551;stroke-linecap:round;stroke-linejoin:round;stroke-opacity:1"
     id="g2407"
     transform="translate(-41119.333,-35017.34)" />
  <g
     style="fill:#000000;fill-opacity:0;stroke:#000000;stroke-width:19.685;stroke-linecap:round;stroke-linejoin:round;stroke-opacity:1"
     id="g2585"
     transform="translate(-41119.333,-35017.34)">
    <path
       d="m 59645.7,39842.5 a 196.85,196.85 0 0 0 0,-393.7"
       id="path2409" />
    <path
       d="m 56968.5,39448.8 a 196.85,196.85 0 0 0 0,393.7"
       id="path2411" />
    <path
       d="m 56102.4,39015.7 a 196.85,196.85 0 0 0 393.7,0"
       id="path2413" />
    <path
       d="m 56496.1,36614.2 a 196.85,196.85 0 0 0 -393.7,0"
       id="path2415" />
    <path
       d="M 59645,39448 H 56968"
       id="path2417" />
    <path
       d="m 56968,39842 h 2677"
       id="path2419" />
    <path
       d="M 56102,39015 V 36614"
       id="path2421" />
    <path
       d="m 56496,36614 v 2401"
       id="path2423" />
    <path
       d="M 59055,49803 H 43307"
       id="path2425" />
    <path
       d="M 60236,37204 V 48622"
       id="path2427" />
    <path
       d="M 59055,36023 H 43307"
       id="path2429" />
    <path
       d="M 42125,48622 V 37204"
       id="path2431" />
    <path
       d="M 60236.2,37204.7 A 1181.1,1181.1 0 0 0 59055.1,36023.6"
       id="path2433" />
    <path
       d="M 59055.1,49803.1 A 1181.1,1181.1 0 0 0 60236.2,48622"
       id="path2435" />
    <path
       d="m 42126,48622 a 1181.1,1181.1 0 0 0 1181.1,1181.1"
       id="path2437" />
    <path
       d="M 43307.1,36023.6 A 1181.1,1181.1 0 0 0 42126,37204.7"
       id="path2439" />
    <path
       d="m 53976.4,44921.3 a 393.701,393.701 0 0 0 0,-787.4"
       id="path2441" />
    <path
       d="m 48740.2,44133.9 a 393.701,393.701 0 0 0 0,787.4"
       id="path2443" />
    <path
       d="M 53976,44921 H 48740"
       id="path2445" />
    <path
       d="m 48740,44133 h 5236"
       id="path2447" />
    <g
       id="g2449" />
    <g
       id="g2451" />
    <g
       id="g2453" />
    <g
       id="g2455" />
    <g
       id="g2457" />
    <g
       id="g2459" />
    <g
       id="g2461" />
    <g
       id="g2463" />
    <g
       id="g2465" />
    <g
       id="g2467" />
    <g
       id="g2469" />
    <g
       id="g2471" />
    <g
       id="g2473" />
    <g
       id="g2475" />
    <g
       id="g2477" />
    <g
       id="g2479" />
    <g
       id="g2481" />
    <g
       id="g2483" />
    <g
       id="g2485" />
    <g
       id="g2487" />
    <g
       id="g2489" />
    <g
       id="g2491" />
    <g
       id="g2493" />
    <g
       id="g2495" />
    <g
       id="g2497" />
    <g
       id="g2499" />
    <g
       id="g2501" />
    <g
       id="g2503" />
    <g
       id="g2505" />
    <g
       id="g2507" />
    <g
       id="g2509" />
    <g
       id="g2511" />
    <g
       id="g2513" />
    <g
       id="g2515" />
    <g
       id="g2517" />
    <g
       id="g2519" />
    <g
       id="g2521" />
    <g
       id="g2523" />
    <g
       id="g2525" />
    <g
       id="g2527" />
    <g
       id="g2529" />
    <g
       id="g2531" />
    <g
       id="g2533" />
    <g
       id="g2535" />
    <g
       id="g2537" />
    <g
       id="g2539" />
    <g
       id="g2541" />
    <g
       id="g2543" />
    <g
       id="g2545" />
    <g
       id="g2547" />
    <g
       id="g2549" />
    <g
       id="g2551" />
    <g
       id="g2553" />
    <g
       id="g2555" />
    <g
       id="g2557" />
    <g
       id="g2559" />
    <g
       id="g2561" />
    <g
       id="g2563" />
    <g
       id="g2565" />
    <g
       id="g2567" />
    <g
       id="g2569" />
    <g
       id="g2571" />
    <g
       id="g2573" />
    <g
       id="g2575" />
    <g
       id="g2577" />
    <g
       id="g2579" />
    <g
       id="g2581" />
    <g
       id="g2583" />
  </g>
  <path
     id="rect3156"
     style="fill:none;stroke:#000000;stroke-width:104.331;stroke-miterlimit:4;stroke-dasharray:none;stroke-opacity:1"
     d="m 1440.973,52.167566 c -58.3742,0.0286 -116.7487,3.64359 -174.672,10.89328 -57.7274,7.22512 -115.0022,18.06612 -171.3718,32.45939 -52.4378,13.398154 -104.09065,29.868434 -154.59871,49.315844 -68.12562,26.23139 -134.16613,57.87352 -197.29922,94.52575 -62.61479,36.34521 -122.3697,77.61263 -178.54868,123.2794 -51.88767,42.17576 -100.72061,88.10659 -146.00566,137.30368 -50.60572,54.99158 -96.77676,114.06459 -137.88422,176.47678 -38.68115,58.71301 -72.88112,120.3774 -102.19852,184.28328 -25.9175,56.50013 -48.01579,114.75106 -66.09609,174.22443 -17.586043,57.8604 -31.370933,116.8742 -41.258923,176.5339 -10.5957,63.9274 -16.71544,128.592 -18.38926,193.3685 -0.4431,16.3865 -0.50934,32.7798 -0.47767,49.1713 4.1e-4,4326.7145 -8.2e-4,8653.4289 6.1e-4,12980.1439 0.0207,49.857 2.64942,99.714 7.9292,149.291 6.7463,63.332 17.82,126.204 33.17183,188.016 16.458933,66.285 37.833443,131.35 63.906863,194.476 29.86584,72.328 65.89775,142.108 107.55664,208.348 38.85039,61.786 82.59402,120.492 130.66923,175.405 45.54288,52.02 94.97136,100.636 147.74139,145.308 61.5927,52.143 127.73769,98.91 197.45202,139.563 62.21652,36.289 127.27217,67.712 194.38278,93.865 54.39466,21.212 110.14009,38.953 166.77929,53.118 50.6428,12.657 101.9996,22.451 153.7431,29.341 58.3086,7.754 117.1033,11.831 175.923,12.247 20.0936,0.08 40.1877,0.02 60.2815,0.04 5757.7266,0 11515.4533,0 17273.1803,0 44.035,-0.02 88.07,-2.073 131.914,-6.189 57.661,-5.423 114.989,-14.412 171.53,-26.959 58.951,-13.078 117.046,-30.016 173.784,-50.681 60.916,-22.186 120.264,-48.672 177.466,-79.182 56.512,-30.149 110.928,-64.223 162.732,-101.891 47.418,-34.477 92.642,-71.966 135.331,-112.149 42.294,-39.83 82.095,-82.306 119.081,-127.109 42.617,-51.623 81.496,-106.33 116.223,-163.559 33.401,-55.048 62.955,-112.429 88.371,-171.589 21.315,-49.626 39.718,-100.503 55.083,-152.281 15.472,-52.148 27.86,-105.209 37.104,-158.812 8.528,-49.461 14.368,-99.382 17.547,-149.472 1.97,-31.213 2.895,-62.489 2.824,-93.764 0,-4329.448 0,-8658.8954 0,-12988.3432 -0.02,-49.8239 -2.644,-99.648 -7.919,-149.1926 -6.725,-63.1838 -17.759,-125.9105 -33.05,-187.5847 -16.51,-66.6056 -37.984,-131.98056 -64.199,-195.39725 -27.913,-67.53466 -61.198,-132.84692 -99.424,-195.12676 -39.193,-63.86552 -83.582,-124.53969 -132.564,-181.24614 -49.22,-56.98694 -103.084,-109.96061 -160.875,-158.23307 -50.936,-42.538 -104.919,-81.42738 -161.412,-116.24739 -60.025,-37.00033 -122.881,-69.40727 -187.843,-96.83034 -57.571,-24.30326 -116.793,-44.69043 -177.121,-60.98511 -64.049,-17.295684 -129.341,-29.978474 -195.202,-37.954084 -56.189,-6.81326 -112.79,-10.1964 -169.389,-10.22102 -5774.53,-0.002 -11549.0599,-2.4e-4 -17323.5896,-7.2e-4 -0.1061,6.5e-4 -0.2123,10e-4 -0.3184,0.002 z" />
  <ellipse
     style="fill:none;stroke:#ff0000;stroke-width:104.33;stroke-miterlimit:4;stroke-dasharray:none;stroke-opacity:1"
     id="path1032"
     cx="15918.022"
     cy="2799.3875"
     rx="286.7001"
     ry="293.0712"
     inkscape:transform-center-x="1006.6359"
     inkscape:transform-center-y="31.855565" />
  <ellipse
     style="fill:none;stroke:#ff0000;stroke-width:104.33;stroke-miterlimit:4;stroke-dasharray:none;stroke-opacity:1"
     id="path1032-1"
     cx="9852.4463"
     cy="-13241.562"
     rx="286.7001"
     ry="293.0712"
     inkscape:transform-center-x="530.90682"
     inkscape:transform-center-y="-855.84461"
     transform="rotate(60)" />
  <ellipse
     style="fill:none;stroke:#ff0000;stroke-width:104.33;stroke-miterlimit:4;stroke-dasharray:none;stroke-opacity:1"
     id="path1032-1-8"
     cx="16925.188"
     cy="2771.4106"
     rx="286.7001"
     ry="293.0712"
     inkscape:transform-center-x="1006.6359"
     inkscape:transform-center-y="31.855565" />
  <ellipse
     style="fill:none;stroke:#ff0000;stroke-width:104.33;stroke-miterlimit:4;stroke-dasharray:none;stroke-opacity:1"
     id="path1032-1-8-2"
     cx="9349.1855"
     cy="-12369.889"
     rx="286.7001"
     ry="293.0712"
     inkscape:transform-center-x="530.90682"
     inkscape:transform-center-y="-855.84461"
     transform="rotate(60)" />
  <ellipse
     style="fill:none;stroke:#ff0000;stroke-width:104.33;stroke-miterlimit:4;stroke-dasharray:none;stroke-opacity:1"
     id="path1032-1-8-2-8"
     cx="-7072.2129"
     cy="-16009.095"
     rx="286.7001"
     ry="293.0712"
     inkscape:transform-center-x="-475.73039"
     inkscape:transform-center-y="-887.70055"
     transform="rotate(120)" />
  <ellipse
     style="fill:none;stroke:#ff0000;stroke-width:104.33;stroke-miterlimit:4;stroke-dasharray:none;stroke-opacity:1"
     id="path1032-1-8-2-8-1"
     cx="-17931.295"
     cy="-2735.6765"
     rx="286.7001"
     ry="293.0712"
     inkscape:transform-center-x="-1006.6366"
     inkscape:transform-center-y="-31.855503"
     transform="scale(-1)" />
  <ellipse
     style="fill:none;stroke:#ff0000;stroke-width:104.33;stroke-miterlimit:4;stroke-dasharray:none;stroke-opacity:1"
     id="path1032-1-8-2-8-1-8"
     cx="-11865.719"
     cy="13305.273"
     rx="286.7001"
     ry="293.0712"
     inkscape:transform-center-x="-530.90563"
     inkscape:transform-center-y="855.8446"
     transform="rotate(-120)" />
  <ellipse
     style="fill:none;stroke:#ff0000;stroke-width:104.33;stroke-miterlimit:4;stroke-dasharray:none;stroke-opacity:1"
     id="path1032-1-8-2-8-1-8-3"
     cx="5058.9404"
     cy="16072.806"
     rx="286.7001"
     ry="293.0712"
     inkscape:transform-center-x="475.73054"
     inkscape:transform-center-y="887.70009"
     transform="rotate(-60)" />
  <ellipse
     style="fill:none;stroke:#ff0000;stroke-width:104.33;stroke-miterlimit:4;stroke-dasharray:none;stroke-opacity:1"
     id="path1032-2"
     cx="4555.6797"
     cy="15201.133"
     rx="286.7001"
     ry="293.0712"
     inkscape:transform-center-x="475.73054"
     inkscape:transform-center-y="887.70009"
     transform="rotate(-60)" />
  <ellipse
     style="fill:none;stroke:#ff0000;stroke-width:104.33;stroke-miterlimit:4;stroke-dasharray:none;stroke-opacity:1"
     id="path1032-8"
     cx="-7575.4771"
     cy="-16880.775"
     rx="286.7001"
     ry="293.0712"
     inkscape:transform-center-x="-475.73039"
     inkscape:transform-center-y="-887.70055"
     transform="rotate(120)" />
  <ellipse
     style="fill:none;stroke:#ff0000;stroke-width:104.33;stroke-miterlimit:4;stroke-dasharray:none;stroke-opacity:1"
     id="path1032-8-4"
     cx="-12368.983"
     cy="14176.953"
     rx="286.7001"
     ry="293.0712"
     inkscape:transform-center-x="-530.90563"
     inkscape:transform-center-y="855.8446"
     transform="rotate(-120)" />
  <ellipse
     style="fill:none;stroke:#000000;stroke-width:104.33;stroke-miterlimit:4;stroke-dasharray:none;stroke-opacity:1"
     id="path1032-1-8-0"
     cx="16925.211"
     cy="4549.0752"
     rx="286.7001"
     ry="293.0712"
     inkscape:transform-center-x="1006.6359"
     inkscape:transform-center-y="31.855565" />
  <ellipse
     style="fill:none;stroke:#000000;stroke-width:104.33;stroke-miterlimit:4;stroke-dasharray:none;stroke-opacity:1"
     id="path1032-1-8-9"
     cx="16925.211"
     cy="993.65833"
     rx="286.7001"
     ry="293.0712"
     inkscape:transform-center-x="1006.6359"
     inkscape:transform-center-y="31.855565" />
  <text
     xml:space="preserve"
     style="font-style:normal;font-weight:normal;font-size:2222.22px;line-height:1.25;font-family:sans-serif;fill:none;fill-opacity:1;stroke:#0000ff;stroke-width:104.167"
     x="3737.363"
     y="13979.335"
     id="text1038"><tspan
       sodipodi:role="line"
       id="tspan1036"
       x="3737.363"
       y="13979.335"
       style="font-style:normal;font-variant:normal;font-weight:normal;font-stretch:normal;font-size:2222.22px;font-family:'Arial Black';-inkscape-font-specification:'Arial Black, ';fill:none;stroke:#0000ff;stroke-width:104.167">AtmoNode</tspan></text>
</svg>
