<?xml version="1.0" encoding="UTF-8" standalone="no"?>
<svg
   xmlns:dc="http://purl.org/dc/elements/1.1/"
   xmlns:cc="http://creativecommons.org/ns#"
   xmlns:rdf="http://www.w3.org/1999/02/22-rdf-syntax-ns#"
   xmlns:svg="http://www.w3.org/2000/svg"
   xmlns="http://www.w3.org/2000/svg"
   xmlns:xlink="http://www.w3.org/1999/xlink"
   xmlns:sodipodi="http://sodipodi.sourceforge.net/DTD/sodipodi-0.dtd"
   xmlns:inkscape="http://www.inkscape.org/namespaces/inkscape"
   version="1.1"
   width="51.323364mm"
   height="40.323349mm"
   viewBox="0 0 20206.049 15875.335"
   id="svg2587"
   sodipodi:docname="AtmoNode-Holder.svg"
   inkscape:version="1.0.1 (c497b03c, 2020-09-10)">
  <metadata
     id="metadata2593">
    <rdf:RDF>
      <cc:Work
         rdf:about="">
        <dc:format>image/svg+xml</dc:format>
        <dc:type
           rdf:resource="http://purl.org/dc/dcmitype/StillImage" />
        <dc:title>SVG Picture created as AtmoNode-brd.svg date 2020/12/25 16:44:00 </dc:title>
      </cc:Work>
    </rdf:RDF>
  </metadata>
  <defs
     id="defs2591" />
  <sodipodi:namedview
     pagecolor="#ffffff"
     bordercolor="#666666"
     borderopacity="1"
     objecttolerance="10"
     gridtolerance="10"
     guidetolerance="10"
     inkscape:pageopacity="0"
     inkscape:pageshadow="2"
     inkscape:window-width="1792"
     inkscape:window-height="1067"
     id="namedview2589"
     showgrid="false"
     inkscape:zoom="3.8077041"
     inkscape:cx="155.95602"
     inkscape:cy="64.501654"
     inkscape:window-x="0"
     inkscape:window-y="25"
     inkscape:window-maximized="0"
     inkscape:current-layer="svg2587"
     units="mm"
     fit-margin-top="0"
     fit-margin-left="0"
     fit-margin-right="0"
     fit-margin-bottom="0"
     inkscape:document-rotation="0" />
  <title
     id="title1677">SVG Picture created as AtmoNode-brd.svg date 2020/12/25 16:44:00 </title>
  <desc
     id="desc1679">Picture generated by PCBNEW </desc>
  <g
     style="fill:#000000;fill-opacity:1;stroke:#000000;stroke-linecap:round;stroke-linejoin:round;stroke-opacity:1"
     id="g1681"
     transform="translate(-41119.333,-35017.34)" />
  <g
     style="fill:#000000;fill-opacity:0;stroke:#000000;stroke-width:-0.000393701;stroke-linecap:round;stroke-linejoin:round;stroke-opacity:1"
     id="g1683"
     transform="translate(-41119.333,-35017.34)" />
  <g
     style="fill:#000000;fill-opacity:0;stroke:#000000;stroke-width:39.3701;stroke-linecap:round;stroke-linejoin:round;stroke-opacity:1"
     id="g1685"
     transform="translate(-41119.333,-35017.34)" />
  <g
     style="fill:#000000;fill-opacity:0;stroke:#000000;stroke-width:39.3701;stroke-linecap:round;stroke-linejoin:round;stroke-opacity:1"
     id="g1691"
     transform="translate(-41119.333,-35017.34)" />
  <g
     style="fill:#000000;fill-opacity:0;stroke:#000000;stroke-width:39.3701;stroke-linecap:round;stroke-linejoin:round;stroke-opacity:1"
     id="g1697"
     transform="translate(-41119.333,-35017.34)" />
  <g
     style="fill:#000000;fill-opacity:0;stroke:#000000;stroke-width:39.3701;stroke-linecap:round;stroke-linejoin:round;stroke-opacity:1"
     id="g1703"
     transform="translate(-41119.333,-35017.34)" />
  <g
     style="fill:#000000;fill-opacity:0;stroke:#000000;stroke-width:39.3701;stroke-linecap:round;stroke-linejoin:round;stroke-opacity:1"
     id="g1709"
     transform="translate(-41119.333,-35017.34)" />
  <g
     style="fill:#000000;fill-opacity:0;stroke:#000000;stroke-width:39.3701;stroke-linecap:round;stroke-linejoin:round;stroke-opacity:1"
     id="g1715"
     transform="translate(-41119.333,-35017.34)" />
  <g
     style="fill:#000000;fill-opacity:0;stroke:#000000;stroke-width:39.3701;stroke-linecap:round;stroke-linejoin:round;stroke-opacity:1"
     id="g1721"
     transform="translate(-41119.333,-35017.34)" />
  <g
     style="fill:#000000;fill-opacity:0;stroke:#000000;stroke-width:39.3701;stroke-linecap:round;stroke-linejoin:round;stroke-opacity:1"
     id="g1727"
     transform="translate(-41119.333,-35017.34)" />
  <g
     style="fill:#000000;fill-opacity:0;stroke:#000000;stroke-width:39.3701;stroke-linecap:round;stroke-linejoin:round;stroke-opacity:1"
     id="g1733"
     transform="translate(-41119.333,-35017.34)" />
  <g
     style="fill:#000000;fill-opacity:0;stroke:#000000;stroke-width:39.3701;stroke-linecap:round;stroke-linejoin:round;stroke-opacity:1"
     id="g1743"
     transform="translate(-41119.333,-35017.34)" />
  <g
     style="fill:#000000;fill-opacity:0;stroke:#000000;stroke-width:39.3701;stroke-linecap:round;stroke-linejoin:round;stroke-opacity:1"
     id="g1751"
     transform="translate(-41119.333,-35017.34)" />
  <g
     style="fill:#000000;fill-opacity:0;stroke:#000000;stroke-width:39.3701;stroke-linecap:round;stroke-linejoin:round;stroke-opacity:1"
     id="g1759"
     transform="translate(-41119.333,-35017.34)" />
  <g
     style="fill:#000000;fill-opacity:0;stroke:#000000;stroke-width:39.3701;stroke-linecap:round;stroke-linejoin:round;stroke-opacity:1"
     id="g1769"
     transform="translate(-41119.333,-35017.34)" />
  <g
     style="fill:#000000;fill-opacity:0;stroke:#000000;stroke-width:39.3701;stroke-linecap:round;stroke-linejoin:round;stroke-opacity:1"
     id="g1777"
     transform="translate(-41119.333,-35017.34)" />
  <g
     style="fill:#000000;fill-opacity:0;stroke:#000000;stroke-width:39.3701;stroke-linecap:round;stroke-linejoin:round;stroke-opacity:1"
     id="g1785"
     transform="translate(-41119.333,-35017.34)" />
  <g
     style="fill:#000000;fill-opacity:0;stroke:#000000;stroke-width:39.3701;stroke-linecap:round;stroke-linejoin:round;stroke-opacity:1"
     id="g1791"
     transform="translate(-41119.333,-35017.34)" />
  <g
     style="fill:#000000;fill-opacity:0;stroke:#000000;stroke-width:39.3701;stroke-linecap:round;stroke-linejoin:round;stroke-opacity:1"
     id="g1797"
     transform="translate(-41119.333,-35017.34)" />
  <g
     style="fill:#000000;fill-opacity:0;stroke:#000000;stroke-width:39.3701;stroke-linecap:round;stroke-linejoin:round;stroke-opacity:1"
     id="g1803"
     transform="translate(-41119.333,-35017.34)" />
  <g
     style="fill:#000000;fill-opacity:0;stroke:#000000;stroke-width:39.3701;stroke-linecap:round;stroke-linejoin:round;stroke-opacity:1"
     id="g1809"
     transform="translate(-41119.333,-35017.34)" />
  <g
     style="fill:#000000;fill-opacity:0;stroke:#000000;stroke-width:39.3701;stroke-linecap:round;stroke-linejoin:round;stroke-opacity:1"
     id="g1815"
     transform="translate(-41119.333,-35017.34)" />
  <g
     style="fill:#000000;fill-opacity:0;stroke:#000000;stroke-width:39.3701;stroke-linecap:round;stroke-linejoin:round;stroke-opacity:1"
     id="g1825"
     transform="translate(-41119.333,-35017.34)" />
  <g
     style="fill:#000000;fill-opacity:0;stroke:#000000;stroke-width:39.3701;stroke-linecap:round;stroke-linejoin:round;stroke-opacity:1"
     id="g1833"
     transform="translate(-41119.333,-35017.34)" />
  <g
     style="fill:#000000;fill-opacity:0;stroke:#000000;stroke-width:39.3701;stroke-linecap:round;stroke-linejoin:round;stroke-opacity:1"
     id="g1841"
     transform="translate(-41119.333,-35017.34)" />
  <g
     style="fill:#000000;fill-opacity:0;stroke:#000000;stroke-width:39.3701;stroke-linecap:round;stroke-linejoin:round;stroke-opacity:1"
     id="g1851"
     transform="translate(-41119.333,-35017.34)" />
  <g
     style="fill:#000000;fill-opacity:0;stroke:#000000;stroke-width:39.3701;stroke-linecap:round;stroke-linejoin:round;stroke-opacity:1"
     id="g1859"
     transform="translate(-41119.333,-35017.34)" />
  <g
     style="fill:#000000;fill-opacity:0;stroke:#000000;stroke-width:39.3701;stroke-linecap:round;stroke-linejoin:round;stroke-opacity:1"
     id="g1867"
     transform="translate(-41119.333,-35017.34)" />
  <g
     style="fill:#000000;fill-opacity:0;stroke:#000000;stroke-width:39.3701;stroke-linecap:round;stroke-linejoin:round;stroke-opacity:1"
     id="g1873"
     transform="translate(-41119.333,-35017.34)" />
  <g
     style="fill:#000000;fill-opacity:0;stroke:#000000;stroke-width:39.3701;stroke-linecap:round;stroke-linejoin:round;stroke-opacity:1"
     id="g1879"
     transform="translate(-41119.333,-35017.34)" />
  <g
     style="fill:#000000;fill-opacity:0;stroke:#000000;stroke-width:39.3701;stroke-linecap:round;stroke-linejoin:round;stroke-opacity:1"
     id="g1885"
     transform="translate(-41119.333,-35017.34)" />
  <g
     style="fill:#000000;fill-opacity:0;stroke:#000000;stroke-width:39.3701;stroke-linecap:round;stroke-linejoin:round;stroke-opacity:1"
     id="g1895"
     transform="translate(-41119.333,-35017.34)" />
  <g
     style="fill:#000000;fill-opacity:0;stroke:#000000;stroke-width:39.3701;stroke-linecap:round;stroke-linejoin:round;stroke-opacity:1"
     id="g1903"
     transform="translate(-41119.333,-35017.34)" />
  <g
     style="fill:#000000;fill-opacity:0;stroke:#000000;stroke-width:39.3701;stroke-linecap:round;stroke-linejoin:round;stroke-opacity:1"
     id="g1911"
     transform="translate(-41119.333,-35017.34)" />
  <g
     style="fill:#000000;fill-opacity:0;stroke:#000000;stroke-width:39.3701;stroke-linecap:round;stroke-linejoin:round;stroke-opacity:1"
     id="g1919"
     transform="translate(-41119.333,-35017.34)" />
  <g
     style="fill:#000000;fill-opacity:0;stroke:#000000;stroke-width:39.3701;stroke-linecap:round;stroke-linejoin:round;stroke-opacity:1"
     id="g1925"
     transform="translate(-41119.333,-35017.34)" />
  <g
     style="fill:#000000;fill-opacity:0;stroke:#000000;stroke-width:39.3701;stroke-linecap:round;stroke-linejoin:round;stroke-opacity:1"
     id="g1931"
     transform="translate(-41119.333,-35017.34)" />
  <g
     style="fill:#000000;fill-opacity:0;stroke:#000000;stroke-width:39.3701;stroke-linecap:round;stroke-linejoin:round;stroke-opacity:1"
     id="g1937"
     transform="translate(-41119.333,-35017.34)" />
  <g
     style="fill:#000000;fill-opacity:0;stroke:#000000;stroke-width:39.3701;stroke-linecap:round;stroke-linejoin:round;stroke-opacity:1"
     id="g1947"
     transform="translate(-41119.333,-35017.34)" />
  <g
     style="fill:#000000;fill-opacity:0;stroke:#000000;stroke-width:39.3701;stroke-linecap:round;stroke-linejoin:round;stroke-opacity:1"
     id="g1955"
     transform="translate(-41119.333,-35017.34)" />
  <g
     style="fill:#000000;fill-opacity:0;stroke:#000000;stroke-width:39.3701;stroke-linecap:round;stroke-linejoin:round;stroke-opacity:1"
     id="g1963"
     transform="translate(-41119.333,-35017.34)" />
  <g
     style="fill:#000000;fill-opacity:0;stroke:#000000;stroke-width:39.3701;stroke-linecap:round;stroke-linejoin:round;stroke-opacity:1"
     id="g1971"
     transform="translate(-41119.333,-35017.34)" />
  <g
     style="fill:#000000;fill-opacity:0;stroke:#000000;stroke-width:39.3701;stroke-linecap:round;stroke-linejoin:round;stroke-opacity:1"
     id="g1993"
     transform="translate(-41119.333,-35017.34)" />
  <g
     style="fill:#000000;fill-opacity:0;stroke:#000000;stroke-width:39.3701;stroke-linecap:round;stroke-linejoin:round;stroke-opacity:1"
     id="g1999"
     transform="translate(-41119.333,-35017.34)" />
  <g
     style="fill:#000000;fill-opacity:0;stroke:#000000;stroke-width:39.3701;stroke-linecap:round;stroke-linejoin:round;stroke-opacity:1"
     id="g2099"
     transform="translate(-41119.333,-35017.34)" />
  <g
     style="fill:#000000;fill-opacity:0;stroke:#000000;stroke-width:39.3701;stroke-linecap:round;stroke-linejoin:round;stroke-opacity:1"
     id="g2105"
     transform="translate(-41119.333,-35017.34)" />
  <g
     style="fill:#000000;fill-opacity:0;stroke:#000000;stroke-width:39.3701;stroke-linecap:round;stroke-linejoin:round;stroke-opacity:1"
     id="g2123"
     transform="translate(-41119.333,-35017.34)" />
  <g
     style="fill:#000000;fill-opacity:0;stroke:#000000;stroke-width:39.3701;stroke-linecap:round;stroke-linejoin:round;stroke-opacity:1"
     id="g2151"
     transform="translate(-41119.333,-35017.34)" />
  <g
     style="fill:#000000;fill-opacity:0;stroke:#000000;stroke-width:39.3701;stroke-linecap:round;stroke-linejoin:round;stroke-opacity:1"
     id="g2177"
     transform="translate(-41119.333,-35017.34)" />
  <g
     style="fill:#000000;fill-opacity:0;stroke:#000000;stroke-width:39.3701;stroke-linecap:round;stroke-linejoin:round;stroke-opacity:1"
     id="g2183"
     transform="translate(-41119.333,-35017.34)" />
  <g
     style="fill:#000000;fill-opacity:0;stroke:#000000;stroke-width:39.3701;stroke-linecap:round;stroke-linejoin:round;stroke-opacity:1"
     id="g2209"
     transform="translate(-41119.333,-35017.34)" />
  <g
     style="fill:#000000;fill-opacity:0;stroke:#000000;stroke-width:39.3701;stroke-linecap:round;stroke-linejoin:round;stroke-opacity:1"
     id="g2291"
     transform="translate(-41119.333,-35017.34)" />
  <g
     style="fill:#000000;fill-opacity:0;stroke:#000000;stroke-width:39.3701;stroke-linecap:round;stroke-linejoin:round;stroke-opacity:1"
     id="g2297"
     transform="translate(-41119.333,-35017.34)" />
  <g
     style="fill:#000000;fill-opacity:0;stroke:#000000;stroke-width:39.3701;stroke-linecap:round;stroke-linejoin:round;stroke-opacity:1"
     id="g2321"
     transform="translate(-41119.333,-35017.34)" />
  <g
     style="fill:#000000;fill-opacity:0;stroke:#000000;stroke-width:39.3701;stroke-linecap:round;stroke-linejoin:round;stroke-opacity:1"
     id="g2327"
     transform="translate(-41119.333,-35017.34)" />
  <g
     style="fill:#000000;fill-opacity:0;stroke:#000000;stroke-width:47.2441;stroke-linecap:round;stroke-linejoin:round;stroke-opacity:1"
     id="g2341"
     transform="translate(-41119.333,-35017.34)">
    <path
       d="M 53381,39775 H 48980"
       id="path2333"
       style="stroke:#000000" />
    <path
       d="M 53381,41976 V 39775"
       id="path2335"
       style="stroke:#000000" />
    <path
       d="m 48980,41976 h 4401"
       id="path2337"
       style="stroke:#000000" />
    <path
       d="m 48980,39775 v 2201"
       id="path2339"
       style="stroke:#000000" />
  </g>
  <g
     style="fill:#000000;fill-opacity:1;stroke:#000000;stroke-width:0;stroke-linecap:round;stroke-linejoin:round;stroke-opacity:1"
     id="g2345"
     transform="translate(-41119.333,-35017.34)">
    <circle
       cx="48326.801"
       cy="39173.199"
       r="23.622"
       id="circle2343" />
  </g>
  <g
     style="fill:#000000;fill-opacity:1;stroke:#000000;stroke-width:47.2441;stroke-linecap:round;stroke-linejoin:round;stroke-opacity:1"
     id="g2347"
     transform="translate(-41119.333,-35017.34)" />
  <g
     style="fill:#000000;fill-opacity:0;stroke:#000000;stroke-width:47.2441;stroke-linecap:round;stroke-linejoin:round;stroke-opacity:1"
     id="g2383"
     transform="translate(-41119.333,-35017.34)">
    <path
       d="M 52838,44527 H 49688"
       id="path2349" />
    <path
       d="m 52838,43740 v 787"
       id="path2351" />
    <path
       d="m 52842,43740 h -4"
       id="path2353" />
    <path
       d="M 54035,43740 H 52842"
       id="path2355" />
    <path
       d="m 54035,39173 v 4567"
       id="path2357" />
    <path
       d="m 48326,39173 h 5709"
       id="path2359" />
    <path
       d="M 48326,43740 V 39173"
       id="path2361" />
    <path
       d="M 49688,43740 H 48326"
       id="path2363" />
    <path
       d="m 49688,44527 v -787"
       id="path2365" />
    <path
       d="m 58996,45370 v 2409"
       id="path2367" />
    <path
       d="M 58996,47779 H 57539"
       id="path2369" />
    <path
       d="M 57539,47779 V 45370"
       id="path2371" />
    <path
       d="m 57539,45370 h 1457"
       id="path2373" />
    <path
       d="M 43366,47779 V 45370"
       id="path2375" />
    <path
       d="m 43366,45370 h 1456"
       id="path2377" />
    <path
       d="m 44822,45370 v 2409"
       id="path2379" />
    <path
       d="M 44822,47779 H 43366"
       id="path2381" />
  </g>
  <g
     style="fill:#000000;fill-opacity:0;stroke:#000000;stroke-width:59.0551;stroke-linecap:round;stroke-linejoin:round;stroke-opacity:1"
     id="g2405"
     transform="translate(-41119.333,-35017.34)">
    <g
       transform="rotate(180,51181.1,40984.3)"
       id="g2387">
      <text
         x="51181.102"
         y="41181.102"
         textLength="1877.58"
         font-size="524.934px"
         lengthAdjust="spacingAndGlyphs"
         text-anchor="middle"
         opacity="0"
         id="text2385">64x32</text>
    </g>
    <path
       d="m 51827,41199 h 75 l 38,-18 19,-19 37,-56 19,-75 v -150 l -19,-38 -19,-19 -37,-18 h -75 l -38,18 -18,19 -19,38 v 93 l 19,38 18,19 38,18 h 75 l 37,-18 19,-19 19,-38"
       id="path2389" />
    <path
       d="m 51452,41068 v -262"
       id="path2391" />
    <path
       d="m 51546,41218 94,-281 h -244"
       id="path2393" />
    <path
       d="m 51284,40806 -207,262"
       id="path2395" />
    <path
       d="m 51284,41068 -207,-262"
       id="path2397" />
    <path
       d="m 50965,41199 h -244 l 132,-150 h -57 l -37,-18 -19,-19 -19,-38 v -93 l 19,-38 19,-19 37,-18 h 113 l 37,18 19,19"
       id="path2399" />
    <path
       d="m 50571,41162 -18,19 -38,18 h -94 l -37,-18 -19,-19 -19,-38 v -37 l 19,-56 225,-225 h -244"
       id="path2401" />
    <g
       id="g2403" />
  </g>
  <g
     style="fill:#000000;fill-opacity:0;stroke:#000000;stroke-width:59.0551;stroke-linecap:round;stroke-linejoin:round;stroke-opacity:1"
     id="g2407"
     transform="translate(-41119.333,-35017.34)" />
  <g
     style="fill:#000000;fill-opacity:0;stroke:#000000;stroke-width:19.685;stroke-linecap:round;stroke-linejoin:round;stroke-opacity:1"
     id="g2585"
     transform="translate(-41119.333,-35017.34)">
    <path
       d="m 59645.7,39842.5 a 196.85,196.85 0 0 0 0,-393.7"
       id="path2409" />
    <path
       d="m 56968.5,39448.8 a 196.85,196.85 0 0 0 0,393.7"
       id="path2411" />
    <path
       d="m 56102.4,39015.7 a 196.85,196.85 0 0 0 393.7,0"
       id="path2413" />
    <path
       d="m 56496.1,36614.2 a 196.85,196.85 0 0 0 -393.7,0"
       id="path2415" />
    <path
       d="M 59645,39448 H 56968"
       id="path2417" />
    <path
       d="m 56968,39842 h 2677"
       id="path2419" />
    <path
       d="M 56102,39015 V 36614"
       id="path2421" />
    <path
       d="m 56496,36614 v 2401"
       id="path2423" />
    <path
       d="M 59055,49803 H 43307"
       id="path2425" />
    <path
       d="M 60236,37204 V 48622"
       id="path2427" />
    <path
       d="M 59055,36023 H 43307"
       id="path2429" />
    <path
       d="M 42125,48622 V 37204"
       id="path2431" />
    <path
       d="M 60236.2,37204.7 A 1181.1,1181.1 0 0 0 59055.1,36023.6"
       id="path2433" />
    <path
       d="M 59055.1,49803.1 A 1181.1,1181.1 0 0 0 60236.2,48622"
       id="path2435" />
    <path
       d="m 42126,48622 a 1181.1,1181.1 0 0 0 1181.1,1181.1"
       id="path2437" />
    <path
       d="M 43307.1,36023.6 A 1181.1,1181.1 0 0 0 42126,37204.7"
       id="path2439" />
    <path
       d="m 53976.4,44921.3 a 393.701,393.701 0 0 0 0,-787.4"
       id="path2441" />
    <path
       d="m 48740.2,44133.9 a 393.701,393.701 0 0 0 0,787.4"
       id="path2443" />
    <path
       d="M 53976,44921 H 48740"
       id="path2445" />
    <path
       d="m 48740,44133 h 5236"
       id="path2447" />
    <g
       id="g2449" />
    <g
       id="g2451" />
    <g
       id="g2453" />
    <g
       id="g2455" />
    <g
       id="g2457" />
    <g
       id="g2459" />
    <g
       id="g2461" />
    <g
       id="g2463" />
    <g
       id="g2465" />
    <g
       id="g2467" />
    <g
       id="g2469" />
    <g
       id="g2471" />
    <g
       id="g2473" />
    <g
       id="g2475" />
    <g
       id="g2477" />
    <g
       id="g2479" />
    <g
       id="g2481" />
    <g
       id="g2483" />
    <g
       id="g2485" />
    <g
       id="g2487" />
    <g
       id="g2489" />
    <g
       id="g2491" />
    <g
       id="g2493" />
    <g
       id="g2495" />
    <g
       id="g2497" />
    <g
       id="g2499" />
    <g
       id="g2501" />
    <g
       id="g2503" />
    <g
       id="g2505" />
    <g
       id="g2507" />
    <g
       id="g2509" />
    <g
       id="g2511" />
    <g
       id="g2513" />
    <g
       id="g2515" />
    <g
       id="g2517" />
    <g
       id="g2519" />
    <g
       id="g2521" />
    <g
       id="g2523" />
    <g
       id="g2525" />
    <g
       id="g2527" />
    <g
       id="g2529" />
    <g
       id="g2531" />
    <g
       id="g2533" />
    <g
       id="g2535" />
    <g
       id="g2537" />
    <g
       id="g2539" />
    <g
       id="g2541" />
    <g
       id="g2543" />
    <g
       id="g2545" />
    <g
       id="g2547" />
    <g
       id="g2549" />
    <g
       id="g2551" />
    <g
       id="g2553" />
    <g
       id="g2555" />
    <g
       id="g2557" />
    <g
       id="g2559" />
    <g
       id="g2561" />
    <g
       id="g2563" />
    <g
       id="g2565" />
    <g
       id="g2567" />
    <g
       id="g2569" />
    <g
       id="g2571" />
    <g
       id="g2573" />
    <g
       id="g2575" />
    <g
       id="g2577" />
    <g
       id="g2579" />
    <g
       id="g2581" />
    <g
       id="g2583" />
  </g>
  <path
     style="fill:none;stroke:#ff0000;stroke-width:104.167"
     sodipodi:type="inkscape:offset"
     inkscape:radius="-106.92086"
     inkscape:original="M 1441.293 52.166016 C 1441.1869 52.166666 1441.0807 52.166969 1440.9746 52.167969 L 1440.9727 52.167969 C 1382.5985 52.196569 1324.2241 55.810857 1266.3008 63.060547 C 1208.5734 70.285667 1151.2993 81.126261 1094.9297 95.519531 C 1042.4919 108.91769 990.83814 125.38853 940.33008 144.83594 C 872.20446 171.06733 806.16434 202.7091 743.03125 239.36133 C 680.41646 275.70654 620.6614 316.97385 564.48242 362.64062 C 512.59475 404.81639 463.76161 450.74822 418.47656 499.94531 C 367.87084 554.93689 321.69926 614.00968 280.5918 676.42188 C 241.91065 735.13489 207.71193 796.7992 178.39453 860.70508 C 152.47703 917.20521 130.37913 975.45632 112.29883 1034.9297 C 94.712785 1092.7901 80.927053 1151.8032 71.039062 1211.4629 C 60.443362 1275.3903 54.324211 1340.0555 52.650391 1404.832 C 52.207291 1421.2185 52.140205 1437.6124 52.171875 1454.0039 C 52.172285 5780.7184 52.172398 10107.431 52.173828 14434.146 C 52.194528 14484.003 54.821783 14533.86 60.101562 14583.438 C 66.847862 14646.77 77.921607 14709.641 93.273438 14771.453 C 109.73237 14837.738 131.10822 14902.804 157.18164 14965.93 C 187.04748 15038.258 223.07939 15108.037 264.73828 15174.277 C 303.58867 15236.063 347.33104 15294.771 395.40625 15349.684 C 440.94913 15401.704 490.37841 15450.318 543.14844 15494.99 C 604.74114 15547.133 670.88528 15593.902 740.59961 15634.555 C 802.81613 15670.844 867.87181 15702.267 934.98242 15728.42 C 989.37708 15749.632 1045.1225 15767.372 1101.7617 15781.537 C 1152.4045 15794.194 1203.7624 15803.989 1255.5059 15810.879 C 1313.8145 15818.633 1372.608 15822.709 1431.4277 15823.125 C 1451.5213 15823.205 1471.6152 15823.144 1491.709 15823.164 L 18764.891 15823.164 C 18808.926 15823.144 18852.961 15821.093 18896.805 15816.977 C 18954.466 15811.554 19011.793 15802.565 19068.334 15790.018 C 19127.285 15776.94 19185.379 15760.001 19242.117 15739.336 C 19303.033 15717.15 19362.382 15690.664 19419.584 15660.154 C 19476.096 15630.005 19530.512 15595.932 19582.316 15558.264 C 19629.734 15523.787 19674.957 15486.296 19717.646 15446.113 C 19759.94 15406.283 19799.743 15363.809 19836.729 15319.006 C 19879.346 15267.383 19918.224 15212.674 19952.951 15155.445 C 19986.352 15100.397 20015.906 15043.017 20041.322 14983.857 C 20062.637 14934.231 20081.039 14883.354 20096.404 14831.576 C 20111.876 14779.428 20124.266 14726.367 20133.51 14672.764 C 20142.038 14623.303 20147.878 14573.383 20151.057 14523.293 C 20153.027 14492.08 20153.952 14460.802 20153.881 14429.527 L 20153.881 1441.1855 C 20153.861 1391.3616 20151.236 1341.5368 20145.961 1291.9922 C 20139.236 1228.8084 20128.201 1166.0824 20112.91 1104.4082 C 20096.4 1037.8026 20074.928 972.42646 20048.713 909.00977 C 20020.8 841.47511 19987.513 776.16265 19949.287 713.88281 C 19910.094 650.01729 19865.707 589.34317 19816.725 532.63672 C 19767.505 475.64978 19713.641 422.67676 19655.85 374.4043 C 19604.914 331.8663 19550.931 292.97626 19494.438 258.15625 C 19434.412 221.15592 19371.556 188.74924 19306.594 161.32617 C 19249.023 137.02291 19189.801 116.63648 19129.473 100.3418 C 19065.424 83.046113 19000.132 70.362329 18934.271 62.386719 C 18878.082 55.573459 18821.482 52.190636 18764.883 52.166016 C 12990.353 52.164016 7215.8227 52.166496 1441.293 52.166016 z "
     xlink:href="#rect3156"
     id="path1022"
     inkscape:href="#rect3156"
     d="m 445.72266,-836.73242 c -0.17383,6.5e-4 -0.55664,0.002 -0.57422,0.002 -53.97816,0.0286 -107.92517,3.37442 -161.39258,10.06641 -53.28986,6.66972 -106.16695,16.68032 -158.18164,29.96094 -0.002,5e-4 -0.004,0.001 -0.006,0.002 -0.003,8.2e-4 -0.007,0.001 -0.01,0.002 -48.388374,12.36414 -96.053948,27.56081 -142.634762,45.4961 -62.841426,24.19684 -123.794188,53.4008 -182.035158,87.21289 a 106.93155,106.93155 0 0 1 -0.006,0.004 c -57.76613,33.53077 -112.93256,71.63059 -164.78125,113.77735 a 106.93155,106.93155 0 0 1 -0.004,0.002 c -47.88413,38.92156 -92.97448,81.332 -134.77735,126.74609 -46.70975,50.75906 -89.33731,105.30046 -127.25976,162.87696 a 106.93155,106.93155 0 0 1 -0.008,0.01 c -35.68782,54.16952 -67.25404,111.08861 -94.30078,170.044923 -23.90862,52.121262 -44.30186,105.877606 -60.98047,160.740235 -16.22331,53.377772 -28.94767,107.850482 -38.07421,162.916012 -9.77964,59.00377 -15.43887,118.7618 -16.98633,178.64844 a 106.93155,106.93155 0 0 1 -0.004,0.12891 c -0.39889,14.75169 -0.47029,30.11211 -0.43945,46.07422 a 106.93155,106.93155 0 0 1 0,0.20703 c 4.1e-4,4326.71445 -0.001,8653.42785 0,12980.14245 0.0207,46.113 2.45541,92.196 7.33008,137.969 6.23046,58.488 16.45674,116.545 30.61914,173.568 a 106.93155,106.93155 0 0 1 0.002,0 c 15.18512,61.155 34.91077,121.199 58.95898,179.422 a 106.93155,106.93155 0 0 1 0.004,0.01 c 27.54657,66.711 60.80578,131.123 99.24024,192.236 a 106.93155,106.93155 0 0 1 0.004,0 c 35.84398,57.005 76.23158,111.206 120.60352,161.889 42.03478,48.013 87.67662,92.904 136.3789,134.132 56.8436,48.123 117.91566,91.302 182.22852,128.805 a 106.93155,106.93155 0 0 1 0.008,0 c 57.40122,33.48 117.442015,62.481 179.335939,86.602 a 106.93155,106.93155 0 0 1 0.02344,0 c 50.152036,19.558 101.590188,35.927 153.859374,49 0.003,0 0.005,0 0.008,0 0.003,0 0.005,0 0.008,0 46.72385,11.677 94.13002,20.719 141.89453,27.08 53.82612,7.158 108.14944,10.927 162.50781,11.315 19.48698,0.08 39.35223,0.02 59.60352,0.04 H 17769.064 c 40.72,-0.02 81.419,-1.921 121.903,-5.721 l 0.02,-0 c 53.266,-5.01 106.206,-13.315 158.362,-24.889 a 106.93155,106.93155 0 0 1 0,0 c 54.394,-12.067 108.008,-27.7 160.347,-46.763 a 106.93155,106.93155 0 0 1 0,0 c 56.185,-20.463 110.954,-44.905 163.729,-73.053 52.142,-27.818 102.373,-59.27 150.179,-94.031 a 106.93155,106.93155 0 0 1 0,-0 c 43.749,-31.809 85.499,-66.415 124.907,-103.508 l 0.02,-0.02 c 39.039,-36.765 75.781,-75.98 109.91,-117.322 39.333,-47.644 75.228,-98.151 107.27,-150.955 l 0,-0 c 30.814,-50.784 58.087,-103.743 81.535,-158.32 l 0,-0 c 19.663,-45.781 36.644,-92.729 50.818,-140.494 v 0 c 14.273,-48.106 25.709,-97.087 34.242,-146.569 v -0 c 7.868,-45.63 13.264,-91.734 16.203,-138.033 l 0,-0.03 c 1.819,-28.824 2.678,-57.765 2.612,-86.758 a 106.93155,106.93155 0 0 1 0,-0.242 V 445.41016 v -0.043 c -0.02,-46.0855 -2.449,-92.13644 -7.319,-137.87305 a 106.93155,106.93155 0 0 1 0,-0.004 c -6.21,-58.34895 -16.402,-116.26927 -30.509,-173.16992 a 106.93155,106.93155 0 0 1 0,-0.006 c -15.232,-61.449466 -35.052,-121.785234 -59.231,-180.277341 a 106.93155,106.93155 0 0 1 -0,-0.0039 c -25.746,-62.293303 -56.468,-122.574083 -91.736,-180.035153 a 106.93155,106.93155 0 0 1 -0,-0.008 c -36.159,-58.92092 -77.141,-114.93966 -122.35,-167.27734 a 106.93155,106.93155 0 0 1 -0,-0.004 c -45.42,-52.58795 -95.157,-101.5038 -148.494,-146.05664 l -0,-0.006 c -47.014,-39.26201 -96.85,-75.16282 -148.969,-107.2871 a 106.93155,106.93155 0 0 1 -0,-0.002 c -55.384,-34.13949 -113.398,-64.05066 -173.318,-89.3457 -53.104,-22.41747 -107.76,-41.23159 -163.42,-56.26563 h 0 c -59.092,-15.95718 -119.377,-27.66794 -180.181,-35.03125 a 106.93155,106.93155 0 0 1 -0.02,-0.002 c -51.872,-6.2898 -104.197,-9.42253 -156.564,-9.44531 -5774.43,-0.002 -11548.8579,4.8e-4 -17323.28734,0 z" />
  <path
     id="rect3156"
     style="fill:none;stroke:#000000;stroke-width:104.331;stroke-miterlimit:4;stroke-dasharray:none;stroke-opacity:1"
     d="m 1440.973,52.167566 c -58.3742,0.0286 -116.7487,3.64359 -174.672,10.89328 -57.7274,7.22512 -115.0022,18.06612 -171.3718,32.45939 -52.4378,13.398154 -104.09065,29.868434 -154.59871,49.315844 -68.12562,26.23139 -134.16613,57.87352 -197.29922,94.52575 -62.61479,36.34521 -122.3697,77.61263 -178.54868,123.2794 -51.88767,42.17576 -100.72061,88.10659 -146.00566,137.30368 -50.60572,54.99158 -96.77676,114.06459 -137.88422,176.47678 -38.68115,58.71301 -72.88112,120.3774 -102.19852,184.28328 -25.9175,56.50013 -48.01579,114.75106 -66.09609,174.22443 -17.586043,57.8604 -31.370933,116.8742 -41.258923,176.5339 -10.5957,63.9274 -16.71544,128.592 -18.38926,193.3685 -0.4431,16.3865 -0.50934,32.7798 -0.47767,49.1713 4.1e-4,4326.7145 -8.2e-4,8653.4289 6.1e-4,12980.1439 0.0207,49.857 2.64942,99.714 7.9292,149.291 6.7463,63.332 17.82,126.204 33.17183,188.016 16.458933,66.285 37.833443,131.35 63.906863,194.476 29.86584,72.328 65.89775,142.108 107.55664,208.348 38.85039,61.786 82.59402,120.492 130.66923,175.405 45.54288,52.02 94.97136,100.636 147.74139,145.308 61.5927,52.143 127.73769,98.91 197.45202,139.563 62.21652,36.289 127.27217,67.712 194.38278,93.865 54.39466,21.212 110.14009,38.953 166.77929,53.118 50.6428,12.657 101.9996,22.451 153.7431,29.341 58.3086,7.754 117.1033,11.831 175.923,12.247 20.0936,0.08 40.1877,0.02 60.2815,0.04 5757.7266,0 11515.4533,0 17273.1803,0 44.035,-0.02 88.07,-2.073 131.914,-6.189 57.661,-5.423 114.989,-14.412 171.53,-26.959 58.951,-13.078 117.046,-30.016 173.784,-50.681 60.916,-22.186 120.264,-48.672 177.466,-79.182 56.512,-30.149 110.928,-64.223 162.732,-101.891 47.418,-34.477 92.642,-71.966 135.331,-112.149 42.294,-39.83 82.095,-82.306 119.081,-127.109 42.617,-51.623 81.496,-106.33 116.223,-163.559 33.401,-55.048 62.955,-112.429 88.371,-171.589 21.315,-49.626 39.718,-100.503 55.083,-152.281 15.472,-52.148 27.86,-105.209 37.104,-158.812 8.528,-49.461 14.368,-99.382 17.547,-149.472 1.97,-31.213 2.895,-62.489 2.824,-93.764 0,-4329.448 0,-8658.8954 0,-12988.3432 -0.02,-49.8239 -2.644,-99.648 -7.919,-149.1926 -6.725,-63.1838 -17.759,-125.9105 -33.05,-187.5847 -16.51,-66.6056 -37.984,-131.98056 -64.199,-195.39725 -27.913,-67.53466 -61.198,-132.84692 -99.424,-195.12676 -39.193,-63.86552 -83.582,-124.53969 -132.564,-181.24614 -49.22,-56.98694 -103.084,-109.96061 -160.875,-158.23307 -50.936,-42.538 -104.919,-81.42738 -161.412,-116.24739 -60.025,-37.00033 -122.881,-69.40727 -187.843,-96.83034 -57.571,-24.30326 -116.793,-44.69043 -177.121,-60.98511 -64.049,-17.295684 -129.341,-29.978474 -195.202,-37.954084 -56.189,-6.81326 -112.79,-10.1964 -169.389,-10.22102 -5774.53,-0.002 -11549.0599,-2.4e-4 -17323.5896,-7.2e-4 -0.1061,6.5e-4 -0.2123,10e-4 -0.3184,0.002 z" />
  <ellipse
     style="fill:none;stroke:#000000;stroke-width:104.33;stroke-miterlimit:4;stroke-dasharray:none;stroke-opacity:1"
     id="path1032"
     cx="15918.022"
     cy="2799.3875"
     rx="286.7001"
     ry="293.0712"
     inkscape:transform-center-x="1006.6359"
     inkscape:transform-center-y="31.855565" />
  <ellipse
     style="fill:none;stroke:#000000;stroke-width:104.33;stroke-miterlimit:4;stroke-dasharray:none;stroke-opacity:1"
     id="path1032-1"
     cx="9852.4463"
     cy="-13241.562"
     rx="286.7001"
     ry="293.0712"
     inkscape:transform-center-x="530.90682"
     inkscape:transform-center-y="-855.84461"
     transform="rotate(60)" />
  <ellipse
     style="fill:none;stroke:#000000;stroke-width:104.33;stroke-miterlimit:4;stroke-dasharray:none;stroke-opacity:1"
     id="path1032-1-8"
     cx="16925.188"
     cy="2771.4106"
     rx="286.7001"
     ry="293.0712"
     inkscape:transform-center-x="1006.6359"
     inkscape:transform-center-y="31.855565" />
  <ellipse
     style="fill:none;stroke:#000000;stroke-width:104.33;stroke-miterlimit:4;stroke-dasharray:none;stroke-opacity:1"
     id="path1032-1-8-2"
     cx="9349.1855"
     cy="-12369.889"
     rx="286.7001"
     ry="293.0712"
     inkscape:transform-center-x="530.90682"
     inkscape:transform-center-y="-855.84461"
     transform="rotate(60)" />
  <ellipse
     style="fill:none;stroke:#000000;stroke-width:104.33;stroke-miterlimit:4;stroke-dasharray:none;stroke-opacity:1"
     id="path1032-1-8-2-8"
     cx="-7072.2129"
     cy="-16009.095"
     rx="286.7001"
     ry="293.0712"
     inkscape:transform-center-x="-475.73039"
     inkscape:transform-center-y="-887.70055"
     transform="rotate(120)" />
  <ellipse
     style="fill:none;stroke:#000000;stroke-width:104.33;stroke-miterlimit:4;stroke-dasharray:none;stroke-opacity:1"
     id="path1032-1-8-2-8-1"
     cx="-17931.295"
     cy="-2735.6765"
     rx="286.7001"
     ry="293.0712"
     inkscape:transform-center-x="-1006.6366"
     inkscape:transform-center-y="-31.855503"
     transform="scale(-1)" />
  <ellipse
     style="fill:none;stroke:#000000;stroke-width:104.33;stroke-miterlimit:4;stroke-dasharray:none;stroke-opacity:1"
     id="path1032-1-8-2-8-1-8"
     cx="-11865.719"
     cy="13305.273"
     rx="286.7001"
     ry="293.0712"
     inkscape:transform-center-x="-530.90563"
     inkscape:transform-center-y="855.8446"
     transform="rotate(-120)" />
  <ellipse
     style="fill:none;stroke:#000000;stroke-width:104.33;stroke-miterlimit:4;stroke-dasharray:none;stroke-opacity:1"
     id="path1032-1-8-2-8-1-8-3"
     cx="5058.9404"
     cy="16072.806"
     rx="286.7001"
     ry="293.0712"
     inkscape:transform-center-x="475.73054"
     inkscape:transform-center-y="887.70009"
     transform="rotate(-60)" />
  <ellipse
     style="fill:none;stroke:#000000;stroke-width:104.33;stroke-miterlimit:4;stroke-dasharray:none;stroke-opacity:1"
     id="path1032-2"
     cx="4555.6797"
     cy="15201.133"
     rx="286.7001"
     ry="293.0712"
     inkscape:transform-center-x="475.73054"
     inkscape:transform-center-y="887.70009"
     transform="rotate(-60)" />
  <ellipse
     style="fill:none;stroke:#000000;stroke-width:104.33;stroke-miterlimit:4;stroke-dasharray:none;stroke-opacity:1"
     id="path1032-8"
     cx="-7575.4771"
     cy="-16880.775"
     rx="286.7001"
     ry="293.0712"
     inkscape:transform-center-x="-475.73039"
     inkscape:transform-center-y="-887.70055"
     transform="rotate(120)" />
  <ellipse
     style="fill:none;stroke:#000000;stroke-width:104.33;stroke-miterlimit:4;stroke-dasharray:none;stroke-opacity:1"
     id="path1032-8-4"
     cx="-12368.983"
     cy="14176.953"
     rx="286.7001"
     ry="293.0712"
     inkscape:transform-center-x="-530.90563"
     inkscape:transform-center-y="855.8446"
     transform="rotate(-120)" />
  <ellipse
     style="fill:none;stroke:#000000;stroke-width:104.33;stroke-miterlimit:4;stroke-dasharray:none;stroke-opacity:1"
     id="path1032-1-8-0"
     cx="16925.211"
     cy="4549.0752"
     rx="286.7001"
     ry="293.0712"
     inkscape:transform-center-x="1006.6359"
     inkscape:transform-center-y="31.855565" />
  <ellipse
     style="fill:none;stroke:#000000;stroke-width:104.33;stroke-miterlimit:4;stroke-dasharray:none;stroke-opacity:1"
     id="path1032-1-8-9"
     cx="16925.211"
     cy="993.65833"
     rx="286.7001"
     ry="293.0712"
     inkscape:transform-center-x="1006.6359"
     inkscape:transform-center-y="31.855565" />
  <text
     xml:space="preserve"
     style="font-style:normal;font-weight:normal;font-size:2222.21999999999979991px;line-height:1.25;font-family:sans-serif;fill:none;fill-opacity:1;stroke:#000000;stroke-width:104.167;"
     x="3737.363"
     y="13979.335"
     id="text1038"><tspan
       sodipodi:role="line"
       id="tspan1036"
       x="3737.363"
       y="13979.335"
       style="font-style:normal;font-variant:normal;font-weight:normal;font-stretch:normal;font-size:2222.21999999999979991px;font-family:'Arial Black';-inkscape-font-specification:'Arial Black, ';fill:none;stroke:#000000;stroke-width:104.167;">AtmoNode</tspan></text>
</svg>
