%TF.GenerationSoftware,KiCad,Pcbnew,(5.1.7-0-10_14)*%
%TF.CreationDate,2020-11-27T19:57:41+01:00*%
%TF.ProjectId,AtmoNode,41746d6f-4e6f-4646-952e-6b696361645f,rev?*%
%TF.SameCoordinates,Original*%
%TF.FileFunction,Profile,NP*%
%FSLAX46Y46*%
G04 Gerber Fmt 4.6, Leading zero omitted, Abs format (unit mm)*
G04 Created by KiCad (PCBNEW (5.1.7-0-10_14)) date 2020-11-27 19:57:41*
%MOMM*%
%LPD*%
G01*
G04 APERTURE LIST*
%TA.AperFunction,Profile*%
%ADD10C,0.050000*%
%TD*%
G04 APERTURE END LIST*
D10*
X151500000Y-100200000D02*
G75*
G02*
X151500000Y-101200000I0J-500000D01*
G01*
X144700000Y-101200000D02*
G75*
G02*
X144700000Y-100200000I0J500000D01*
G01*
X143500000Y-99100000D02*
G75*
G02*
X142500000Y-99100000I-500000J0D01*
G01*
X142500000Y-93000000D02*
G75*
G02*
X143500000Y-93000000I500000J0D01*
G01*
X151500000Y-100200000D02*
X144700000Y-100200000D01*
X144700000Y-101200000D02*
X151500000Y-101200000D01*
X142500000Y-99100000D02*
X142500000Y-93000000D01*
X143500000Y-93000000D02*
X143500000Y-99100000D01*
X150000000Y-126500000D02*
X110000000Y-126500000D01*
X153000000Y-94500000D02*
X153000000Y-123500000D01*
X150000000Y-91500000D02*
X110000000Y-91500000D01*
X107000000Y-123500000D02*
X107000000Y-94500000D01*
X150000000Y-91500000D02*
G75*
G02*
X153000000Y-94500000I0J-3000000D01*
G01*
X153000000Y-123500000D02*
G75*
G02*
X150000000Y-126500000I-3000000J0D01*
G01*
X110000000Y-126500000D02*
G75*
G02*
X107000000Y-123500000I0J3000000D01*
G01*
X107000000Y-94500000D02*
G75*
G02*
X110000000Y-91500000I3000000J0D01*
G01*
X137100000Y-112100000D02*
G75*
G02*
X137100000Y-114100000I0J-1000000D01*
G01*
X123800000Y-114100000D02*
G75*
G02*
X123800000Y-112100000I0J1000000D01*
G01*
X137100000Y-114100000D02*
X123800000Y-114100000D01*
X123800000Y-112100000D02*
X137100000Y-112100000D01*
M02*
