%TF.GenerationSoftware,KiCad,Pcbnew,(5.1.7-0-10_14)*%
%TF.CreationDate,2020-11-27T19:57:41+01:00*%
%TF.ProjectId,AtmoNode,41746d6f-4e6f-4646-952e-6b696361645f,rev?*%
%TF.SameCoordinates,Original*%
%TF.FileFunction,Legend,Bot*%
%TF.FilePolarity,Positive*%
%FSLAX46Y46*%
G04 Gerber Fmt 4.6, Leading zero omitted, Abs format (unit mm)*
G04 Created by KiCad (PCBNEW (5.1.7-0-10_14)) date 2020-11-27 19:57:41*
%MOMM*%
%LPD*%
G01*
G04 APERTURE LIST*
%ADD10C,0.120000*%
%ADD11C,0.153000*%
%ADD12C,0.100000*%
G04 APERTURE END LIST*
D10*
X119050000Y-102900000D02*
X121050000Y-102900000D01*
X120050000Y-102900000D02*
X119050000Y-102900000D01*
X120050000Y-100850000D02*
X120050000Y-102900000D01*
X119100000Y-100850000D02*
X121050000Y-100850000D01*
X119050000Y-104000000D02*
X121050000Y-104000000D01*
X119050000Y-99800000D02*
X119050000Y-104000000D01*
X121100000Y-99800000D02*
X119050000Y-99800000D01*
X121050000Y-104000000D02*
X121100000Y-99800000D01*
D11*
X136245238Y-92461904D02*
X136245238Y-93033333D01*
X136283333Y-93147619D01*
X136359523Y-93223809D01*
X136473809Y-93261904D01*
X136550000Y-93261904D01*
X135483333Y-93261904D02*
X135864285Y-93261904D01*
X135864285Y-92461904D01*
X134759523Y-93185714D02*
X134797619Y-93223809D01*
X134911904Y-93261904D01*
X134988095Y-93261904D01*
X135102380Y-93223809D01*
X135178571Y-93147619D01*
X135216666Y-93071428D01*
X135254761Y-92919047D01*
X135254761Y-92804761D01*
X135216666Y-92652380D01*
X135178571Y-92576190D01*
X135102380Y-92500000D01*
X134988095Y-92461904D01*
X134911904Y-92461904D01*
X134797619Y-92500000D01*
X134759523Y-92538095D01*
X134188095Y-92461904D02*
X134188095Y-93033333D01*
X134226190Y-93147619D01*
X134302380Y-93223809D01*
X134416666Y-93261904D01*
X134492857Y-93261904D01*
X133426190Y-93261904D02*
X133807142Y-93261904D01*
X133807142Y-92461904D01*
X132702380Y-93185714D02*
X132740476Y-93223809D01*
X132854761Y-93261904D01*
X132930952Y-93261904D01*
X133045238Y-93223809D01*
X133121428Y-93147619D01*
X133159523Y-93071428D01*
X133197619Y-92919047D01*
X133197619Y-92804761D01*
X133159523Y-92652380D01*
X133121428Y-92576190D01*
X133045238Y-92500000D01*
X132930952Y-92461904D01*
X132854761Y-92461904D01*
X132740476Y-92500000D01*
X132702380Y-92538095D01*
X132130952Y-92461904D02*
X132130952Y-93033333D01*
X132169047Y-93147619D01*
X132245238Y-93223809D01*
X132359523Y-93261904D01*
X132435714Y-93261904D01*
X131369047Y-93261904D02*
X131750000Y-93261904D01*
X131750000Y-92461904D01*
X130645238Y-93185714D02*
X130683333Y-93223809D01*
X130797619Y-93261904D01*
X130873809Y-93261904D01*
X130988095Y-93223809D01*
X131064285Y-93147619D01*
X131102380Y-93071428D01*
X131140476Y-92919047D01*
X131140476Y-92804761D01*
X131102380Y-92652380D01*
X131064285Y-92576190D01*
X130988095Y-92500000D01*
X130873809Y-92461904D01*
X130797619Y-92461904D01*
X130683333Y-92500000D01*
X130645238Y-92538095D01*
X130073809Y-92461904D02*
X130073809Y-93033333D01*
X130111904Y-93147619D01*
X130188095Y-93223809D01*
X130302380Y-93261904D01*
X130378571Y-93261904D01*
X129311904Y-93261904D02*
X129692857Y-93261904D01*
X129692857Y-92461904D01*
X128588095Y-93185714D02*
X128626190Y-93223809D01*
X128740476Y-93261904D01*
X128816666Y-93261904D01*
X128930952Y-93223809D01*
X129007142Y-93147619D01*
X129045238Y-93071428D01*
X129083333Y-92919047D01*
X129083333Y-92804761D01*
X129045238Y-92652380D01*
X129007142Y-92576190D01*
X128930952Y-92500000D01*
X128816666Y-92461904D01*
X128740476Y-92461904D01*
X128626190Y-92500000D01*
X128588095Y-92538095D01*
D10*
X118850000Y-99800000D02*
X118850000Y-101100000D01*
X116400000Y-99800000D02*
X118850000Y-99800000D01*
X116400000Y-101100000D02*
X116400000Y-99800000D01*
X116400000Y-104000000D02*
X116400000Y-102750000D01*
X118850000Y-104000000D02*
X116400000Y-104000000D01*
X118850000Y-102750000D02*
X118850000Y-104000000D01*
X117650000Y-100950000D02*
X117650000Y-102850000D01*
X116400000Y-100950000D02*
X118850000Y-100950000D01*
X116400000Y-102750000D02*
X116400000Y-101100000D01*
X118850000Y-102850000D02*
X116450000Y-102850000D01*
X118850000Y-101100000D02*
X118850000Y-102750000D01*
X113150000Y-102350000D02*
X112750000Y-101900000D01*
X113150000Y-102350000D02*
X112550000Y-102100000D01*
X111850000Y-101400000D02*
X113150000Y-102350000D01*
D11*
X125207142Y-103911904D02*
X125207142Y-103111904D01*
X124940476Y-103683333D01*
X124673809Y-103111904D01*
X124673809Y-103911904D01*
X124140476Y-103111904D02*
X123988095Y-103111904D01*
X123911904Y-103150000D01*
X123835714Y-103226190D01*
X123797619Y-103378571D01*
X123797619Y-103645238D01*
X123835714Y-103797619D01*
X123911904Y-103873809D01*
X123988095Y-103911904D01*
X124140476Y-103911904D01*
X124216666Y-103873809D01*
X124292857Y-103797619D01*
X124330952Y-103645238D01*
X124330952Y-103378571D01*
X124292857Y-103226190D01*
X124216666Y-103150000D01*
X124140476Y-103111904D01*
X123492857Y-103873809D02*
X123378571Y-103911904D01*
X123188095Y-103911904D01*
X123111904Y-103873809D01*
X123073809Y-103835714D01*
X123035714Y-103759523D01*
X123035714Y-103683333D01*
X123073809Y-103607142D01*
X123111904Y-103569047D01*
X123188095Y-103530952D01*
X123340476Y-103492857D01*
X123416666Y-103454761D01*
X123454761Y-103416666D01*
X123492857Y-103340476D01*
X123492857Y-103264285D01*
X123454761Y-103188095D01*
X123416666Y-103150000D01*
X123340476Y-103111904D01*
X123150000Y-103111904D01*
X123035714Y-103150000D01*
X122692857Y-103911904D02*
X122692857Y-103111904D01*
X125157142Y-102611904D02*
X125157142Y-101811904D01*
X124890476Y-102383333D01*
X124623809Y-101811904D01*
X124623809Y-102611904D01*
X124242857Y-102611904D02*
X124242857Y-101811904D01*
X123900000Y-102573809D02*
X123785714Y-102611904D01*
X123595238Y-102611904D01*
X123519047Y-102573809D01*
X123480952Y-102535714D01*
X123442857Y-102459523D01*
X123442857Y-102383333D01*
X123480952Y-102307142D01*
X123519047Y-102269047D01*
X123595238Y-102230952D01*
X123747619Y-102192857D01*
X123823809Y-102154761D01*
X123861904Y-102116666D01*
X123900000Y-102040476D01*
X123900000Y-101964285D01*
X123861904Y-101888095D01*
X123823809Y-101850000D01*
X123747619Y-101811904D01*
X123557142Y-101811904D01*
X123442857Y-101850000D01*
X122947619Y-101811904D02*
X122795238Y-101811904D01*
X122719047Y-101850000D01*
X122642857Y-101926190D01*
X122604761Y-102078571D01*
X122604761Y-102345238D01*
X122642857Y-102497619D01*
X122719047Y-102573809D01*
X122795238Y-102611904D01*
X122947619Y-102611904D01*
X123023809Y-102573809D01*
X123100000Y-102497619D01*
X123138095Y-102345238D01*
X123138095Y-102078571D01*
X123100000Y-101926190D01*
X123023809Y-101850000D01*
X122947619Y-101811904D01*
X124728571Y-101173809D02*
X124614285Y-101211904D01*
X124423809Y-101211904D01*
X124347619Y-101173809D01*
X124309523Y-101135714D01*
X124271428Y-101059523D01*
X124271428Y-100983333D01*
X124309523Y-100907142D01*
X124347619Y-100869047D01*
X124423809Y-100830952D01*
X124576190Y-100792857D01*
X124652380Y-100754761D01*
X124690476Y-100716666D01*
X124728571Y-100640476D01*
X124728571Y-100564285D01*
X124690476Y-100488095D01*
X124652380Y-100450000D01*
X124576190Y-100411904D01*
X124385714Y-100411904D01*
X124271428Y-100450000D01*
X123471428Y-101135714D02*
X123509523Y-101173809D01*
X123623809Y-101211904D01*
X123700000Y-101211904D01*
X123814285Y-101173809D01*
X123890476Y-101097619D01*
X123928571Y-101021428D01*
X123966666Y-100869047D01*
X123966666Y-100754761D01*
X123928571Y-100602380D01*
X123890476Y-100526190D01*
X123814285Y-100450000D01*
X123700000Y-100411904D01*
X123623809Y-100411904D01*
X123509523Y-100450000D01*
X123471428Y-100488095D01*
X123128571Y-101211904D02*
X123128571Y-100411904D01*
X122671428Y-101211904D02*
X123014285Y-100754761D01*
X122671428Y-100411904D02*
X123128571Y-100869047D01*
X113221428Y-100733333D02*
X112840476Y-100733333D01*
X113297619Y-100961904D02*
X113030952Y-100161904D01*
X112764285Y-100961904D01*
X112345238Y-100161904D02*
X112269047Y-100161904D01*
X112192857Y-100200000D01*
X112154761Y-100238095D01*
X112116666Y-100314285D01*
X112078571Y-100466666D01*
X112078571Y-100657142D01*
X112116666Y-100809523D01*
X112154761Y-100885714D01*
X112192857Y-100923809D01*
X112269047Y-100961904D01*
X112345238Y-100961904D01*
X112421428Y-100923809D01*
X112459523Y-100885714D01*
X112497619Y-100809523D01*
X112535714Y-100657142D01*
X112535714Y-100466666D01*
X112497619Y-100314285D01*
X112459523Y-100238095D01*
X112421428Y-100200000D01*
X112345238Y-100161904D01*
X120335714Y-123175100D02*
X119535714Y-123175100D01*
X119688095Y-124311904D02*
X119954761Y-123930952D01*
X120145238Y-124311904D02*
X120145238Y-123511904D01*
X119840476Y-123511904D01*
X119764285Y-123550000D01*
X119726190Y-123588095D01*
X119688095Y-123664285D01*
X119688095Y-123778571D01*
X119726190Y-123854761D01*
X119764285Y-123892857D01*
X119840476Y-123930952D01*
X120145238Y-123930952D01*
X119535714Y-123175100D02*
X118773809Y-123175100D01*
X119383333Y-124273809D02*
X119269047Y-124311904D01*
X119078571Y-124311904D01*
X119002380Y-124273809D01*
X118964285Y-124235714D01*
X118926190Y-124159523D01*
X118926190Y-124083333D01*
X118964285Y-124007142D01*
X119002380Y-123969047D01*
X119078571Y-123930952D01*
X119230952Y-123892857D01*
X119307142Y-123854761D01*
X119345238Y-123816666D01*
X119383333Y-123740476D01*
X119383333Y-123664285D01*
X119345238Y-123588095D01*
X119307142Y-123550000D01*
X119230952Y-123511904D01*
X119040476Y-123511904D01*
X118926190Y-123550000D01*
X118773809Y-123175100D02*
X118164285Y-123175100D01*
X118697619Y-123511904D02*
X118240476Y-123511904D01*
X118469047Y-124311904D02*
X118469047Y-123511904D01*
D10*
X108700000Y-104150000D02*
X107250000Y-104150000D01*
X111800000Y-100700000D02*
X108800000Y-100700000D01*
X112200000Y-102550000D02*
X112200000Y-103850000D01*
X108800000Y-100700000D02*
X108800000Y-102250000D01*
X110250000Y-104350000D02*
X109000000Y-104350000D01*
X112200000Y-103850000D02*
X109750000Y-103850000D01*
X110250000Y-106750000D02*
X110250000Y-104350000D01*
X109000000Y-106750000D02*
X110250000Y-106750000D01*
X109850000Y-102550000D02*
X112200000Y-102550000D01*
X109000000Y-104350000D02*
X109000000Y-106750000D01*
X109750000Y-102250000D02*
X108700000Y-102250000D01*
X111800000Y-102250000D02*
X111800000Y-100700000D01*
X108500000Y-102300000D02*
X108500000Y-104150000D01*
X109750000Y-104150000D02*
X109750000Y-102250000D01*
X107250000Y-104150000D02*
X107250000Y-102250000D01*
X109750000Y-102250000D02*
X111800000Y-102250000D01*
X108700000Y-104150000D02*
X109750000Y-104150000D01*
X107250000Y-102250000D02*
X108700000Y-102250000D01*
X114600000Y-107150000D02*
X113650000Y-107150000D01*
X114550000Y-109000000D02*
X114600000Y-107150000D01*
X113650000Y-109000000D02*
X114550000Y-109000000D01*
X113650000Y-107150000D02*
X113650000Y-109000000D01*
X113150000Y-102450000D02*
X113150000Y-104000000D01*
X116150000Y-102450000D02*
X113150000Y-102450000D01*
X116150000Y-104000000D02*
X116150000Y-102450000D01*
X114100000Y-104000000D02*
X116150000Y-104000000D01*
X116000000Y-105450000D02*
X114100000Y-105450000D01*
X116000000Y-104500000D02*
X116000000Y-105450000D01*
X114200000Y-104500000D02*
X116000000Y-104500000D01*
X114100000Y-104000000D02*
X113050000Y-104000000D01*
X114100000Y-105900000D02*
X114100000Y-104000000D01*
X113050000Y-105900000D02*
X114100000Y-105900000D01*
X113050000Y-104000000D02*
X113050000Y-105850000D01*
X112050000Y-104000000D02*
X113050000Y-104000000D01*
X112050000Y-105900000D02*
X112050000Y-104000000D01*
X113050000Y-105900000D02*
X112050000Y-105900000D01*
D11*
X146359523Y-95028571D02*
X145788095Y-95028571D01*
X146130952Y-94685714D02*
X146359523Y-95714285D01*
X145864285Y-95371428D02*
X146435714Y-95371428D01*
X146092857Y-95714285D02*
X145864285Y-94685714D01*
X145597619Y-94761904D02*
X145064285Y-94761904D01*
X145407142Y-95561904D01*
X144835714Y-94761904D02*
X144302380Y-94761904D01*
X144645238Y-95561904D01*
X152309523Y-95028571D02*
X151738095Y-95028571D01*
X152080952Y-94685714D02*
X152309523Y-95714285D01*
X151814285Y-95371428D02*
X152385714Y-95371428D01*
X152042857Y-95714285D02*
X151814285Y-94685714D01*
X151547619Y-94761904D02*
X151014285Y-94761904D01*
X151357142Y-95561904D01*
X150366666Y-94761904D02*
X150519047Y-94761904D01*
X150595238Y-94800000D01*
X150633333Y-94838095D01*
X150709523Y-94952380D01*
X150747619Y-95104761D01*
X150747619Y-95409523D01*
X150709523Y-95485714D01*
X150671428Y-95523809D01*
X150595238Y-95561904D01*
X150442857Y-95561904D01*
X150366666Y-95523809D01*
X150328571Y-95485714D01*
X150290476Y-95409523D01*
X150290476Y-95219047D01*
X150328571Y-95142857D01*
X150366666Y-95104761D01*
X150442857Y-95066666D01*
X150595238Y-95066666D01*
X150671428Y-95104761D01*
X150709523Y-95142857D01*
X150747619Y-95219047D01*
D10*
X137200000Y-121050000D02*
X135850000Y-121050000D01*
X135850000Y-119400000D02*
X137200000Y-119400000D01*
X135850000Y-117850000D02*
X135850000Y-117700000D01*
X135850000Y-122750000D02*
X135850000Y-117850000D01*
X137200000Y-122750000D02*
X135850000Y-122750000D01*
X137200000Y-117700000D02*
X137200000Y-122750000D01*
X135850000Y-117700000D02*
X137200000Y-117700000D01*
D11*
X145202380Y-105911904D02*
X145583333Y-105911904D01*
X145621428Y-106292857D01*
X145583333Y-106254761D01*
X145507142Y-106216666D01*
X145316666Y-106216666D01*
X145240476Y-106254761D01*
X145202380Y-106292857D01*
X145164285Y-106369047D01*
X145164285Y-106559523D01*
X145202380Y-106635714D01*
X145240476Y-106673809D01*
X145316666Y-106711904D01*
X145507142Y-106711904D01*
X145583333Y-106673809D01*
X145621428Y-106635714D01*
X144935714Y-105911904D02*
X144669047Y-106711904D01*
X144402380Y-105911904D01*
X143259523Y-105950000D02*
X143335714Y-105911904D01*
X143450000Y-105911904D01*
X143564285Y-105950000D01*
X143640476Y-106026190D01*
X143678571Y-106102380D01*
X143716666Y-106254761D01*
X143716666Y-106369047D01*
X143678571Y-106521428D01*
X143640476Y-106597619D01*
X143564285Y-106673809D01*
X143450000Y-106711904D01*
X143373809Y-106711904D01*
X143259523Y-106673809D01*
X143221428Y-106635714D01*
X143221428Y-106369047D01*
X143373809Y-106369047D01*
X142878571Y-106711904D02*
X142878571Y-105911904D01*
X142421428Y-106711904D01*
X142421428Y-105911904D01*
X142040476Y-106711904D02*
X142040476Y-105911904D01*
X141850000Y-105911904D01*
X141735714Y-105950000D01*
X141659523Y-106026190D01*
X141621428Y-106102380D01*
X141583333Y-106254761D01*
X141583333Y-106369047D01*
X141621428Y-106521428D01*
X141659523Y-106597619D01*
X141735714Y-106673809D01*
X141850000Y-106711904D01*
X142040476Y-106711904D01*
X140840476Y-105911904D02*
X140345238Y-105911904D01*
X140611904Y-106216666D01*
X140497619Y-106216666D01*
X140421428Y-106254761D01*
X140383333Y-106292857D01*
X140345238Y-106369047D01*
X140345238Y-106559523D01*
X140383333Y-106635714D01*
X140421428Y-106673809D01*
X140497619Y-106711904D01*
X140726190Y-106711904D01*
X140802380Y-106673809D01*
X140840476Y-106635714D01*
X140116666Y-105911904D02*
X139850000Y-106711904D01*
X139583333Y-105911904D01*
X139392857Y-105911904D02*
X138897619Y-105911904D01*
X139164285Y-106216666D01*
X139050000Y-106216666D01*
X138973809Y-106254761D01*
X138935714Y-106292857D01*
X138897619Y-106369047D01*
X138897619Y-106559523D01*
X138935714Y-106635714D01*
X138973809Y-106673809D01*
X139050000Y-106711904D01*
X139278571Y-106711904D01*
X139354761Y-106673809D01*
X139392857Y-106635714D01*
D10*
X130400000Y-103100000D02*
X129100000Y-103100000D01*
X139450000Y-103100000D02*
X139450000Y-100400000D01*
X137850000Y-100400000D02*
X137850000Y-103000000D01*
X130700000Y-100400000D02*
X130700000Y-103100000D01*
X131900000Y-103100000D02*
X139450000Y-103100000D01*
X132500000Y-100400000D02*
X132500000Y-103100000D01*
X129100000Y-100400000D02*
X127800000Y-100400000D01*
X129400000Y-103100000D02*
X129400000Y-100400000D01*
X126000000Y-103100000D02*
X126000000Y-100400000D01*
X131900000Y-100400000D02*
X130400000Y-100400000D01*
X126000000Y-100400000D02*
X131900000Y-100400000D01*
X131900000Y-103100000D02*
X126000000Y-103100000D01*
X132950000Y-101800000D02*
X135250000Y-101800000D01*
X127650000Y-100400000D02*
X127650000Y-103100000D01*
X139450000Y-100400000D02*
X131900000Y-100400000D01*
X135250000Y-100400000D02*
X135250000Y-103000000D01*
X136750000Y-100400000D02*
X136750000Y-103100000D01*
X139550000Y-101100000D02*
X140250000Y-101150000D01*
X139550000Y-101100000D02*
X140150000Y-101500000D01*
X141550000Y-101800000D02*
X139550000Y-101100000D01*
X141000000Y-101800000D02*
X141000000Y-104500000D01*
X142300000Y-101800000D02*
X141000000Y-101800000D01*
X142300000Y-104500000D02*
X142300000Y-101800000D01*
X143600000Y-104500000D02*
X142300000Y-104500000D01*
X143600000Y-101800000D02*
X143600000Y-104500000D01*
X145100000Y-101800000D02*
X143600000Y-101800000D01*
X139700000Y-101800000D02*
X145550000Y-101800000D01*
X139700000Y-104500000D02*
X139700000Y-101800000D01*
X145100000Y-104500000D02*
X139700000Y-104500000D01*
X145100000Y-103100000D02*
X147700000Y-103100000D01*
X147700000Y-101800000D02*
X147700000Y-104400000D01*
X149100000Y-101800000D02*
X149100000Y-104500000D01*
X150500000Y-101800000D02*
X150500000Y-104400000D01*
X151950000Y-104500000D02*
X151950000Y-101800000D01*
X145100000Y-104500000D02*
X151950000Y-104500000D01*
X145100000Y-104400000D02*
X145100000Y-104500000D01*
X145100000Y-101800000D02*
X145100000Y-104400000D01*
X151950000Y-101800000D02*
X145100000Y-101800000D01*
D11*
X135340476Y-94342857D02*
X135073809Y-94342857D01*
X134959523Y-94761904D02*
X135340476Y-94761904D01*
X135340476Y-93961904D01*
X134959523Y-93961904D01*
X134616666Y-94761904D02*
X134616666Y-93961904D01*
X134159523Y-94761904D01*
X134159523Y-93961904D01*
D10*
%TO.C,R12*%
X133587742Y-103022500D02*
X134062258Y-103022500D01*
X133587742Y-101977500D02*
X134062258Y-101977500D01*
%TO.C,C4*%
X137065000Y-115788748D02*
X137065000Y-116311252D01*
X138535000Y-115788748D02*
X138535000Y-116311252D01*
%TO.C,C14*%
X114886252Y-102215000D02*
X114363748Y-102215000D01*
X114886252Y-103685000D02*
X114363748Y-103685000D01*
%TO.C,L1*%
X119140000Y-101772300D02*
X119140000Y-101972700D01*
X119860000Y-101772300D02*
X119860000Y-101972700D01*
D12*
%TO.C,U5*%
X146550000Y-95840000D02*
X146700000Y-95840000D01*
X146550000Y-95850000D02*
X146550000Y-96000000D01*
X149250000Y-95850000D02*
X149250000Y-96000000D01*
X149250000Y-95850000D02*
X149100000Y-95850000D01*
X149100000Y-98550000D02*
X149250000Y-98550000D01*
X149250000Y-98550000D02*
X149250000Y-98400000D01*
X146550000Y-98400000D02*
X146550000Y-98650000D01*
D10*
%TO.C,R11*%
X137830000Y-104646359D02*
X137830000Y-104953641D01*
X137070000Y-104646359D02*
X137070000Y-104953641D01*
%TO.C,R10*%
X136620000Y-106953641D02*
X136620000Y-106646359D01*
X137380000Y-106953641D02*
X137380000Y-106646359D01*
%TO.C,C24*%
X150240000Y-97712164D02*
X150240000Y-97927836D01*
X150960000Y-97712164D02*
X150960000Y-97927836D01*
%TO.C,JP3*%
X146200000Y-94200000D02*
G75*
G03*
X146900000Y-94900000I700000J0D01*
G01*
X146900000Y-92900000D02*
G75*
G03*
X146200000Y-93600000I0J-700000D01*
G01*
X150300000Y-93600000D02*
G75*
G03*
X149600000Y-92900000I-700000J0D01*
G01*
X149600000Y-94900000D02*
G75*
G03*
X150300000Y-94200000I0J700000D01*
G01*
X147050000Y-92700000D02*
X147350000Y-92400000D01*
X146750000Y-92400000D02*
X147350000Y-92400000D01*
X147050000Y-92700000D02*
X146750000Y-92400000D01*
X146200000Y-93600000D02*
X146200000Y-94200000D01*
X149650000Y-92900000D02*
X146850000Y-92900000D01*
X150300000Y-94200000D02*
X150300000Y-93600000D01*
X146850000Y-94900000D02*
X149650000Y-94900000D01*
%TO.C,C20*%
X126290000Y-101584420D02*
X126290000Y-101865580D01*
X127310000Y-101584420D02*
X127310000Y-101865580D01*
%TO.C,L2*%
X119327700Y-104240000D02*
X119127300Y-104240000D01*
X119327700Y-104960000D02*
X119127300Y-104960000D01*
%TO.C,Q2*%
X122420000Y-120440000D02*
X122420000Y-121900000D01*
X125580000Y-120440000D02*
X125580000Y-122600000D01*
X125580000Y-120440000D02*
X124650000Y-120440000D01*
X122420000Y-120440000D02*
X123350000Y-120440000D01*
%TO.C,C15*%
X121960000Y-113272164D02*
X121960000Y-113487836D01*
X121240000Y-113272164D02*
X121240000Y-113487836D01*
%TO.C,R14*%
X132463641Y-96080000D02*
X132156359Y-96080000D01*
X132463641Y-95320000D02*
X132156359Y-95320000D01*
%TO.C,J2*%
X135500000Y-110100000D02*
G75*
G03*
X135500000Y-110100000I-500000J0D01*
G01*
X125500000Y-110100000D02*
G75*
G03*
X125500000Y-110100000I-500000J0D01*
G01*
X124000000Y-106100000D02*
X136000000Y-106100000D01*
X136000000Y-111100000D02*
X136000000Y-106100000D01*
X134210000Y-111100000D02*
X136000000Y-111100000D01*
X134210000Y-113100000D02*
X134210000Y-111100000D01*
X126210000Y-113100000D02*
X134210000Y-113100000D01*
X126210000Y-111100000D02*
X126210000Y-113100000D01*
X124000000Y-111100000D02*
X126210000Y-111100000D01*
X124000000Y-106100000D02*
X124000000Y-111100000D01*
%TO.C,R3*%
X123343641Y-123880000D02*
X123036359Y-123880000D01*
X123343641Y-123120000D02*
X123036359Y-123120000D01*
%TO.C,Q1*%
X125580000Y-118460000D02*
X125580000Y-117000000D01*
X122420000Y-118460000D02*
X122420000Y-116300000D01*
X122420000Y-118460000D02*
X123350000Y-118460000D01*
X125580000Y-118460000D02*
X124650000Y-118460000D01*
%TO.C,U2*%
X130460000Y-124810000D02*
X128510000Y-124810000D01*
X130460000Y-124810000D02*
X132410000Y-124810000D01*
X130460000Y-114690000D02*
X128510000Y-114690000D01*
X130460000Y-114690000D02*
X133910000Y-114690000D01*
%TO.C,R9*%
X122520000Y-109543641D02*
X122520000Y-109236359D01*
X123280000Y-109543641D02*
X123280000Y-109236359D01*
%TO.C,C19*%
X139160000Y-101596920D02*
X139160000Y-101878080D01*
X138140000Y-101596920D02*
X138140000Y-101878080D01*
%TO.C,C17*%
X136560000Y-101559420D02*
X136560000Y-101840580D01*
X135540000Y-101559420D02*
X135540000Y-101840580D01*
%TO.C,R15*%
X130136359Y-95320000D02*
X130443641Y-95320000D01*
X130136359Y-96080000D02*
X130443641Y-96080000D01*
%TO.C,R13*%
X134213641Y-101480000D02*
X133906359Y-101480000D01*
X134213641Y-100720000D02*
X133906359Y-100720000D01*
%TO.C,R8*%
X112063641Y-120780000D02*
X111756359Y-120780000D01*
X112063641Y-120020000D02*
X111756359Y-120020000D01*
%TO.C,R7*%
X150580000Y-114656359D02*
X150580000Y-114963641D01*
X149820000Y-114656359D02*
X149820000Y-114963641D01*
%TO.C,R6*%
X112120000Y-105063641D02*
X112120000Y-104756359D01*
X112880000Y-105063641D02*
X112880000Y-104756359D01*
%TO.C,R5*%
X113220000Y-105043641D02*
X113220000Y-104736359D01*
X113980000Y-105043641D02*
X113980000Y-104736359D01*
%TO.C,R4*%
X123436359Y-114820000D02*
X123743641Y-114820000D01*
X123436359Y-115580000D02*
X123743641Y-115580000D01*
%TO.C,R2*%
X134620000Y-118263641D02*
X134620000Y-117956359D01*
X135380000Y-118263641D02*
X135380000Y-117956359D01*
%TO.C,R1*%
X135380000Y-115946359D02*
X135380000Y-116253641D01*
X134620000Y-115946359D02*
X134620000Y-116253641D01*
%TO.C,C22*%
X130460000Y-101572164D02*
X130460000Y-101787836D01*
X129740000Y-101572164D02*
X129740000Y-101787836D01*
%TO.C,C18*%
X137660000Y-101672164D02*
X137660000Y-101887836D01*
X136940000Y-101672164D02*
X136940000Y-101887836D01*
%TO.C,C16*%
X145760000Y-96562164D02*
X145760000Y-96777836D01*
X145040000Y-96562164D02*
X145040000Y-96777836D01*
%TO.C,C13*%
X111772164Y-117840000D02*
X111987836Y-117840000D01*
X111772164Y-118560000D02*
X111987836Y-118560000D01*
%TO.C,C12*%
X115187836Y-105360000D02*
X114972164Y-105360000D01*
X115187836Y-104640000D02*
X114972164Y-104640000D01*
%TO.C,C11*%
X113507836Y-113160000D02*
X113292164Y-113160000D01*
X113507836Y-112440000D02*
X113292164Y-112440000D01*
%TO.C,C10*%
X113740000Y-108187836D02*
X113740000Y-107972164D01*
X114460000Y-108187836D02*
X114460000Y-107972164D01*
%TO.C,C9*%
X121312164Y-104690000D02*
X121527836Y-104690000D01*
X121312164Y-105410000D02*
X121527836Y-105410000D01*
%TO.C,C8*%
X120012164Y-103140000D02*
X120227836Y-103140000D01*
X120012164Y-103860000D02*
X120227836Y-103860000D01*
%TO.C,C7*%
X120960000Y-101772164D02*
X120960000Y-101987836D01*
X120240000Y-101772164D02*
X120240000Y-101987836D01*
%TO.C,C6*%
X120012164Y-99890000D02*
X120227836Y-99890000D01*
X120012164Y-100610000D02*
X120227836Y-100610000D01*
%TO.C,C5*%
X125827836Y-115560000D02*
X125612164Y-115560000D01*
X125827836Y-114840000D02*
X125612164Y-114840000D01*
%TO.C,C3*%
X135360000Y-119992164D02*
X135360000Y-120207836D01*
X134640000Y-119992164D02*
X134640000Y-120207836D01*
%TO.C,C2*%
X141487836Y-109960000D02*
X141272164Y-109960000D01*
X141487836Y-109240000D02*
X141272164Y-109240000D01*
%TO.C,C1*%
X143787836Y-109960000D02*
X143572164Y-109960000D01*
X143787836Y-109240000D02*
X143572164Y-109240000D01*
%TO.C,Y1*%
X114300000Y-113500000D02*
X114300000Y-117500000D01*
X111000000Y-113500000D02*
X114300000Y-113500000D01*
%TO.C,Q4*%
X129440000Y-99780000D02*
X130900000Y-99780000D01*
X129440000Y-96620000D02*
X131600000Y-96620000D01*
X129440000Y-96620000D02*
X129440000Y-97550000D01*
X129440000Y-99780000D02*
X129440000Y-98850000D01*
%TO.C,Q3*%
X132270000Y-97440000D02*
X132270000Y-98900000D01*
X135430000Y-97440000D02*
X135430000Y-99600000D01*
X135430000Y-97440000D02*
X134500000Y-97440000D01*
X132270000Y-97440000D02*
X133200000Y-97440000D01*
%TO.C,JP2*%
X127500000Y-96700000D02*
X126100000Y-96700000D01*
X125400000Y-97400000D02*
X125400000Y-98000000D01*
X126100000Y-98700000D02*
X127500000Y-98700000D01*
X128200000Y-98000000D02*
X128200000Y-97400000D01*
X128200000Y-97400000D02*
G75*
G03*
X127500000Y-96700000I-700000J0D01*
G01*
X127500000Y-98700000D02*
G75*
G03*
X128200000Y-98000000I0J700000D01*
G01*
X125400000Y-98000000D02*
G75*
G03*
X126100000Y-98700000I700000J0D01*
G01*
X126100000Y-96700000D02*
G75*
G03*
X125400000Y-97400000I0J-700000D01*
G01*
%TO.C,JP1*%
X136750000Y-98700000D02*
X139550000Y-98700000D01*
X140200000Y-98000000D02*
X140200000Y-97400000D01*
X139550000Y-96700000D02*
X136750000Y-96700000D01*
X136100000Y-97400000D02*
X136100000Y-98000000D01*
X136950000Y-96500000D02*
X136650000Y-96200000D01*
X136650000Y-96200000D02*
X137250000Y-96200000D01*
X136950000Y-96500000D02*
X137250000Y-96200000D01*
X136100000Y-98000000D02*
G75*
G03*
X136800000Y-98700000I700000J0D01*
G01*
X136800000Y-96700000D02*
G75*
G03*
X136100000Y-97400000I0J-700000D01*
G01*
X140200000Y-97400000D02*
G75*
G03*
X139500000Y-96700000I-700000J0D01*
G01*
X139500000Y-98700000D02*
G75*
G03*
X140200000Y-98000000I0J700000D01*
G01*
%TO.C,U4*%
X115475000Y-117100000D02*
X115475000Y-114375000D01*
X115475000Y-114375000D02*
X115735000Y-114375000D01*
X115475000Y-117100000D02*
X115475000Y-119825000D01*
X115475000Y-119825000D02*
X115735000Y-119825000D01*
X120925000Y-117100000D02*
X120925000Y-114375000D01*
X120925000Y-114375000D02*
X120665000Y-114375000D01*
X120925000Y-117100000D02*
X120925000Y-119825000D01*
X120925000Y-119825000D02*
X120665000Y-119825000D01*
X120665000Y-119825000D02*
X120665000Y-121500000D01*
%TO.C,U3*%
X115390000Y-110835000D02*
X115390000Y-111310000D01*
X115390000Y-111310000D02*
X115865000Y-111310000D01*
X120610000Y-106565000D02*
X120610000Y-106090000D01*
X120610000Y-106090000D02*
X120135000Y-106090000D01*
X120610000Y-110835000D02*
X120610000Y-111310000D01*
X120610000Y-111310000D02*
X120135000Y-111310000D01*
X115390000Y-106565000D02*
X115390000Y-106090000D01*
%TO.C,U1*%
X145910000Y-116560000D02*
X144650000Y-116560000D01*
X139090000Y-116560000D02*
X140350000Y-116560000D01*
X145910000Y-112800000D02*
X145910000Y-116560000D01*
X139090000Y-110550000D02*
X139090000Y-116560000D01*
%TO.C,J1*%
X144360000Y-121910000D02*
X144360000Y-121460000D01*
X143910000Y-121460000D02*
X144360000Y-121460000D01*
X146360000Y-122140000D02*
X145940000Y-122140000D01*
X146360000Y-124120000D02*
X146360000Y-122140000D01*
X146360000Y-126490000D02*
X146360000Y-126090000D01*
X138840000Y-126090000D02*
X138840000Y-126490000D01*
X138840000Y-122140000D02*
X139260000Y-122140000D01*
X138840000Y-124120000D02*
X138840000Y-122140000D01*
%TO.C,D1*%
X147000000Y-114300000D02*
X149000000Y-114300000D01*
X149000000Y-114300000D02*
X149000000Y-118200000D01*
X147000000Y-114300000D02*
X147000000Y-118200000D01*
%TO.C,C23*%
X131090000Y-101559420D02*
X131090000Y-101840580D01*
X132110000Y-101559420D02*
X132110000Y-101840580D01*
%TO.C,C21*%
X127940000Y-101584420D02*
X127940000Y-101865580D01*
X128960000Y-101584420D02*
X128960000Y-101865580D01*
%TO.C,R12*%
D11*
X146964285Y-104211904D02*
X147230952Y-103830952D01*
X147421428Y-104211904D02*
X147421428Y-103411904D01*
X147116666Y-103411904D01*
X147040476Y-103450000D01*
X147002380Y-103488095D01*
X146964285Y-103564285D01*
X146964285Y-103678571D01*
X147002380Y-103754761D01*
X147040476Y-103792857D01*
X147116666Y-103830952D01*
X147421428Y-103830952D01*
X146202380Y-104211904D02*
X146659523Y-104211904D01*
X146430952Y-104211904D02*
X146430952Y-103411904D01*
X146507142Y-103526190D01*
X146583333Y-103602380D01*
X146659523Y-103640476D01*
X145897619Y-103488095D02*
X145859523Y-103450000D01*
X145783333Y-103411904D01*
X145592857Y-103411904D01*
X145516666Y-103450000D01*
X145478571Y-103488095D01*
X145440476Y-103564285D01*
X145440476Y-103640476D01*
X145478571Y-103754761D01*
X145935714Y-104211904D01*
X145440476Y-104211904D01*
%TO.C,C4*%
X138733333Y-118785714D02*
X138771428Y-118823809D01*
X138885714Y-118861904D01*
X138961904Y-118861904D01*
X139076190Y-118823809D01*
X139152380Y-118747619D01*
X139190476Y-118671428D01*
X139228571Y-118519047D01*
X139228571Y-118404761D01*
X139190476Y-118252380D01*
X139152380Y-118176190D01*
X139076190Y-118100000D01*
X138961904Y-118061904D01*
X138885714Y-118061904D01*
X138771428Y-118100000D01*
X138733333Y-118138095D01*
X138047619Y-118328571D02*
X138047619Y-118861904D01*
X138238095Y-118023809D02*
X138428571Y-118595238D01*
X137933333Y-118595238D01*
%TO.C,C14*%
X110814285Y-101835714D02*
X110852380Y-101873809D01*
X110966666Y-101911904D01*
X111042857Y-101911904D01*
X111157142Y-101873809D01*
X111233333Y-101797619D01*
X111271428Y-101721428D01*
X111309523Y-101569047D01*
X111309523Y-101454761D01*
X111271428Y-101302380D01*
X111233333Y-101226190D01*
X111157142Y-101150000D01*
X111042857Y-101111904D01*
X110966666Y-101111904D01*
X110852380Y-101150000D01*
X110814285Y-101188095D01*
X110052380Y-101911904D02*
X110509523Y-101911904D01*
X110280952Y-101911904D02*
X110280952Y-101111904D01*
X110357142Y-101226190D01*
X110433333Y-101302380D01*
X110509523Y-101340476D01*
X109366666Y-101378571D02*
X109366666Y-101911904D01*
X109557142Y-101073809D02*
X109747619Y-101645238D01*
X109252380Y-101645238D01*
%TO.C,L1*%
X117411904Y-101816666D02*
X117411904Y-101435714D01*
X116611904Y-101435714D01*
X117411904Y-102502380D02*
X117411904Y-102045238D01*
X117411904Y-102273809D02*
X116611904Y-102273809D01*
X116726190Y-102197619D01*
X116802380Y-102121428D01*
X116840476Y-102045238D01*
%TO.C,U5*%
X148524523Y-99226904D02*
X148524523Y-99874523D01*
X148486428Y-99950714D01*
X148448333Y-99988809D01*
X148372142Y-100026904D01*
X148219761Y-100026904D01*
X148143571Y-99988809D01*
X148105476Y-99950714D01*
X148067380Y-99874523D01*
X148067380Y-99226904D01*
X147305476Y-99226904D02*
X147686428Y-99226904D01*
X147724523Y-99607857D01*
X147686428Y-99569761D01*
X147610238Y-99531666D01*
X147419761Y-99531666D01*
X147343571Y-99569761D01*
X147305476Y-99607857D01*
X147267380Y-99684047D01*
X147267380Y-99874523D01*
X147305476Y-99950714D01*
X147343571Y-99988809D01*
X147419761Y-100026904D01*
X147610238Y-100026904D01*
X147686428Y-99988809D01*
X147724523Y-99950714D01*
%TO.C,R11*%
X138911904Y-104085714D02*
X138530952Y-103819047D01*
X138911904Y-103628571D02*
X138111904Y-103628571D01*
X138111904Y-103933333D01*
X138150000Y-104009523D01*
X138188095Y-104047619D01*
X138264285Y-104085714D01*
X138378571Y-104085714D01*
X138454761Y-104047619D01*
X138492857Y-104009523D01*
X138530952Y-103933333D01*
X138530952Y-103628571D01*
X138911904Y-104847619D02*
X138911904Y-104390476D01*
X138911904Y-104619047D02*
X138111904Y-104619047D01*
X138226190Y-104542857D01*
X138302380Y-104466666D01*
X138340476Y-104390476D01*
X138911904Y-105609523D02*
X138911904Y-105152380D01*
X138911904Y-105380952D02*
X138111904Y-105380952D01*
X138226190Y-105304761D01*
X138302380Y-105228571D01*
X138340476Y-105152380D01*
%TO.C,R10*%
X138461904Y-106585714D02*
X138080952Y-106319047D01*
X138461904Y-106128571D02*
X137661904Y-106128571D01*
X137661904Y-106433333D01*
X137700000Y-106509523D01*
X137738095Y-106547619D01*
X137814285Y-106585714D01*
X137928571Y-106585714D01*
X138004761Y-106547619D01*
X138042857Y-106509523D01*
X138080952Y-106433333D01*
X138080952Y-106128571D01*
X138461904Y-107347619D02*
X138461904Y-106890476D01*
X138461904Y-107119047D02*
X137661904Y-107119047D01*
X137776190Y-107042857D01*
X137852380Y-106966666D01*
X137890476Y-106890476D01*
X137661904Y-107842857D02*
X137661904Y-107919047D01*
X137700000Y-107995238D01*
X137738095Y-108033333D01*
X137814285Y-108071428D01*
X137966666Y-108109523D01*
X138157142Y-108109523D01*
X138309523Y-108071428D01*
X138385714Y-108033333D01*
X138423809Y-107995238D01*
X138461904Y-107919047D01*
X138461904Y-107842857D01*
X138423809Y-107766666D01*
X138385714Y-107728571D01*
X138309523Y-107690476D01*
X138157142Y-107652380D01*
X137966666Y-107652380D01*
X137814285Y-107690476D01*
X137738095Y-107728571D01*
X137700000Y-107766666D01*
X137661904Y-107842857D01*
%TO.C,C24*%
X151064285Y-99835714D02*
X151102380Y-99873809D01*
X151216666Y-99911904D01*
X151292857Y-99911904D01*
X151407142Y-99873809D01*
X151483333Y-99797619D01*
X151521428Y-99721428D01*
X151559523Y-99569047D01*
X151559523Y-99454761D01*
X151521428Y-99302380D01*
X151483333Y-99226190D01*
X151407142Y-99150000D01*
X151292857Y-99111904D01*
X151216666Y-99111904D01*
X151102380Y-99150000D01*
X151064285Y-99188095D01*
X150759523Y-99188095D02*
X150721428Y-99150000D01*
X150645238Y-99111904D01*
X150454761Y-99111904D01*
X150378571Y-99150000D01*
X150340476Y-99188095D01*
X150302380Y-99264285D01*
X150302380Y-99340476D01*
X150340476Y-99454761D01*
X150797619Y-99911904D01*
X150302380Y-99911904D01*
X149616666Y-99378571D02*
X149616666Y-99911904D01*
X149807142Y-99073809D02*
X149997619Y-99645238D01*
X149502380Y-99645238D01*
%TO.C,JP3*%
X149316666Y-91911904D02*
X149316666Y-92483333D01*
X149354761Y-92597619D01*
X149430952Y-92673809D01*
X149545238Y-92711904D01*
X149621428Y-92711904D01*
X148935714Y-92711904D02*
X148935714Y-91911904D01*
X148630952Y-91911904D01*
X148554761Y-91950000D01*
X148516666Y-91988095D01*
X148478571Y-92064285D01*
X148478571Y-92178571D01*
X148516666Y-92254761D01*
X148554761Y-92292857D01*
X148630952Y-92330952D01*
X148935714Y-92330952D01*
X148211904Y-91911904D02*
X147716666Y-91911904D01*
X147983333Y-92216666D01*
X147869047Y-92216666D01*
X147792857Y-92254761D01*
X147754761Y-92292857D01*
X147716666Y-92369047D01*
X147716666Y-92559523D01*
X147754761Y-92635714D01*
X147792857Y-92673809D01*
X147869047Y-92711904D01*
X148097619Y-92711904D01*
X148173809Y-92673809D01*
X148211904Y-92635714D01*
%TO.C,C20*%
X140685714Y-102585714D02*
X140723809Y-102547619D01*
X140761904Y-102433333D01*
X140761904Y-102357142D01*
X140723809Y-102242857D01*
X140647619Y-102166666D01*
X140571428Y-102128571D01*
X140419047Y-102090476D01*
X140304761Y-102090476D01*
X140152380Y-102128571D01*
X140076190Y-102166666D01*
X140000000Y-102242857D01*
X139961904Y-102357142D01*
X139961904Y-102433333D01*
X140000000Y-102547619D01*
X140038095Y-102585714D01*
X140038095Y-102890476D02*
X140000000Y-102928571D01*
X139961904Y-103004761D01*
X139961904Y-103195238D01*
X140000000Y-103271428D01*
X140038095Y-103309523D01*
X140114285Y-103347619D01*
X140190476Y-103347619D01*
X140304761Y-103309523D01*
X140761904Y-102852380D01*
X140761904Y-103347619D01*
X139961904Y-103842857D02*
X139961904Y-103919047D01*
X140000000Y-103995238D01*
X140038095Y-104033333D01*
X140114285Y-104071428D01*
X140266666Y-104109523D01*
X140457142Y-104109523D01*
X140609523Y-104071428D01*
X140685714Y-104033333D01*
X140723809Y-103995238D01*
X140761904Y-103919047D01*
X140761904Y-103842857D01*
X140723809Y-103766666D01*
X140685714Y-103728571D01*
X140609523Y-103690476D01*
X140457142Y-103652380D01*
X140266666Y-103652380D01*
X140114285Y-103690476D01*
X140038095Y-103728571D01*
X140000000Y-103766666D01*
X139961904Y-103842857D01*
%TO.C,L2*%
X117533333Y-104961904D02*
X117914285Y-104961904D01*
X117914285Y-104161904D01*
X117304761Y-104238095D02*
X117266666Y-104200000D01*
X117190476Y-104161904D01*
X117000000Y-104161904D01*
X116923809Y-104200000D01*
X116885714Y-104238095D01*
X116847619Y-104314285D01*
X116847619Y-104390476D01*
X116885714Y-104504761D01*
X117342857Y-104961904D01*
X116847619Y-104961904D01*
%TO.C,Q2*%
X125176190Y-123988095D02*
X125252380Y-123950000D01*
X125328571Y-123873809D01*
X125442857Y-123759523D01*
X125519047Y-123721428D01*
X125595238Y-123721428D01*
X125557142Y-123911904D02*
X125633333Y-123873809D01*
X125709523Y-123797619D01*
X125747619Y-123645238D01*
X125747619Y-123378571D01*
X125709523Y-123226190D01*
X125633333Y-123150000D01*
X125557142Y-123111904D01*
X125404761Y-123111904D01*
X125328571Y-123150000D01*
X125252380Y-123226190D01*
X125214285Y-123378571D01*
X125214285Y-123645238D01*
X125252380Y-123797619D01*
X125328571Y-123873809D01*
X125404761Y-123911904D01*
X125557142Y-123911904D01*
X124909523Y-123188095D02*
X124871428Y-123150000D01*
X124795238Y-123111904D01*
X124604761Y-123111904D01*
X124528571Y-123150000D01*
X124490476Y-123188095D01*
X124452380Y-123264285D01*
X124452380Y-123340476D01*
X124490476Y-123454761D01*
X124947619Y-123911904D01*
X124452380Y-123911904D01*
%TO.C,C15*%
X122514285Y-112335714D02*
X122552380Y-112373809D01*
X122666666Y-112411904D01*
X122742857Y-112411904D01*
X122857142Y-112373809D01*
X122933333Y-112297619D01*
X122971428Y-112221428D01*
X123009523Y-112069047D01*
X123009523Y-111954761D01*
X122971428Y-111802380D01*
X122933333Y-111726190D01*
X122857142Y-111650000D01*
X122742857Y-111611904D01*
X122666666Y-111611904D01*
X122552380Y-111650000D01*
X122514285Y-111688095D01*
X121752380Y-112411904D02*
X122209523Y-112411904D01*
X121980952Y-112411904D02*
X121980952Y-111611904D01*
X122057142Y-111726190D01*
X122133333Y-111802380D01*
X122209523Y-111840476D01*
X121028571Y-111611904D02*
X121409523Y-111611904D01*
X121447619Y-111992857D01*
X121409523Y-111954761D01*
X121333333Y-111916666D01*
X121142857Y-111916666D01*
X121066666Y-111954761D01*
X121028571Y-111992857D01*
X120990476Y-112069047D01*
X120990476Y-112259523D01*
X121028571Y-112335714D01*
X121066666Y-112373809D01*
X121142857Y-112411904D01*
X121333333Y-112411904D01*
X121409523Y-112373809D01*
X121447619Y-112335714D01*
%TO.C,R14*%
X133064285Y-94761904D02*
X133330952Y-94380952D01*
X133521428Y-94761904D02*
X133521428Y-93961904D01*
X133216666Y-93961904D01*
X133140476Y-94000000D01*
X133102380Y-94038095D01*
X133064285Y-94114285D01*
X133064285Y-94228571D01*
X133102380Y-94304761D01*
X133140476Y-94342857D01*
X133216666Y-94380952D01*
X133521428Y-94380952D01*
X132302380Y-94761904D02*
X132759523Y-94761904D01*
X132530952Y-94761904D02*
X132530952Y-93961904D01*
X132607142Y-94076190D01*
X132683333Y-94152380D01*
X132759523Y-94190476D01*
X131616666Y-94228571D02*
X131616666Y-94761904D01*
X131807142Y-93923809D02*
X131997619Y-94495238D01*
X131502380Y-94495238D01*
%TO.C,R3*%
X123283333Y-125011904D02*
X123550000Y-124630952D01*
X123740476Y-125011904D02*
X123740476Y-124211904D01*
X123435714Y-124211904D01*
X123359523Y-124250000D01*
X123321428Y-124288095D01*
X123283333Y-124364285D01*
X123283333Y-124478571D01*
X123321428Y-124554761D01*
X123359523Y-124592857D01*
X123435714Y-124630952D01*
X123740476Y-124630952D01*
X123016666Y-124211904D02*
X122521428Y-124211904D01*
X122788095Y-124516666D01*
X122673809Y-124516666D01*
X122597619Y-124554761D01*
X122559523Y-124592857D01*
X122521428Y-124669047D01*
X122521428Y-124859523D01*
X122559523Y-124935714D01*
X122597619Y-124973809D01*
X122673809Y-125011904D01*
X122902380Y-125011904D01*
X122978571Y-124973809D01*
X123016666Y-124935714D01*
%TO.C,Q1*%
X125226190Y-119538095D02*
X125302380Y-119500000D01*
X125378571Y-119423809D01*
X125492857Y-119309523D01*
X125569047Y-119271428D01*
X125645238Y-119271428D01*
X125607142Y-119461904D02*
X125683333Y-119423809D01*
X125759523Y-119347619D01*
X125797619Y-119195238D01*
X125797619Y-118928571D01*
X125759523Y-118776190D01*
X125683333Y-118700000D01*
X125607142Y-118661904D01*
X125454761Y-118661904D01*
X125378571Y-118700000D01*
X125302380Y-118776190D01*
X125264285Y-118928571D01*
X125264285Y-119195238D01*
X125302380Y-119347619D01*
X125378571Y-119423809D01*
X125454761Y-119461904D01*
X125607142Y-119461904D01*
X124502380Y-119461904D02*
X124959523Y-119461904D01*
X124730952Y-119461904D02*
X124730952Y-118661904D01*
X124807142Y-118776190D01*
X124883333Y-118852380D01*
X124959523Y-118890476D01*
%TO.C,U2*%
X130909523Y-125261904D02*
X130909523Y-125909523D01*
X130871428Y-125985714D01*
X130833333Y-126023809D01*
X130757142Y-126061904D01*
X130604761Y-126061904D01*
X130528571Y-126023809D01*
X130490476Y-125985714D01*
X130452380Y-125909523D01*
X130452380Y-125261904D01*
X130109523Y-125338095D02*
X130071428Y-125300000D01*
X129995238Y-125261904D01*
X129804761Y-125261904D01*
X129728571Y-125300000D01*
X129690476Y-125338095D01*
X129652380Y-125414285D01*
X129652380Y-125490476D01*
X129690476Y-125604761D01*
X130147619Y-126061904D01*
X129652380Y-126061904D01*
%TO.C,R9*%
X122211904Y-109256666D02*
X121830952Y-108990000D01*
X122211904Y-108799523D02*
X121411904Y-108799523D01*
X121411904Y-109104285D01*
X121450000Y-109180476D01*
X121488095Y-109218571D01*
X121564285Y-109256666D01*
X121678571Y-109256666D01*
X121754761Y-109218571D01*
X121792857Y-109180476D01*
X121830952Y-109104285D01*
X121830952Y-108799523D01*
X122211904Y-109637619D02*
X122211904Y-109790000D01*
X122173809Y-109866190D01*
X122135714Y-109904285D01*
X122021428Y-109980476D01*
X121869047Y-110018571D01*
X121564285Y-110018571D01*
X121488095Y-109980476D01*
X121450000Y-109942380D01*
X121411904Y-109866190D01*
X121411904Y-109713809D01*
X121450000Y-109637619D01*
X121488095Y-109599523D01*
X121564285Y-109561428D01*
X121754761Y-109561428D01*
X121830952Y-109599523D01*
X121869047Y-109637619D01*
X121907142Y-109713809D01*
X121907142Y-109866190D01*
X121869047Y-109942380D01*
X121830952Y-109980476D01*
X121754761Y-110018571D01*
%TO.C,C19*%
X151535714Y-102635714D02*
X151573809Y-102597619D01*
X151611904Y-102483333D01*
X151611904Y-102407142D01*
X151573809Y-102292857D01*
X151497619Y-102216666D01*
X151421428Y-102178571D01*
X151269047Y-102140476D01*
X151154761Y-102140476D01*
X151002380Y-102178571D01*
X150926190Y-102216666D01*
X150850000Y-102292857D01*
X150811904Y-102407142D01*
X150811904Y-102483333D01*
X150850000Y-102597619D01*
X150888095Y-102635714D01*
X151611904Y-103397619D02*
X151611904Y-102940476D01*
X151611904Y-103169047D02*
X150811904Y-103169047D01*
X150926190Y-103092857D01*
X151002380Y-103016666D01*
X151040476Y-102940476D01*
X151611904Y-103778571D02*
X151611904Y-103930952D01*
X151573809Y-104007142D01*
X151535714Y-104045238D01*
X151421428Y-104121428D01*
X151269047Y-104159523D01*
X150964285Y-104159523D01*
X150888095Y-104121428D01*
X150850000Y-104083333D01*
X150811904Y-104007142D01*
X150811904Y-103854761D01*
X150850000Y-103778571D01*
X150888095Y-103740476D01*
X150964285Y-103702380D01*
X151154761Y-103702380D01*
X151230952Y-103740476D01*
X151269047Y-103778571D01*
X151307142Y-103854761D01*
X151307142Y-104007142D01*
X151269047Y-104083333D01*
X151230952Y-104121428D01*
X151154761Y-104159523D01*
%TO.C,C17*%
X148735714Y-102635714D02*
X148773809Y-102597619D01*
X148811904Y-102483333D01*
X148811904Y-102407142D01*
X148773809Y-102292857D01*
X148697619Y-102216666D01*
X148621428Y-102178571D01*
X148469047Y-102140476D01*
X148354761Y-102140476D01*
X148202380Y-102178571D01*
X148126190Y-102216666D01*
X148050000Y-102292857D01*
X148011904Y-102407142D01*
X148011904Y-102483333D01*
X148050000Y-102597619D01*
X148088095Y-102635714D01*
X148811904Y-103397619D02*
X148811904Y-102940476D01*
X148811904Y-103169047D02*
X148011904Y-103169047D01*
X148126190Y-103092857D01*
X148202380Y-103016666D01*
X148240476Y-102940476D01*
X148011904Y-103664285D02*
X148011904Y-104197619D01*
X148811904Y-103854761D01*
%TO.C,R15*%
X130664285Y-94761904D02*
X130930952Y-94380952D01*
X131121428Y-94761904D02*
X131121428Y-93961904D01*
X130816666Y-93961904D01*
X130740476Y-94000000D01*
X130702380Y-94038095D01*
X130664285Y-94114285D01*
X130664285Y-94228571D01*
X130702380Y-94304761D01*
X130740476Y-94342857D01*
X130816666Y-94380952D01*
X131121428Y-94380952D01*
X129902380Y-94761904D02*
X130359523Y-94761904D01*
X130130952Y-94761904D02*
X130130952Y-93961904D01*
X130207142Y-94076190D01*
X130283333Y-94152380D01*
X130359523Y-94190476D01*
X129178571Y-93961904D02*
X129559523Y-93961904D01*
X129597619Y-94342857D01*
X129559523Y-94304761D01*
X129483333Y-94266666D01*
X129292857Y-94266666D01*
X129216666Y-94304761D01*
X129178571Y-94342857D01*
X129140476Y-94419047D01*
X129140476Y-94609523D01*
X129178571Y-94685714D01*
X129216666Y-94723809D01*
X129292857Y-94761904D01*
X129483333Y-94761904D01*
X129559523Y-94723809D01*
X129597619Y-94685714D01*
%TO.C,R13*%
X146914285Y-102861904D02*
X147180952Y-102480952D01*
X147371428Y-102861904D02*
X147371428Y-102061904D01*
X147066666Y-102061904D01*
X146990476Y-102100000D01*
X146952380Y-102138095D01*
X146914285Y-102214285D01*
X146914285Y-102328571D01*
X146952380Y-102404761D01*
X146990476Y-102442857D01*
X147066666Y-102480952D01*
X147371428Y-102480952D01*
X146152380Y-102861904D02*
X146609523Y-102861904D01*
X146380952Y-102861904D02*
X146380952Y-102061904D01*
X146457142Y-102176190D01*
X146533333Y-102252380D01*
X146609523Y-102290476D01*
X145885714Y-102061904D02*
X145390476Y-102061904D01*
X145657142Y-102366666D01*
X145542857Y-102366666D01*
X145466666Y-102404761D01*
X145428571Y-102442857D01*
X145390476Y-102519047D01*
X145390476Y-102709523D01*
X145428571Y-102785714D01*
X145466666Y-102823809D01*
X145542857Y-102861904D01*
X145771428Y-102861904D01*
X145847619Y-102823809D01*
X145885714Y-102785714D01*
%TO.C,R8*%
X110233333Y-120811904D02*
X110500000Y-120430952D01*
X110690476Y-120811904D02*
X110690476Y-120011904D01*
X110385714Y-120011904D01*
X110309523Y-120050000D01*
X110271428Y-120088095D01*
X110233333Y-120164285D01*
X110233333Y-120278571D01*
X110271428Y-120354761D01*
X110309523Y-120392857D01*
X110385714Y-120430952D01*
X110690476Y-120430952D01*
X109776190Y-120354761D02*
X109852380Y-120316666D01*
X109890476Y-120278571D01*
X109928571Y-120202380D01*
X109928571Y-120164285D01*
X109890476Y-120088095D01*
X109852380Y-120050000D01*
X109776190Y-120011904D01*
X109623809Y-120011904D01*
X109547619Y-120050000D01*
X109509523Y-120088095D01*
X109471428Y-120164285D01*
X109471428Y-120202380D01*
X109509523Y-120278571D01*
X109547619Y-120316666D01*
X109623809Y-120354761D01*
X109776190Y-120354761D01*
X109852380Y-120392857D01*
X109890476Y-120430952D01*
X109928571Y-120507142D01*
X109928571Y-120659523D01*
X109890476Y-120735714D01*
X109852380Y-120773809D01*
X109776190Y-120811904D01*
X109623809Y-120811904D01*
X109547619Y-120773809D01*
X109509523Y-120735714D01*
X109471428Y-120659523D01*
X109471428Y-120507142D01*
X109509523Y-120430952D01*
X109547619Y-120392857D01*
X109623809Y-120354761D01*
%TO.C,R7*%
X150283333Y-117261904D02*
X150550000Y-116880952D01*
X150740476Y-117261904D02*
X150740476Y-116461904D01*
X150435714Y-116461904D01*
X150359523Y-116500000D01*
X150321428Y-116538095D01*
X150283333Y-116614285D01*
X150283333Y-116728571D01*
X150321428Y-116804761D01*
X150359523Y-116842857D01*
X150435714Y-116880952D01*
X150740476Y-116880952D01*
X150016666Y-116461904D02*
X149483333Y-116461904D01*
X149826190Y-117261904D01*
%TO.C,R6*%
X108261904Y-103016666D02*
X107880952Y-102750000D01*
X108261904Y-102559523D02*
X107461904Y-102559523D01*
X107461904Y-102864285D01*
X107500000Y-102940476D01*
X107538095Y-102978571D01*
X107614285Y-103016666D01*
X107728571Y-103016666D01*
X107804761Y-102978571D01*
X107842857Y-102940476D01*
X107880952Y-102864285D01*
X107880952Y-102559523D01*
X107461904Y-103702380D02*
X107461904Y-103550000D01*
X107500000Y-103473809D01*
X107538095Y-103435714D01*
X107652380Y-103359523D01*
X107804761Y-103321428D01*
X108109523Y-103321428D01*
X108185714Y-103359523D01*
X108223809Y-103397619D01*
X108261904Y-103473809D01*
X108261904Y-103626190D01*
X108223809Y-103702380D01*
X108185714Y-103740476D01*
X108109523Y-103778571D01*
X107919047Y-103778571D01*
X107842857Y-103740476D01*
X107804761Y-103702380D01*
X107766666Y-103626190D01*
X107766666Y-103473809D01*
X107804761Y-103397619D01*
X107842857Y-103359523D01*
X107919047Y-103321428D01*
%TO.C,R5*%
X109511904Y-103016666D02*
X109130952Y-102750000D01*
X109511904Y-102559523D02*
X108711904Y-102559523D01*
X108711904Y-102864285D01*
X108750000Y-102940476D01*
X108788095Y-102978571D01*
X108864285Y-103016666D01*
X108978571Y-103016666D01*
X109054761Y-102978571D01*
X109092857Y-102940476D01*
X109130952Y-102864285D01*
X109130952Y-102559523D01*
X108711904Y-103740476D02*
X108711904Y-103359523D01*
X109092857Y-103321428D01*
X109054761Y-103359523D01*
X109016666Y-103435714D01*
X109016666Y-103626190D01*
X109054761Y-103702380D01*
X109092857Y-103740476D01*
X109169047Y-103778571D01*
X109359523Y-103778571D01*
X109435714Y-103740476D01*
X109473809Y-103702380D01*
X109511904Y-103626190D01*
X109511904Y-103435714D01*
X109473809Y-103359523D01*
X109435714Y-103321428D01*
%TO.C,R4*%
X122661904Y-115216666D02*
X122280952Y-114950000D01*
X122661904Y-114759523D02*
X121861904Y-114759523D01*
X121861904Y-115064285D01*
X121900000Y-115140476D01*
X121938095Y-115178571D01*
X122014285Y-115216666D01*
X122128571Y-115216666D01*
X122204761Y-115178571D01*
X122242857Y-115140476D01*
X122280952Y-115064285D01*
X122280952Y-114759523D01*
X122128571Y-115902380D02*
X122661904Y-115902380D01*
X121823809Y-115711904D02*
X122395238Y-115521428D01*
X122395238Y-116016666D01*
%TO.C,R2*%
X136911904Y-120066666D02*
X136530952Y-119800000D01*
X136911904Y-119609523D02*
X136111904Y-119609523D01*
X136111904Y-119914285D01*
X136150000Y-119990476D01*
X136188095Y-120028571D01*
X136264285Y-120066666D01*
X136378571Y-120066666D01*
X136454761Y-120028571D01*
X136492857Y-119990476D01*
X136530952Y-119914285D01*
X136530952Y-119609523D01*
X136188095Y-120371428D02*
X136150000Y-120409523D01*
X136111904Y-120485714D01*
X136111904Y-120676190D01*
X136150000Y-120752380D01*
X136188095Y-120790476D01*
X136264285Y-120828571D01*
X136340476Y-120828571D01*
X136454761Y-120790476D01*
X136911904Y-120333333D01*
X136911904Y-120828571D01*
%TO.C,R1*%
X136911904Y-118416666D02*
X136530952Y-118150000D01*
X136911904Y-117959523D02*
X136111904Y-117959523D01*
X136111904Y-118264285D01*
X136150000Y-118340476D01*
X136188095Y-118378571D01*
X136264285Y-118416666D01*
X136378571Y-118416666D01*
X136454761Y-118378571D01*
X136492857Y-118340476D01*
X136530952Y-118264285D01*
X136530952Y-117959523D01*
X136911904Y-119178571D02*
X136911904Y-118721428D01*
X136911904Y-118950000D02*
X136111904Y-118950000D01*
X136226190Y-118873809D01*
X136302380Y-118797619D01*
X136340476Y-118721428D01*
%TO.C,C22*%
X143285714Y-102585714D02*
X143323809Y-102547619D01*
X143361904Y-102433333D01*
X143361904Y-102357142D01*
X143323809Y-102242857D01*
X143247619Y-102166666D01*
X143171428Y-102128571D01*
X143019047Y-102090476D01*
X142904761Y-102090476D01*
X142752380Y-102128571D01*
X142676190Y-102166666D01*
X142600000Y-102242857D01*
X142561904Y-102357142D01*
X142561904Y-102433333D01*
X142600000Y-102547619D01*
X142638095Y-102585714D01*
X142638095Y-102890476D02*
X142600000Y-102928571D01*
X142561904Y-103004761D01*
X142561904Y-103195238D01*
X142600000Y-103271428D01*
X142638095Y-103309523D01*
X142714285Y-103347619D01*
X142790476Y-103347619D01*
X142904761Y-103309523D01*
X143361904Y-102852380D01*
X143361904Y-103347619D01*
X142638095Y-103652380D02*
X142600000Y-103690476D01*
X142561904Y-103766666D01*
X142561904Y-103957142D01*
X142600000Y-104033333D01*
X142638095Y-104071428D01*
X142714285Y-104109523D01*
X142790476Y-104109523D01*
X142904761Y-104071428D01*
X143361904Y-103614285D01*
X143361904Y-104109523D01*
%TO.C,C18*%
X150035714Y-102635714D02*
X150073809Y-102597619D01*
X150111904Y-102483333D01*
X150111904Y-102407142D01*
X150073809Y-102292857D01*
X149997619Y-102216666D01*
X149921428Y-102178571D01*
X149769047Y-102140476D01*
X149654761Y-102140476D01*
X149502380Y-102178571D01*
X149426190Y-102216666D01*
X149350000Y-102292857D01*
X149311904Y-102407142D01*
X149311904Y-102483333D01*
X149350000Y-102597619D01*
X149388095Y-102635714D01*
X150111904Y-103397619D02*
X150111904Y-102940476D01*
X150111904Y-103169047D02*
X149311904Y-103169047D01*
X149426190Y-103092857D01*
X149502380Y-103016666D01*
X149540476Y-102940476D01*
X149654761Y-103854761D02*
X149616666Y-103778571D01*
X149578571Y-103740476D01*
X149502380Y-103702380D01*
X149464285Y-103702380D01*
X149388095Y-103740476D01*
X149350000Y-103778571D01*
X149311904Y-103854761D01*
X149311904Y-104007142D01*
X149350000Y-104083333D01*
X149388095Y-104121428D01*
X149464285Y-104159523D01*
X149502380Y-104159523D01*
X149578571Y-104121428D01*
X149616666Y-104083333D01*
X149654761Y-104007142D01*
X149654761Y-103854761D01*
X149692857Y-103778571D01*
X149730952Y-103740476D01*
X149807142Y-103702380D01*
X149959523Y-103702380D01*
X150035714Y-103740476D01*
X150073809Y-103778571D01*
X150111904Y-103854761D01*
X150111904Y-104007142D01*
X150073809Y-104083333D01*
X150035714Y-104121428D01*
X149959523Y-104159523D01*
X149807142Y-104159523D01*
X149730952Y-104121428D01*
X149692857Y-104083333D01*
X149654761Y-104007142D01*
%TO.C,C16*%
X145364285Y-98585714D02*
X145402380Y-98623809D01*
X145516666Y-98661904D01*
X145592857Y-98661904D01*
X145707142Y-98623809D01*
X145783333Y-98547619D01*
X145821428Y-98471428D01*
X145859523Y-98319047D01*
X145859523Y-98204761D01*
X145821428Y-98052380D01*
X145783333Y-97976190D01*
X145707142Y-97900000D01*
X145592857Y-97861904D01*
X145516666Y-97861904D01*
X145402380Y-97900000D01*
X145364285Y-97938095D01*
X144602380Y-98661904D02*
X145059523Y-98661904D01*
X144830952Y-98661904D02*
X144830952Y-97861904D01*
X144907142Y-97976190D01*
X144983333Y-98052380D01*
X145059523Y-98090476D01*
X143916666Y-97861904D02*
X144069047Y-97861904D01*
X144145238Y-97900000D01*
X144183333Y-97938095D01*
X144259523Y-98052380D01*
X144297619Y-98204761D01*
X144297619Y-98509523D01*
X144259523Y-98585714D01*
X144221428Y-98623809D01*
X144145238Y-98661904D01*
X143992857Y-98661904D01*
X143916666Y-98623809D01*
X143878571Y-98585714D01*
X143840476Y-98509523D01*
X143840476Y-98319047D01*
X143878571Y-98242857D01*
X143916666Y-98204761D01*
X143992857Y-98166666D01*
X144145238Y-98166666D01*
X144221428Y-98204761D01*
X144259523Y-98242857D01*
X144297619Y-98319047D01*
%TO.C,C13*%
X110264285Y-118485714D02*
X110302380Y-118523809D01*
X110416666Y-118561904D01*
X110492857Y-118561904D01*
X110607142Y-118523809D01*
X110683333Y-118447619D01*
X110721428Y-118371428D01*
X110759523Y-118219047D01*
X110759523Y-118104761D01*
X110721428Y-117952380D01*
X110683333Y-117876190D01*
X110607142Y-117800000D01*
X110492857Y-117761904D01*
X110416666Y-117761904D01*
X110302380Y-117800000D01*
X110264285Y-117838095D01*
X109502380Y-118561904D02*
X109959523Y-118561904D01*
X109730952Y-118561904D02*
X109730952Y-117761904D01*
X109807142Y-117876190D01*
X109883333Y-117952380D01*
X109959523Y-117990476D01*
X109235714Y-117761904D02*
X108740476Y-117761904D01*
X109007142Y-118066666D01*
X108892857Y-118066666D01*
X108816666Y-118104761D01*
X108778571Y-118142857D01*
X108740476Y-118219047D01*
X108740476Y-118409523D01*
X108778571Y-118485714D01*
X108816666Y-118523809D01*
X108892857Y-118561904D01*
X109121428Y-118561904D01*
X109197619Y-118523809D01*
X109235714Y-118485714D01*
%TO.C,C12*%
X111514285Y-103535714D02*
X111552380Y-103573809D01*
X111666666Y-103611904D01*
X111742857Y-103611904D01*
X111857142Y-103573809D01*
X111933333Y-103497619D01*
X111971428Y-103421428D01*
X112009523Y-103269047D01*
X112009523Y-103154761D01*
X111971428Y-103002380D01*
X111933333Y-102926190D01*
X111857142Y-102850000D01*
X111742857Y-102811904D01*
X111666666Y-102811904D01*
X111552380Y-102850000D01*
X111514285Y-102888095D01*
X110752380Y-103611904D02*
X111209523Y-103611904D01*
X110980952Y-103611904D02*
X110980952Y-102811904D01*
X111057142Y-102926190D01*
X111133333Y-103002380D01*
X111209523Y-103040476D01*
X110447619Y-102888095D02*
X110409523Y-102850000D01*
X110333333Y-102811904D01*
X110142857Y-102811904D01*
X110066666Y-102850000D01*
X110028571Y-102888095D01*
X109990476Y-102964285D01*
X109990476Y-103040476D01*
X110028571Y-103154761D01*
X110485714Y-103611904D01*
X109990476Y-103611904D01*
%TO.C,C11*%
X111814285Y-113085714D02*
X111852380Y-113123809D01*
X111966666Y-113161904D01*
X112042857Y-113161904D01*
X112157142Y-113123809D01*
X112233333Y-113047619D01*
X112271428Y-112971428D01*
X112309523Y-112819047D01*
X112309523Y-112704761D01*
X112271428Y-112552380D01*
X112233333Y-112476190D01*
X112157142Y-112400000D01*
X112042857Y-112361904D01*
X111966666Y-112361904D01*
X111852380Y-112400000D01*
X111814285Y-112438095D01*
X111052380Y-113161904D02*
X111509523Y-113161904D01*
X111280952Y-113161904D02*
X111280952Y-112361904D01*
X111357142Y-112476190D01*
X111433333Y-112552380D01*
X111509523Y-112590476D01*
X110290476Y-113161904D02*
X110747619Y-113161904D01*
X110519047Y-113161904D02*
X110519047Y-112361904D01*
X110595238Y-112476190D01*
X110671428Y-112552380D01*
X110747619Y-112590476D01*
%TO.C,C10*%
X109935714Y-105035714D02*
X109973809Y-104997619D01*
X110011904Y-104883333D01*
X110011904Y-104807142D01*
X109973809Y-104692857D01*
X109897619Y-104616666D01*
X109821428Y-104578571D01*
X109669047Y-104540476D01*
X109554761Y-104540476D01*
X109402380Y-104578571D01*
X109326190Y-104616666D01*
X109250000Y-104692857D01*
X109211904Y-104807142D01*
X109211904Y-104883333D01*
X109250000Y-104997619D01*
X109288095Y-105035714D01*
X110011904Y-105797619D02*
X110011904Y-105340476D01*
X110011904Y-105569047D02*
X109211904Y-105569047D01*
X109326190Y-105492857D01*
X109402380Y-105416666D01*
X109440476Y-105340476D01*
X109211904Y-106292857D02*
X109211904Y-106369047D01*
X109250000Y-106445238D01*
X109288095Y-106483333D01*
X109364285Y-106521428D01*
X109516666Y-106559523D01*
X109707142Y-106559523D01*
X109859523Y-106521428D01*
X109935714Y-106483333D01*
X109973809Y-106445238D01*
X110011904Y-106369047D01*
X110011904Y-106292857D01*
X109973809Y-106216666D01*
X109935714Y-106178571D01*
X109859523Y-106140476D01*
X109707142Y-106102380D01*
X109516666Y-106102380D01*
X109364285Y-106140476D01*
X109288095Y-106178571D01*
X109250000Y-106216666D01*
X109211904Y-106292857D01*
%TO.C,C9*%
X123333333Y-105335714D02*
X123371428Y-105373809D01*
X123485714Y-105411904D01*
X123561904Y-105411904D01*
X123676190Y-105373809D01*
X123752380Y-105297619D01*
X123790476Y-105221428D01*
X123828571Y-105069047D01*
X123828571Y-104954761D01*
X123790476Y-104802380D01*
X123752380Y-104726190D01*
X123676190Y-104650000D01*
X123561904Y-104611904D01*
X123485714Y-104611904D01*
X123371428Y-104650000D01*
X123333333Y-104688095D01*
X122952380Y-105411904D02*
X122800000Y-105411904D01*
X122723809Y-105373809D01*
X122685714Y-105335714D01*
X122609523Y-105221428D01*
X122571428Y-105069047D01*
X122571428Y-104764285D01*
X122609523Y-104688095D01*
X122647619Y-104650000D01*
X122723809Y-104611904D01*
X122876190Y-104611904D01*
X122952380Y-104650000D01*
X122990476Y-104688095D01*
X123028571Y-104764285D01*
X123028571Y-104954761D01*
X122990476Y-105030952D01*
X122952380Y-105069047D01*
X122876190Y-105107142D01*
X122723809Y-105107142D01*
X122647619Y-105069047D01*
X122609523Y-105030952D01*
X122571428Y-104954761D01*
%TO.C,C8*%
X117783333Y-103735714D02*
X117821428Y-103773809D01*
X117935714Y-103811904D01*
X118011904Y-103811904D01*
X118126190Y-103773809D01*
X118202380Y-103697619D01*
X118240476Y-103621428D01*
X118278571Y-103469047D01*
X118278571Y-103354761D01*
X118240476Y-103202380D01*
X118202380Y-103126190D01*
X118126190Y-103050000D01*
X118011904Y-103011904D01*
X117935714Y-103011904D01*
X117821428Y-103050000D01*
X117783333Y-103088095D01*
X117326190Y-103354761D02*
X117402380Y-103316666D01*
X117440476Y-103278571D01*
X117478571Y-103202380D01*
X117478571Y-103164285D01*
X117440476Y-103088095D01*
X117402380Y-103050000D01*
X117326190Y-103011904D01*
X117173809Y-103011904D01*
X117097619Y-103050000D01*
X117059523Y-103088095D01*
X117021428Y-103164285D01*
X117021428Y-103202380D01*
X117059523Y-103278571D01*
X117097619Y-103316666D01*
X117173809Y-103354761D01*
X117326190Y-103354761D01*
X117402380Y-103392857D01*
X117440476Y-103430952D01*
X117478571Y-103507142D01*
X117478571Y-103659523D01*
X117440476Y-103735714D01*
X117402380Y-103773809D01*
X117326190Y-103811904D01*
X117173809Y-103811904D01*
X117097619Y-103773809D01*
X117059523Y-103735714D01*
X117021428Y-103659523D01*
X117021428Y-103507142D01*
X117059523Y-103430952D01*
X117097619Y-103392857D01*
X117173809Y-103354761D01*
%TO.C,C7*%
X118585714Y-101766666D02*
X118623809Y-101728571D01*
X118661904Y-101614285D01*
X118661904Y-101538095D01*
X118623809Y-101423809D01*
X118547619Y-101347619D01*
X118471428Y-101309523D01*
X118319047Y-101271428D01*
X118204761Y-101271428D01*
X118052380Y-101309523D01*
X117976190Y-101347619D01*
X117900000Y-101423809D01*
X117861904Y-101538095D01*
X117861904Y-101614285D01*
X117900000Y-101728571D01*
X117938095Y-101766666D01*
X117861904Y-102033333D02*
X117861904Y-102566666D01*
X118661904Y-102223809D01*
%TO.C,C6*%
X117783333Y-100685714D02*
X117821428Y-100723809D01*
X117935714Y-100761904D01*
X118011904Y-100761904D01*
X118126190Y-100723809D01*
X118202380Y-100647619D01*
X118240476Y-100571428D01*
X118278571Y-100419047D01*
X118278571Y-100304761D01*
X118240476Y-100152380D01*
X118202380Y-100076190D01*
X118126190Y-100000000D01*
X118011904Y-99961904D01*
X117935714Y-99961904D01*
X117821428Y-100000000D01*
X117783333Y-100038095D01*
X117097619Y-99961904D02*
X117250000Y-99961904D01*
X117326190Y-100000000D01*
X117364285Y-100038095D01*
X117440476Y-100152380D01*
X117478571Y-100304761D01*
X117478571Y-100609523D01*
X117440476Y-100685714D01*
X117402380Y-100723809D01*
X117326190Y-100761904D01*
X117173809Y-100761904D01*
X117097619Y-100723809D01*
X117059523Y-100685714D01*
X117021428Y-100609523D01*
X117021428Y-100419047D01*
X117059523Y-100342857D01*
X117097619Y-100304761D01*
X117173809Y-100266666D01*
X117326190Y-100266666D01*
X117402380Y-100304761D01*
X117440476Y-100342857D01*
X117478571Y-100419047D01*
%TO.C,C5*%
X126585714Y-116316666D02*
X126623809Y-116278571D01*
X126661904Y-116164285D01*
X126661904Y-116088095D01*
X126623809Y-115973809D01*
X126547619Y-115897619D01*
X126471428Y-115859523D01*
X126319047Y-115821428D01*
X126204761Y-115821428D01*
X126052380Y-115859523D01*
X125976190Y-115897619D01*
X125900000Y-115973809D01*
X125861904Y-116088095D01*
X125861904Y-116164285D01*
X125900000Y-116278571D01*
X125938095Y-116316666D01*
X125861904Y-117040476D02*
X125861904Y-116659523D01*
X126242857Y-116621428D01*
X126204761Y-116659523D01*
X126166666Y-116735714D01*
X126166666Y-116926190D01*
X126204761Y-117002380D01*
X126242857Y-117040476D01*
X126319047Y-117078571D01*
X126509523Y-117078571D01*
X126585714Y-117040476D01*
X126623809Y-117002380D01*
X126661904Y-116926190D01*
X126661904Y-116735714D01*
X126623809Y-116659523D01*
X126585714Y-116621428D01*
%TO.C,C3*%
X136835714Y-121766666D02*
X136873809Y-121728571D01*
X136911904Y-121614285D01*
X136911904Y-121538095D01*
X136873809Y-121423809D01*
X136797619Y-121347619D01*
X136721428Y-121309523D01*
X136569047Y-121271428D01*
X136454761Y-121271428D01*
X136302380Y-121309523D01*
X136226190Y-121347619D01*
X136150000Y-121423809D01*
X136111904Y-121538095D01*
X136111904Y-121614285D01*
X136150000Y-121728571D01*
X136188095Y-121766666D01*
X136111904Y-122033333D02*
X136111904Y-122528571D01*
X136416666Y-122261904D01*
X136416666Y-122376190D01*
X136454761Y-122452380D01*
X136492857Y-122490476D01*
X136569047Y-122528571D01*
X136759523Y-122528571D01*
X136835714Y-122490476D01*
X136873809Y-122452380D01*
X136911904Y-122376190D01*
X136911904Y-122147619D01*
X136873809Y-122071428D01*
X136835714Y-122033333D01*
%TO.C,C2*%
X139783333Y-109635714D02*
X139821428Y-109673809D01*
X139935714Y-109711904D01*
X140011904Y-109711904D01*
X140126190Y-109673809D01*
X140202380Y-109597619D01*
X140240476Y-109521428D01*
X140278571Y-109369047D01*
X140278571Y-109254761D01*
X140240476Y-109102380D01*
X140202380Y-109026190D01*
X140126190Y-108950000D01*
X140011904Y-108911904D01*
X139935714Y-108911904D01*
X139821428Y-108950000D01*
X139783333Y-108988095D01*
X139478571Y-108988095D02*
X139440476Y-108950000D01*
X139364285Y-108911904D01*
X139173809Y-108911904D01*
X139097619Y-108950000D01*
X139059523Y-108988095D01*
X139021428Y-109064285D01*
X139021428Y-109140476D01*
X139059523Y-109254761D01*
X139516666Y-109711904D01*
X139021428Y-109711904D01*
%TO.C,C1*%
X145483333Y-109635714D02*
X145521428Y-109673809D01*
X145635714Y-109711904D01*
X145711904Y-109711904D01*
X145826190Y-109673809D01*
X145902380Y-109597619D01*
X145940476Y-109521428D01*
X145978571Y-109369047D01*
X145978571Y-109254761D01*
X145940476Y-109102380D01*
X145902380Y-109026190D01*
X145826190Y-108950000D01*
X145711904Y-108911904D01*
X145635714Y-108911904D01*
X145521428Y-108950000D01*
X145483333Y-108988095D01*
X144721428Y-109711904D02*
X145178571Y-109711904D01*
X144950000Y-109711904D02*
X144950000Y-108911904D01*
X145026190Y-109026190D01*
X145102380Y-109102380D01*
X145178571Y-109140476D01*
%TO.C,Y1*%
X110580952Y-115480952D02*
X110580952Y-115861904D01*
X110847619Y-115061904D02*
X110580952Y-115480952D01*
X110314285Y-115061904D01*
X109628571Y-115861904D02*
X110085714Y-115861904D01*
X109857142Y-115861904D02*
X109857142Y-115061904D01*
X109933333Y-115176190D01*
X110009523Y-115252380D01*
X110085714Y-115290476D01*
%TO.C,Q4*%
X128426190Y-99838095D02*
X128502380Y-99800000D01*
X128578571Y-99723809D01*
X128692857Y-99609523D01*
X128769047Y-99571428D01*
X128845238Y-99571428D01*
X128807142Y-99761904D02*
X128883333Y-99723809D01*
X128959523Y-99647619D01*
X128997619Y-99495238D01*
X128997619Y-99228571D01*
X128959523Y-99076190D01*
X128883333Y-99000000D01*
X128807142Y-98961904D01*
X128654761Y-98961904D01*
X128578571Y-99000000D01*
X128502380Y-99076190D01*
X128464285Y-99228571D01*
X128464285Y-99495238D01*
X128502380Y-99647619D01*
X128578571Y-99723809D01*
X128654761Y-99761904D01*
X128807142Y-99761904D01*
X127778571Y-99228571D02*
X127778571Y-99761904D01*
X127969047Y-98923809D02*
X128159523Y-99495238D01*
X127664285Y-99495238D01*
%TO.C,Q3*%
X136476190Y-99938095D02*
X136552380Y-99900000D01*
X136628571Y-99823809D01*
X136742857Y-99709523D01*
X136819047Y-99671428D01*
X136895238Y-99671428D01*
X136857142Y-99861904D02*
X136933333Y-99823809D01*
X137009523Y-99747619D01*
X137047619Y-99595238D01*
X137047619Y-99328571D01*
X137009523Y-99176190D01*
X136933333Y-99100000D01*
X136857142Y-99061904D01*
X136704761Y-99061904D01*
X136628571Y-99100000D01*
X136552380Y-99176190D01*
X136514285Y-99328571D01*
X136514285Y-99595238D01*
X136552380Y-99747619D01*
X136628571Y-99823809D01*
X136704761Y-99861904D01*
X136857142Y-99861904D01*
X136247619Y-99061904D02*
X135752380Y-99061904D01*
X136019047Y-99366666D01*
X135904761Y-99366666D01*
X135828571Y-99404761D01*
X135790476Y-99442857D01*
X135752380Y-99519047D01*
X135752380Y-99709523D01*
X135790476Y-99785714D01*
X135828571Y-99823809D01*
X135904761Y-99861904D01*
X136133333Y-99861904D01*
X136209523Y-99823809D01*
X136247619Y-99785714D01*
%TO.C,JP2*%
X127516666Y-95561904D02*
X127516666Y-96133333D01*
X127554761Y-96247619D01*
X127630952Y-96323809D01*
X127745238Y-96361904D01*
X127821428Y-96361904D01*
X127135714Y-96361904D02*
X127135714Y-95561904D01*
X126830952Y-95561904D01*
X126754761Y-95600000D01*
X126716666Y-95638095D01*
X126678571Y-95714285D01*
X126678571Y-95828571D01*
X126716666Y-95904761D01*
X126754761Y-95942857D01*
X126830952Y-95980952D01*
X127135714Y-95980952D01*
X126373809Y-95638095D02*
X126335714Y-95600000D01*
X126259523Y-95561904D01*
X126069047Y-95561904D01*
X125992857Y-95600000D01*
X125954761Y-95638095D01*
X125916666Y-95714285D01*
X125916666Y-95790476D01*
X125954761Y-95904761D01*
X126411904Y-96361904D01*
X125916666Y-96361904D01*
%TO.C,JP1*%
X138966666Y-95561904D02*
X138966666Y-96133333D01*
X139004761Y-96247619D01*
X139080952Y-96323809D01*
X139195238Y-96361904D01*
X139271428Y-96361904D01*
X138585714Y-96361904D02*
X138585714Y-95561904D01*
X138280952Y-95561904D01*
X138204761Y-95600000D01*
X138166666Y-95638095D01*
X138128571Y-95714285D01*
X138128571Y-95828571D01*
X138166666Y-95904761D01*
X138204761Y-95942857D01*
X138280952Y-95980952D01*
X138585714Y-95980952D01*
X137366666Y-96361904D02*
X137823809Y-96361904D01*
X137595238Y-96361904D02*
X137595238Y-95561904D01*
X137671428Y-95676190D01*
X137747619Y-95752380D01*
X137823809Y-95790476D01*
%TO.C,U4*%
X115209523Y-120561904D02*
X115209523Y-121209523D01*
X115171428Y-121285714D01*
X115133333Y-121323809D01*
X115057142Y-121361904D01*
X114904761Y-121361904D01*
X114828571Y-121323809D01*
X114790476Y-121285714D01*
X114752380Y-121209523D01*
X114752380Y-120561904D01*
X114028571Y-120828571D02*
X114028571Y-121361904D01*
X114219047Y-120523809D02*
X114409523Y-121095238D01*
X113914285Y-121095238D01*
%TO.C,U3*%
X115759523Y-111711904D02*
X115759523Y-112359523D01*
X115721428Y-112435714D01*
X115683333Y-112473809D01*
X115607142Y-112511904D01*
X115454761Y-112511904D01*
X115378571Y-112473809D01*
X115340476Y-112435714D01*
X115302380Y-112359523D01*
X115302380Y-111711904D01*
X114997619Y-111711904D02*
X114502380Y-111711904D01*
X114769047Y-112016666D01*
X114654761Y-112016666D01*
X114578571Y-112054761D01*
X114540476Y-112092857D01*
X114502380Y-112169047D01*
X114502380Y-112359523D01*
X114540476Y-112435714D01*
X114578571Y-112473809D01*
X114654761Y-112511904D01*
X114883333Y-112511904D01*
X114959523Y-112473809D01*
X114997619Y-112435714D01*
%TO.C,U1*%
X143709523Y-119161904D02*
X143709523Y-119809523D01*
X143671428Y-119885714D01*
X143633333Y-119923809D01*
X143557142Y-119961904D01*
X143404761Y-119961904D01*
X143328571Y-119923809D01*
X143290476Y-119885714D01*
X143252380Y-119809523D01*
X143252380Y-119161904D01*
X142452380Y-119961904D02*
X142909523Y-119961904D01*
X142680952Y-119961904D02*
X142680952Y-119161904D01*
X142757142Y-119276190D01*
X142833333Y-119352380D01*
X142909523Y-119390476D01*
%TO.C,D1*%
X148590476Y-119861904D02*
X148590476Y-119061904D01*
X148400000Y-119061904D01*
X148285714Y-119100000D01*
X148209523Y-119176190D01*
X148171428Y-119252380D01*
X148133333Y-119404761D01*
X148133333Y-119519047D01*
X148171428Y-119671428D01*
X148209523Y-119747619D01*
X148285714Y-119823809D01*
X148400000Y-119861904D01*
X148590476Y-119861904D01*
X147371428Y-119861904D02*
X147828571Y-119861904D01*
X147600000Y-119861904D02*
X147600000Y-119061904D01*
X147676190Y-119176190D01*
X147752380Y-119252380D01*
X147828571Y-119290476D01*
%TO.C,C23*%
X144685714Y-102585714D02*
X144723809Y-102547619D01*
X144761904Y-102433333D01*
X144761904Y-102357142D01*
X144723809Y-102242857D01*
X144647619Y-102166666D01*
X144571428Y-102128571D01*
X144419047Y-102090476D01*
X144304761Y-102090476D01*
X144152380Y-102128571D01*
X144076190Y-102166666D01*
X144000000Y-102242857D01*
X143961904Y-102357142D01*
X143961904Y-102433333D01*
X144000000Y-102547619D01*
X144038095Y-102585714D01*
X144038095Y-102890476D02*
X144000000Y-102928571D01*
X143961904Y-103004761D01*
X143961904Y-103195238D01*
X144000000Y-103271428D01*
X144038095Y-103309523D01*
X144114285Y-103347619D01*
X144190476Y-103347619D01*
X144304761Y-103309523D01*
X144761904Y-102852380D01*
X144761904Y-103347619D01*
X143961904Y-103614285D02*
X143961904Y-104109523D01*
X144266666Y-103842857D01*
X144266666Y-103957142D01*
X144304761Y-104033333D01*
X144342857Y-104071428D01*
X144419047Y-104109523D01*
X144609523Y-104109523D01*
X144685714Y-104071428D01*
X144723809Y-104033333D01*
X144761904Y-103957142D01*
X144761904Y-103728571D01*
X144723809Y-103652380D01*
X144685714Y-103614285D01*
%TO.C,C21*%
X141985714Y-102610714D02*
X142023809Y-102572619D01*
X142061904Y-102458333D01*
X142061904Y-102382142D01*
X142023809Y-102267857D01*
X141947619Y-102191666D01*
X141871428Y-102153571D01*
X141719047Y-102115476D01*
X141604761Y-102115476D01*
X141452380Y-102153571D01*
X141376190Y-102191666D01*
X141300000Y-102267857D01*
X141261904Y-102382142D01*
X141261904Y-102458333D01*
X141300000Y-102572619D01*
X141338095Y-102610714D01*
X141338095Y-102915476D02*
X141300000Y-102953571D01*
X141261904Y-103029761D01*
X141261904Y-103220238D01*
X141300000Y-103296428D01*
X141338095Y-103334523D01*
X141414285Y-103372619D01*
X141490476Y-103372619D01*
X141604761Y-103334523D01*
X142061904Y-102877380D01*
X142061904Y-103372619D01*
X142061904Y-104134523D02*
X142061904Y-103677380D01*
X142061904Y-103905952D02*
X141261904Y-103905952D01*
X141376190Y-103829761D01*
X141452380Y-103753571D01*
X141490476Y-103677380D01*
%TD*%
M02*
