%TF.GenerationSoftware,KiCad,Pcbnew,(5.1.7-0-10_14)*%
%TF.CreationDate,2020-11-27T19:57:41+01:00*%
%TF.ProjectId,AtmoNode,41746d6f-4e6f-4646-952e-6b696361645f,rev?*%
%TF.SameCoordinates,Original*%
%TF.FileFunction,Legend,Top*%
%TF.FilePolarity,Positive*%
%FSLAX46Y46*%
G04 Gerber Fmt 4.6, Leading zero omitted, Abs format (unit mm)*
G04 Created by KiCad (PCBNEW (5.1.7-0-10_14)) date 2020-11-27 19:57:41*
%MOMM*%
%LPD*%
G01*
G04 APERTURE LIST*
%ADD10C,0.120000*%
%ADD11C,0.150000*%
G04 APERTURE END LIST*
D10*
%TO.C,J2*%
X135590000Y-101030000D02*
X124410000Y-101030000D01*
X135590000Y-106620000D02*
X135590000Y-101030000D01*
X124410000Y-106620000D02*
X135590000Y-106620000D01*
X124410000Y-101030000D02*
X124410000Y-106620000D01*
X122750000Y-99500000D02*
X122750000Y-99500000D01*
X134210000Y-113100000D02*
X126210000Y-113100000D01*
X134210000Y-111100000D02*
X134210000Y-113100000D01*
X134220000Y-111100000D02*
X134210000Y-111100000D01*
X137250000Y-111100000D02*
X134220000Y-111100000D01*
X137250000Y-99500000D02*
X137250000Y-111100000D01*
X122750000Y-99500000D02*
X137250000Y-99500000D01*
X122750000Y-111100000D02*
X122750000Y-99500000D01*
X126210000Y-111100000D02*
X122750000Y-111100000D01*
X126210000Y-113100000D02*
X126210000Y-111100000D01*
%TO.C,SW2*%
X149850000Y-115240000D02*
X149850000Y-121360000D01*
X149850000Y-121360000D02*
X146150000Y-121360000D01*
X146150000Y-121360000D02*
X146150000Y-115240000D01*
X146150000Y-115240000D02*
X149850000Y-115240000D01*
%TO.C,SW3*%
X110150000Y-121360000D02*
X110150000Y-115240000D01*
X110150000Y-115240000D02*
X113850000Y-115240000D01*
X113850000Y-115240000D02*
X113850000Y-121360000D01*
X113850000Y-121360000D02*
X110150000Y-121360000D01*
%TO.C,J2*%
D11*
X131642857Y-104647619D02*
X131833333Y-104647619D01*
X131928571Y-104600000D01*
X131976190Y-104552380D01*
X132071428Y-104409523D01*
X132119047Y-104219047D01*
X132119047Y-103838095D01*
X132071428Y-103742857D01*
X132023809Y-103695238D01*
X131928571Y-103647619D01*
X131738095Y-103647619D01*
X131642857Y-103695238D01*
X131595238Y-103742857D01*
X131547619Y-103838095D01*
X131547619Y-104076190D01*
X131595238Y-104171428D01*
X131642857Y-104219047D01*
X131738095Y-104266666D01*
X131928571Y-104266666D01*
X132023809Y-104219047D01*
X132071428Y-104171428D01*
X132119047Y-104076190D01*
X130690476Y-104314285D02*
X130690476Y-103647619D01*
X130928571Y-104695238D02*
X131166666Y-103980952D01*
X130547619Y-103980952D01*
X130261904Y-103647619D02*
X129738095Y-104314285D01*
X130261904Y-104314285D02*
X129738095Y-103647619D01*
X129452380Y-104647619D02*
X128833333Y-104647619D01*
X129166666Y-104266666D01*
X129023809Y-104266666D01*
X128928571Y-104219047D01*
X128880952Y-104171428D01*
X128833333Y-104076190D01*
X128833333Y-103838095D01*
X128880952Y-103742857D01*
X128928571Y-103695238D01*
X129023809Y-103647619D01*
X129309523Y-103647619D01*
X129404761Y-103695238D01*
X129452380Y-103742857D01*
X128452380Y-104552380D02*
X128404761Y-104600000D01*
X128309523Y-104647619D01*
X128071428Y-104647619D01*
X127976190Y-104600000D01*
X127928571Y-104552380D01*
X127880952Y-104457142D01*
X127880952Y-104361904D01*
X127928571Y-104219047D01*
X128500000Y-103647619D01*
X127880952Y-103647619D01*
%TD*%
M02*
