M48
; DRILL file {KiCad (5.1.7-0-10_14)} date Friday, November 27, 2020 at 07:57:43 PM
; FORMAT={-:-/ absolute / inch / decimal}
; #@! TF.CreationDate,2020-11-27T19:57:43+01:00
; #@! TF.GenerationSoftware,Kicad,Pcbnew,(5.1.7-0-10_14)
; #@! TF.FileFunction,Plated,1,4,PTH
FMAT,2
INCH
T1C0.0118
T2C0.0157
T3C0.0197
T4C0.0217
T5C0.0866
%
G90
G05
T1
X4.3858Y-4.6969
X4.3937Y-4.1102
X4.4252Y-4.6969
X4.4252Y-4.7677
X4.4331Y-4.0728
X4.4488Y-4.4094
X4.4559Y-4.2094
X4.4724Y-4.3268
X4.4843Y-4.0118
X4.4882Y-4.3031
X4.5078Y-4.1923
X4.5236Y-4.5669
X4.5242Y-4.5394
X4.5335Y-3.9587
X4.54Y-4.5118
X4.5427Y-4.0118
X4.5787Y-4.815
X4.6102Y-4.248
X4.6102Y-4.2795
X4.6102Y-4.311
X4.6417Y-4.248
X4.6417Y-4.2795
X4.6417Y-4.311
X4.6732Y-4.248
X4.6732Y-4.2795
X4.6732Y-4.311
X4.6752Y-4.1496
X4.6811Y-3.9488
X4.6838Y-4.0581
X4.7008Y-4.1457
X4.7283Y-4.5236
X4.7559Y-4.1673
X4.7756Y-4.1063
X4.7874Y-4.5236
X4.7882Y-4.237
X4.7913Y-4.3898
X4.7933Y-4.8307
X4.8386Y-4.6496
X4.8661Y-4.2598
X4.9134Y-4.514
X5.0748Y-3.7677
X5.0866Y-3.8346
X5.1021Y-4.0751
X5.1319Y-4.0719
X5.1535Y-4.5551
X5.1693Y-3.937
X5.2087Y-3.8031
X5.2126Y-3.9528
X5.2244Y-4.3071
X5.2402Y-4.2835
X5.2579Y-4.0118
X5.315Y-4.7874
X5.3504Y-4.5866
X5.3504Y-4.6142
X5.3898Y-3.7795
X5.4075Y-3.9646
X5.4233Y-4.1635
X5.4252Y-4.6476
X5.4409Y-3.9331
X5.4685Y-4.3898
X5.4803Y-4.7559
X5.4882Y-3.7795
X5.5039Y-4.7559
X5.5197Y-4.3307
X5.5197Y-4.4488
X5.5197Y-4.6378
X5.5276Y-4.7559
X5.6102Y-4.4488
X5.6102Y-4.5787
X5.6378Y-4.2835
X5.685Y-3.7874
X5.7047Y-4.6378
X5.7579Y-3.7441
X5.8268Y-4.7559
X5.8819Y-4.5
X5.8878Y-3.7441
X5.8957Y-3.8701
X5.9134Y-4.5709
X4.8307Y-3.8543
T2
X4.2461Y-3.9016
X4.3051Y-3.9016
X4.3642Y-3.9016
X4.4232Y-3.9016
X4.4823Y-3.9016
X4.5413Y-3.9016
X4.6004Y-3.9016
X4.6594Y-3.9016
X4.7185Y-3.9016
X4.7776Y-3.9016
X4.8366Y-3.9016
X4.8957Y-3.626
X4.8957Y-3.9016
X4.8976Y-3.6654
X4.8976Y-3.7244
X4.8976Y-3.7835
X4.8976Y-3.8425
X4.3051Y-4.2913
X4.3241Y-4.2454
X4.3241Y-4.3373
X4.3701Y-4.2264
X4.3701Y-4.3563
X4.416Y-4.2454
X4.416Y-4.3373
X4.435Y-4.2913
X5.8012Y-4.2913
X5.8202Y-4.2454
X5.8202Y-4.3373
X5.8661Y-4.2264
X5.8661Y-4.3563
X5.9121Y-4.2454
X5.9121Y-4.3373
X5.9311Y-4.2913
T5
X4.3701Y-4.2913
X5.8661Y-4.2913
T3
G00X5.4764Y-4.938
M15
G01X5.4764Y-4.9124
M16
G05
G00X5.752Y-4.938
M15
G01X5.752Y-4.9124
M16
G05
T4
G00X5.5217Y-4.8189
M15
G01X5.5098Y-4.8189
M16
G05
G00X5.7185Y-4.8189
M15
G01X5.7067Y-4.8189
M16
G05
T0
M30
