%TF.GenerationSoftware,KiCad,Pcbnew,(5.1.7-0-10_14)*%
%TF.CreationDate,2020-11-27T19:57:41+01:00*%
%TF.ProjectId,AtmoNode,41746d6f-4e6f-4646-952e-6b696361645f,rev?*%
%TF.SameCoordinates,Original*%
%TF.FileFunction,Copper,L3,Inr*%
%TF.FilePolarity,Positive*%
%FSLAX46Y46*%
G04 Gerber Fmt 4.6, Leading zero omitted, Abs format (unit mm)*
G04 Created by KiCad (PCBNEW (5.1.7-0-10_14)) date 2020-11-27 19:57:41*
%MOMM*%
%LPD*%
G01*
G04 APERTURE LIST*
%TA.AperFunction,ComponentPad*%
%ADD10C,4.400000*%
%TD*%
%TA.AperFunction,ComponentPad*%
%ADD11C,0.700000*%
%TD*%
%TA.AperFunction,ComponentPad*%
%ADD12R,0.900000X0.500000*%
%TD*%
%TA.AperFunction,ComponentPad*%
%ADD13O,0.890000X1.550000*%
%TD*%
%TA.AperFunction,ComponentPad*%
%ADD14O,1.250000X0.950000*%
%TD*%
%TA.AperFunction,ViaPad*%
%ADD15C,0.800000*%
%TD*%
%TA.AperFunction,ViaPad*%
%ADD16C,0.450000*%
%TD*%
%TA.AperFunction,Conductor*%
%ADD17C,0.254000*%
%TD*%
%TA.AperFunction,Conductor*%
%ADD18C,0.100000*%
%TD*%
G04 APERTURE END LIST*
D10*
%TO.N,GND*%
%TO.C,H2*%
X149000000Y-109000000D03*
D11*
X150650000Y-109000000D03*
X150166726Y-110166726D03*
X149000000Y-110650000D03*
X147833274Y-110166726D03*
X147350000Y-109000000D03*
X147833274Y-107833274D03*
X149000000Y-107350000D03*
X150166726Y-107833274D03*
%TD*%
D10*
%TO.N,GND*%
%TO.C,H1*%
X111000000Y-109000000D03*
D11*
X112650000Y-109000000D03*
X112166726Y-110166726D03*
X111000000Y-110650000D03*
X109833274Y-110166726D03*
X109350000Y-109000000D03*
X109833274Y-107833274D03*
X111000000Y-107350000D03*
X112166726Y-107833274D03*
%TD*%
D12*
%TO.N,GND*%
%TO.C,AE1*%
X122700000Y-97900000D03*
%TD*%
D13*
%TO.N,Net-(J1-Pad6)*%
%TO.C,J1*%
X139100000Y-125100000D03*
X146100000Y-125100000D03*
D14*
X140100000Y-122400000D03*
X145100000Y-122400000D03*
%TD*%
D15*
%TO.N,*%
X124350000Y-99100000D03*
X122850000Y-99100000D03*
D16*
%TO.N,GND*%
X118700000Y-107900000D03*
X117100000Y-107900000D03*
X117100000Y-109500000D03*
X118700000Y-109500000D03*
X117900000Y-109500000D03*
X117900000Y-107900000D03*
X118700000Y-108700000D03*
X117100000Y-108700000D03*
X117900000Y-108700000D03*
D15*
X121350000Y-99100000D03*
X118350000Y-99100000D03*
X116850000Y-99100000D03*
X115350000Y-99100000D03*
X113850000Y-99100000D03*
X112350000Y-99100000D03*
X110850000Y-99100000D03*
X109350000Y-99100000D03*
X124400000Y-97600000D03*
X119850000Y-99100000D03*
X124400000Y-94600000D03*
X124400000Y-93100000D03*
X107850000Y-99100000D03*
X124400000Y-96100000D03*
D16*
X123600000Y-108200000D03*
X121600000Y-114900000D03*
X112400000Y-119300000D03*
X116300000Y-122300000D03*
X113900000Y-101900000D03*
X111600000Y-104400000D03*
X130900000Y-115700000D03*
X135000000Y-121600000D03*
X140400000Y-120800000D03*
X139800000Y-120800000D03*
X139200000Y-120800000D03*
X139400000Y-96000000D03*
X138200000Y-99900000D03*
X137350000Y-100700000D03*
X133550000Y-101900000D03*
X129592498Y-103506551D03*
X131300000Y-100000000D03*
X132400000Y-100400000D03*
X113000000Y-112000000D03*
X113180473Y-106919527D03*
X118900000Y-100300000D03*
X140200000Y-110000000D03*
X140200000Y-113000000D03*
X138900000Y-111500000D03*
X124800000Y-114654800D03*
X148000000Y-120800000D03*
X143200000Y-108800000D03*
X132300000Y-96600000D03*
D15*
X124350000Y-92100000D03*
D16*
X149750000Y-98300000D03*
X118968773Y-103075677D03*
X121300000Y-104300000D03*
X146250000Y-95100000D03*
X137800000Y-118050000D03*
%TO.N,+3V3*%
X120100000Y-114900000D03*
X111400000Y-119300000D03*
X136900000Y-96000000D03*
X130350000Y-103425000D03*
X114000000Y-109300000D03*
X142500000Y-113000000D03*
X142500000Y-116300000D03*
X140200000Y-117800000D03*
X144900000Y-117800000D03*
X121619527Y-107619527D03*
X113600000Y-109900000D03*
X128900000Y-95700000D03*
X129200000Y-97400000D03*
X150200000Y-116100000D03*
X137752574Y-105752574D03*
X149550000Y-95100000D03*
X115384490Y-101900000D03*
X119400000Y-105300000D03*
X144400000Y-96200000D03*
X112600000Y-103450000D03*
%TO.N,RESET*%
X122900000Y-118100000D03*
X114499227Y-106484500D03*
X121750000Y-122700000D03*
X120800000Y-105850000D03*
%TO.N,SDA*%
X133100000Y-108800000D03*
X121700000Y-111500000D03*
%TO.N,SCL*%
X132700000Y-109400000D03*
X115315510Y-114600000D03*
%TO.N,GPIO0*%
X112400000Y-121100000D03*
%TO.N,RXD*%
X114915500Y-115300000D03*
X135900000Y-116500000D03*
%TO.N,TXD*%
X114900000Y-116000000D03*
X135900000Y-117200000D03*
%TO.N,GPIO2*%
X149400000Y-114300000D03*
%TO.N,Net-(TP7-Pad1)*%
X115150000Y-100550000D03*
X118750000Y-105400002D03*
%TD*%
D17*
%TO.N,GND*%
X150503463Y-91957312D02*
X150987756Y-92103529D01*
X151434422Y-92341025D01*
X151826450Y-92660755D01*
X152148907Y-93050539D01*
X152389518Y-93495540D01*
X152539111Y-93978796D01*
X152594000Y-94501029D01*
X152594001Y-123480136D01*
X152542688Y-124003464D01*
X152396472Y-124487756D01*
X152158975Y-124934422D01*
X151839245Y-125326450D01*
X151449458Y-125648910D01*
X151004460Y-125889518D01*
X150521205Y-126039111D01*
X149998971Y-126094000D01*
X146592943Y-126094000D01*
X146686896Y-126016896D01*
X146790116Y-125891121D01*
X146866816Y-125747626D01*
X146914048Y-125591924D01*
X146926000Y-125470572D01*
X146926000Y-124729428D01*
X146914048Y-124608076D01*
X146866816Y-124452374D01*
X146790116Y-124308879D01*
X146686896Y-124183104D01*
X146561121Y-124079884D01*
X146417626Y-124003184D01*
X146261924Y-123955952D01*
X146100000Y-123940004D01*
X145938077Y-123955952D01*
X145782375Y-124003184D01*
X145638880Y-124079884D01*
X145513105Y-124183104D01*
X145409885Y-124308879D01*
X145333185Y-124452374D01*
X145285952Y-124608076D01*
X145274000Y-124729428D01*
X145274000Y-125470571D01*
X145285952Y-125591923D01*
X145333184Y-125747625D01*
X145409884Y-125891120D01*
X145513104Y-126016896D01*
X145607056Y-126094000D01*
X139592943Y-126094000D01*
X139686896Y-126016896D01*
X139790116Y-125891121D01*
X139866816Y-125747626D01*
X139914048Y-125591924D01*
X139926000Y-125470572D01*
X139926000Y-124729428D01*
X139914048Y-124608076D01*
X139866816Y-124452374D01*
X139790116Y-124308879D01*
X139686896Y-124183104D01*
X139561121Y-124079884D01*
X139417626Y-124003184D01*
X139261924Y-123955952D01*
X139100000Y-123940004D01*
X138938077Y-123955952D01*
X138782375Y-124003184D01*
X138638880Y-124079884D01*
X138513105Y-124183104D01*
X138409885Y-124308879D01*
X138333185Y-124452374D01*
X138285952Y-124608076D01*
X138274000Y-124729428D01*
X138274000Y-125470571D01*
X138285952Y-125591923D01*
X138333184Y-125747625D01*
X138409884Y-125891120D01*
X138513104Y-126016896D01*
X138607056Y-126094000D01*
X110019854Y-126094000D01*
X109496536Y-126042688D01*
X109012244Y-125896472D01*
X108565578Y-125658975D01*
X108173550Y-125339245D01*
X107851090Y-124949458D01*
X107610482Y-124504460D01*
X107460889Y-124021205D01*
X107406000Y-123498971D01*
X107406000Y-122640314D01*
X121144000Y-122640314D01*
X121144000Y-122759686D01*
X121167288Y-122876764D01*
X121212970Y-122987049D01*
X121279289Y-123086302D01*
X121363698Y-123170711D01*
X121462951Y-123237030D01*
X121573236Y-123282712D01*
X121690314Y-123306000D01*
X121809686Y-123306000D01*
X121926764Y-123282712D01*
X122037049Y-123237030D01*
X122136302Y-123170711D01*
X122220711Y-123086302D01*
X122287030Y-122987049D01*
X122332712Y-122876764D01*
X122356000Y-122759686D01*
X122356000Y-122640314D01*
X122332712Y-122523236D01*
X122287030Y-122412951D01*
X122278377Y-122400000D01*
X139089859Y-122400000D01*
X139106386Y-122567805D01*
X139155333Y-122729162D01*
X139234819Y-122877869D01*
X139341788Y-123008212D01*
X139472131Y-123115181D01*
X139620838Y-123194667D01*
X139782195Y-123243614D01*
X139907955Y-123256000D01*
X140292045Y-123256000D01*
X140417805Y-123243614D01*
X140579162Y-123194667D01*
X140727869Y-123115181D01*
X140858212Y-123008212D01*
X140965181Y-122877869D01*
X141044667Y-122729162D01*
X141093614Y-122567805D01*
X141110141Y-122400000D01*
X144089859Y-122400000D01*
X144106386Y-122567805D01*
X144155333Y-122729162D01*
X144234819Y-122877869D01*
X144341788Y-123008212D01*
X144472131Y-123115181D01*
X144620838Y-123194667D01*
X144782195Y-123243614D01*
X144907955Y-123256000D01*
X145292045Y-123256000D01*
X145417805Y-123243614D01*
X145579162Y-123194667D01*
X145727869Y-123115181D01*
X145858212Y-123008212D01*
X145965181Y-122877869D01*
X146044667Y-122729162D01*
X146093614Y-122567805D01*
X146110141Y-122400000D01*
X146093614Y-122232195D01*
X146044667Y-122070838D01*
X145965181Y-121922131D01*
X145858212Y-121791788D01*
X145727869Y-121684819D01*
X145579162Y-121605333D01*
X145417805Y-121556386D01*
X145292045Y-121544000D01*
X144907955Y-121544000D01*
X144782195Y-121556386D01*
X144620838Y-121605333D01*
X144472131Y-121684819D01*
X144341788Y-121791788D01*
X144234819Y-121922131D01*
X144155333Y-122070838D01*
X144106386Y-122232195D01*
X144089859Y-122400000D01*
X141110141Y-122400000D01*
X141093614Y-122232195D01*
X141044667Y-122070838D01*
X140965181Y-121922131D01*
X140858212Y-121791788D01*
X140727869Y-121684819D01*
X140579162Y-121605333D01*
X140417805Y-121556386D01*
X140292045Y-121544000D01*
X139907955Y-121544000D01*
X139782195Y-121556386D01*
X139620838Y-121605333D01*
X139472131Y-121684819D01*
X139341788Y-121791788D01*
X139234819Y-121922131D01*
X139155333Y-122070838D01*
X139106386Y-122232195D01*
X139089859Y-122400000D01*
X122278377Y-122400000D01*
X122220711Y-122313698D01*
X122136302Y-122229289D01*
X122037049Y-122162970D01*
X121926764Y-122117288D01*
X121809686Y-122094000D01*
X121690314Y-122094000D01*
X121573236Y-122117288D01*
X121462951Y-122162970D01*
X121363698Y-122229289D01*
X121279289Y-122313698D01*
X121212970Y-122412951D01*
X121167288Y-122523236D01*
X121144000Y-122640314D01*
X107406000Y-122640314D01*
X107406000Y-121040314D01*
X111794000Y-121040314D01*
X111794000Y-121159686D01*
X111817288Y-121276764D01*
X111862970Y-121387049D01*
X111929289Y-121486302D01*
X112013698Y-121570711D01*
X112112951Y-121637030D01*
X112223236Y-121682712D01*
X112340314Y-121706000D01*
X112459686Y-121706000D01*
X112576764Y-121682712D01*
X112687049Y-121637030D01*
X112786302Y-121570711D01*
X112870711Y-121486302D01*
X112937030Y-121387049D01*
X112982712Y-121276764D01*
X113006000Y-121159686D01*
X113006000Y-121040314D01*
X112982712Y-120923236D01*
X112937030Y-120812951D01*
X112870711Y-120713698D01*
X112786302Y-120629289D01*
X112687049Y-120562970D01*
X112576764Y-120517288D01*
X112459686Y-120494000D01*
X112340314Y-120494000D01*
X112223236Y-120517288D01*
X112112951Y-120562970D01*
X112013698Y-120629289D01*
X111929289Y-120713698D01*
X111862970Y-120812951D01*
X111817288Y-120923236D01*
X111794000Y-121040314D01*
X107406000Y-121040314D01*
X107406000Y-119240314D01*
X110794000Y-119240314D01*
X110794000Y-119359686D01*
X110817288Y-119476764D01*
X110862970Y-119587049D01*
X110929289Y-119686302D01*
X111013698Y-119770711D01*
X111112951Y-119837030D01*
X111223236Y-119882712D01*
X111340314Y-119906000D01*
X111459686Y-119906000D01*
X111576764Y-119882712D01*
X111687049Y-119837030D01*
X111786302Y-119770711D01*
X111870711Y-119686302D01*
X111937030Y-119587049D01*
X111982712Y-119476764D01*
X112006000Y-119359686D01*
X112006000Y-119240314D01*
X111982712Y-119123236D01*
X111937030Y-119012951D01*
X111870711Y-118913698D01*
X111786302Y-118829289D01*
X111687049Y-118762970D01*
X111576764Y-118717288D01*
X111459686Y-118694000D01*
X111340314Y-118694000D01*
X111223236Y-118717288D01*
X111112951Y-118762970D01*
X111013698Y-118829289D01*
X110929289Y-118913698D01*
X110862970Y-119012951D01*
X110817288Y-119123236D01*
X110794000Y-119240314D01*
X107406000Y-119240314D01*
X107406000Y-118040314D01*
X122294000Y-118040314D01*
X122294000Y-118159686D01*
X122317288Y-118276764D01*
X122362970Y-118387049D01*
X122429289Y-118486302D01*
X122513698Y-118570711D01*
X122612951Y-118637030D01*
X122723236Y-118682712D01*
X122840314Y-118706000D01*
X122959686Y-118706000D01*
X123076764Y-118682712D01*
X123187049Y-118637030D01*
X123286302Y-118570711D01*
X123370711Y-118486302D01*
X123437030Y-118387049D01*
X123482712Y-118276764D01*
X123506000Y-118159686D01*
X123506000Y-118040314D01*
X123482712Y-117923236D01*
X123437030Y-117812951D01*
X123370711Y-117713698D01*
X123286302Y-117629289D01*
X123187049Y-117562970D01*
X123076764Y-117517288D01*
X122959686Y-117494000D01*
X122840314Y-117494000D01*
X122723236Y-117517288D01*
X122612951Y-117562970D01*
X122513698Y-117629289D01*
X122429289Y-117713698D01*
X122362970Y-117812951D01*
X122317288Y-117923236D01*
X122294000Y-118040314D01*
X107406000Y-118040314D01*
X107406000Y-115940314D01*
X114294000Y-115940314D01*
X114294000Y-116059686D01*
X114317288Y-116176764D01*
X114362970Y-116287049D01*
X114429289Y-116386302D01*
X114513698Y-116470711D01*
X114612951Y-116537030D01*
X114723236Y-116582712D01*
X114840314Y-116606000D01*
X114959686Y-116606000D01*
X115076764Y-116582712D01*
X115187049Y-116537030D01*
X115286302Y-116470711D01*
X115316699Y-116440314D01*
X135294000Y-116440314D01*
X135294000Y-116559686D01*
X135317288Y-116676764D01*
X135362970Y-116787049D01*
X135405033Y-116850000D01*
X135362970Y-116912951D01*
X135317288Y-117023236D01*
X135294000Y-117140314D01*
X135294000Y-117259686D01*
X135317288Y-117376764D01*
X135362970Y-117487049D01*
X135429289Y-117586302D01*
X135513698Y-117670711D01*
X135612951Y-117737030D01*
X135723236Y-117782712D01*
X135840314Y-117806000D01*
X135959686Y-117806000D01*
X136076764Y-117782712D01*
X136179120Y-117740314D01*
X139594000Y-117740314D01*
X139594000Y-117859686D01*
X139617288Y-117976764D01*
X139662970Y-118087049D01*
X139729289Y-118186302D01*
X139813698Y-118270711D01*
X139912951Y-118337030D01*
X140023236Y-118382712D01*
X140140314Y-118406000D01*
X140259686Y-118406000D01*
X140376764Y-118382712D01*
X140487049Y-118337030D01*
X140586302Y-118270711D01*
X140670711Y-118186302D01*
X140737030Y-118087049D01*
X140782712Y-117976764D01*
X140806000Y-117859686D01*
X140806000Y-117740314D01*
X144294000Y-117740314D01*
X144294000Y-117859686D01*
X144317288Y-117976764D01*
X144362970Y-118087049D01*
X144429289Y-118186302D01*
X144513698Y-118270711D01*
X144612951Y-118337030D01*
X144723236Y-118382712D01*
X144840314Y-118406000D01*
X144959686Y-118406000D01*
X145076764Y-118382712D01*
X145187049Y-118337030D01*
X145286302Y-118270711D01*
X145370711Y-118186302D01*
X145437030Y-118087049D01*
X145482712Y-117976764D01*
X145506000Y-117859686D01*
X145506000Y-117740314D01*
X145482712Y-117623236D01*
X145437030Y-117512951D01*
X145370711Y-117413698D01*
X145286302Y-117329289D01*
X145187049Y-117262970D01*
X145076764Y-117217288D01*
X144959686Y-117194000D01*
X144840314Y-117194000D01*
X144723236Y-117217288D01*
X144612951Y-117262970D01*
X144513698Y-117329289D01*
X144429289Y-117413698D01*
X144362970Y-117512951D01*
X144317288Y-117623236D01*
X144294000Y-117740314D01*
X140806000Y-117740314D01*
X140782712Y-117623236D01*
X140737030Y-117512951D01*
X140670711Y-117413698D01*
X140586302Y-117329289D01*
X140487049Y-117262970D01*
X140376764Y-117217288D01*
X140259686Y-117194000D01*
X140140314Y-117194000D01*
X140023236Y-117217288D01*
X139912951Y-117262970D01*
X139813698Y-117329289D01*
X139729289Y-117413698D01*
X139662970Y-117512951D01*
X139617288Y-117623236D01*
X139594000Y-117740314D01*
X136179120Y-117740314D01*
X136187049Y-117737030D01*
X136286302Y-117670711D01*
X136370711Y-117586302D01*
X136437030Y-117487049D01*
X136482712Y-117376764D01*
X136506000Y-117259686D01*
X136506000Y-117140314D01*
X136482712Y-117023236D01*
X136437030Y-116912951D01*
X136394967Y-116850000D01*
X136437030Y-116787049D01*
X136482712Y-116676764D01*
X136506000Y-116559686D01*
X136506000Y-116440314D01*
X136482712Y-116323236D01*
X136448365Y-116240314D01*
X141894000Y-116240314D01*
X141894000Y-116359686D01*
X141917288Y-116476764D01*
X141962970Y-116587049D01*
X142029289Y-116686302D01*
X142113698Y-116770711D01*
X142212951Y-116837030D01*
X142323236Y-116882712D01*
X142440314Y-116906000D01*
X142559686Y-116906000D01*
X142676764Y-116882712D01*
X142787049Y-116837030D01*
X142886302Y-116770711D01*
X142970711Y-116686302D01*
X143037030Y-116587049D01*
X143082712Y-116476764D01*
X143106000Y-116359686D01*
X143106000Y-116240314D01*
X143082712Y-116123236D01*
X143048365Y-116040314D01*
X149594000Y-116040314D01*
X149594000Y-116159686D01*
X149617288Y-116276764D01*
X149662970Y-116387049D01*
X149729289Y-116486302D01*
X149813698Y-116570711D01*
X149912951Y-116637030D01*
X150023236Y-116682712D01*
X150140314Y-116706000D01*
X150259686Y-116706000D01*
X150376764Y-116682712D01*
X150487049Y-116637030D01*
X150586302Y-116570711D01*
X150670711Y-116486302D01*
X150737030Y-116387049D01*
X150782712Y-116276764D01*
X150806000Y-116159686D01*
X150806000Y-116040314D01*
X150782712Y-115923236D01*
X150737030Y-115812951D01*
X150670711Y-115713698D01*
X150586302Y-115629289D01*
X150487049Y-115562970D01*
X150376764Y-115517288D01*
X150259686Y-115494000D01*
X150140314Y-115494000D01*
X150023236Y-115517288D01*
X149912951Y-115562970D01*
X149813698Y-115629289D01*
X149729289Y-115713698D01*
X149662970Y-115812951D01*
X149617288Y-115923236D01*
X149594000Y-116040314D01*
X143048365Y-116040314D01*
X143037030Y-116012951D01*
X142970711Y-115913698D01*
X142886302Y-115829289D01*
X142787049Y-115762970D01*
X142676764Y-115717288D01*
X142559686Y-115694000D01*
X142440314Y-115694000D01*
X142323236Y-115717288D01*
X142212951Y-115762970D01*
X142113698Y-115829289D01*
X142029289Y-115913698D01*
X141962970Y-116012951D01*
X141917288Y-116123236D01*
X141894000Y-116240314D01*
X136448365Y-116240314D01*
X136437030Y-116212951D01*
X136370711Y-116113698D01*
X136286302Y-116029289D01*
X136187049Y-115962970D01*
X136076764Y-115917288D01*
X135959686Y-115894000D01*
X135840314Y-115894000D01*
X135723236Y-115917288D01*
X135612951Y-115962970D01*
X135513698Y-116029289D01*
X135429289Y-116113698D01*
X135362970Y-116212951D01*
X135317288Y-116323236D01*
X135294000Y-116440314D01*
X115316699Y-116440314D01*
X115370711Y-116386302D01*
X115437030Y-116287049D01*
X115482712Y-116176764D01*
X115506000Y-116059686D01*
X115506000Y-115940314D01*
X115482712Y-115823236D01*
X115437030Y-115712951D01*
X115402717Y-115661599D01*
X115452530Y-115587049D01*
X115498212Y-115476764D01*
X115521500Y-115359686D01*
X115521500Y-115240314D01*
X115508690Y-115175912D01*
X115602559Y-115137030D01*
X115701812Y-115070711D01*
X115786221Y-114986302D01*
X115852540Y-114887049D01*
X115871898Y-114840314D01*
X119494000Y-114840314D01*
X119494000Y-114959686D01*
X119517288Y-115076764D01*
X119562970Y-115187049D01*
X119629289Y-115286302D01*
X119713698Y-115370711D01*
X119812951Y-115437030D01*
X119923236Y-115482712D01*
X120040314Y-115506000D01*
X120159686Y-115506000D01*
X120276764Y-115482712D01*
X120387049Y-115437030D01*
X120486302Y-115370711D01*
X120570711Y-115286302D01*
X120637030Y-115187049D01*
X120682712Y-115076764D01*
X120706000Y-114959686D01*
X120706000Y-114840314D01*
X120682712Y-114723236D01*
X120637030Y-114612951D01*
X120570711Y-114513698D01*
X120486302Y-114429289D01*
X120387049Y-114362970D01*
X120276764Y-114317288D01*
X120159686Y-114294000D01*
X120040314Y-114294000D01*
X119923236Y-114317288D01*
X119812951Y-114362970D01*
X119713698Y-114429289D01*
X119629289Y-114513698D01*
X119562970Y-114612951D01*
X119517288Y-114723236D01*
X119494000Y-114840314D01*
X115871898Y-114840314D01*
X115898222Y-114776764D01*
X115921510Y-114659686D01*
X115921510Y-114540314D01*
X115898222Y-114423236D01*
X115852540Y-114312951D01*
X115786221Y-114213698D01*
X115701812Y-114129289D01*
X115602559Y-114062970D01*
X115492274Y-114017288D01*
X115375196Y-113994000D01*
X115255824Y-113994000D01*
X115138746Y-114017288D01*
X115028461Y-114062970D01*
X114929208Y-114129289D01*
X114844799Y-114213698D01*
X114778480Y-114312951D01*
X114732798Y-114423236D01*
X114709510Y-114540314D01*
X114709510Y-114659686D01*
X114722320Y-114724088D01*
X114628451Y-114762970D01*
X114529198Y-114829289D01*
X114444789Y-114913698D01*
X114378470Y-115012951D01*
X114332788Y-115123236D01*
X114309500Y-115240314D01*
X114309500Y-115359686D01*
X114332788Y-115476764D01*
X114378470Y-115587049D01*
X114412783Y-115638401D01*
X114362970Y-115712951D01*
X114317288Y-115823236D01*
X114294000Y-115940314D01*
X107406000Y-115940314D01*
X107406000Y-113070183D01*
X122395695Y-113070183D01*
X122395952Y-113106981D01*
X122395695Y-113143779D01*
X122396248Y-113149421D01*
X122416649Y-113343518D01*
X122424056Y-113379604D01*
X122430944Y-113415708D01*
X122432582Y-113421135D01*
X122490294Y-113607573D01*
X122504555Y-113641500D01*
X122518338Y-113675613D01*
X122520999Y-113680619D01*
X122613824Y-113852296D01*
X122634414Y-113882821D01*
X122654551Y-113913594D01*
X122658134Y-113917988D01*
X122782538Y-114068365D01*
X122808670Y-114094316D01*
X122834394Y-114120584D01*
X122838756Y-114124193D01*
X122838762Y-114124199D01*
X122838769Y-114124203D01*
X122990004Y-114247548D01*
X123020684Y-114267932D01*
X123051016Y-114288701D01*
X123055998Y-114291395D01*
X123056002Y-114291398D01*
X123056006Y-114291400D01*
X123228325Y-114383023D01*
X123262348Y-114397046D01*
X123296168Y-114411541D01*
X123301583Y-114413218D01*
X123488420Y-114469627D01*
X123524575Y-114476786D01*
X123560509Y-114484424D01*
X123566138Y-114485016D01*
X123566148Y-114485018D01*
X123566157Y-114485018D01*
X123760380Y-114504062D01*
X123760382Y-114504062D01*
X123780059Y-114506000D01*
X137119941Y-114506000D01*
X137140602Y-114503965D01*
X137153580Y-114503965D01*
X137159218Y-114503373D01*
X137353168Y-114481618D01*
X137389205Y-114473958D01*
X137425260Y-114466819D01*
X137430670Y-114465145D01*
X137430674Y-114465144D01*
X137430677Y-114465143D01*
X137616706Y-114406130D01*
X137650557Y-114391621D01*
X137684547Y-114377611D01*
X137689530Y-114374917D01*
X137689535Y-114374915D01*
X137689539Y-114374912D01*
X137860560Y-114280893D01*
X137890931Y-114260098D01*
X137920707Y-114240314D01*
X148794000Y-114240314D01*
X148794000Y-114359686D01*
X148817288Y-114476764D01*
X148862970Y-114587049D01*
X148929289Y-114686302D01*
X149013698Y-114770711D01*
X149112951Y-114837030D01*
X149223236Y-114882712D01*
X149340314Y-114906000D01*
X149459686Y-114906000D01*
X149576764Y-114882712D01*
X149687049Y-114837030D01*
X149786302Y-114770711D01*
X149870711Y-114686302D01*
X149937030Y-114587049D01*
X149982712Y-114476764D01*
X150006000Y-114359686D01*
X150006000Y-114240314D01*
X149982712Y-114123236D01*
X149937030Y-114012951D01*
X149870711Y-113913698D01*
X149786302Y-113829289D01*
X149687049Y-113762970D01*
X149576764Y-113717288D01*
X149459686Y-113694000D01*
X149340314Y-113694000D01*
X149223236Y-113717288D01*
X149112951Y-113762970D01*
X149013698Y-113829289D01*
X148929289Y-113913698D01*
X148862970Y-114012951D01*
X148817288Y-114123236D01*
X148794000Y-114240314D01*
X137920707Y-114240314D01*
X137921570Y-114239741D01*
X137925933Y-114236131D01*
X137925939Y-114236127D01*
X137925944Y-114236122D01*
X138075444Y-114110677D01*
X138101204Y-114084373D01*
X138127301Y-114058456D01*
X138130880Y-114054069D01*
X138130884Y-114054065D01*
X138130887Y-114054061D01*
X138253176Y-113901964D01*
X138273342Y-113871147D01*
X138293900Y-113840668D01*
X138296562Y-113835662D01*
X138386982Y-113662707D01*
X138400776Y-113628566D01*
X138415027Y-113594664D01*
X138416666Y-113589236D01*
X138471769Y-113402011D01*
X138478668Y-113365846D01*
X138486062Y-113329821D01*
X138486616Y-113324179D01*
X138504305Y-113129817D01*
X138504048Y-113093019D01*
X138504305Y-113056221D01*
X138503752Y-113050579D01*
X138492163Y-112940314D01*
X141894000Y-112940314D01*
X141894000Y-113059686D01*
X141917288Y-113176764D01*
X141962970Y-113287049D01*
X142029289Y-113386302D01*
X142113698Y-113470711D01*
X142212951Y-113537030D01*
X142323236Y-113582712D01*
X142440314Y-113606000D01*
X142559686Y-113606000D01*
X142676764Y-113582712D01*
X142787049Y-113537030D01*
X142886302Y-113470711D01*
X142970711Y-113386302D01*
X143037030Y-113287049D01*
X143082712Y-113176764D01*
X143106000Y-113059686D01*
X143106000Y-112940314D01*
X143082712Y-112823236D01*
X143037030Y-112712951D01*
X142970711Y-112613698D01*
X142886302Y-112529289D01*
X142787049Y-112462970D01*
X142676764Y-112417288D01*
X142559686Y-112394000D01*
X142440314Y-112394000D01*
X142323236Y-112417288D01*
X142212951Y-112462970D01*
X142113698Y-112529289D01*
X142029289Y-112613698D01*
X141962970Y-112712951D01*
X141917288Y-112823236D01*
X141894000Y-112940314D01*
X138492163Y-112940314D01*
X138483351Y-112856482D01*
X138475944Y-112820396D01*
X138469056Y-112784292D01*
X138467418Y-112778865D01*
X138409706Y-112592427D01*
X138395445Y-112558500D01*
X138381662Y-112524387D01*
X138379001Y-112519381D01*
X138286176Y-112347704D01*
X138265558Y-112317137D01*
X138245448Y-112286406D01*
X138241866Y-112282012D01*
X138117462Y-112131634D01*
X138091311Y-112105664D01*
X138065606Y-112079416D01*
X138061244Y-112075807D01*
X138061238Y-112075801D01*
X138061231Y-112075797D01*
X137909996Y-111952452D01*
X137879331Y-111932078D01*
X137848984Y-111911299D01*
X137844002Y-111908605D01*
X137843998Y-111908602D01*
X137843994Y-111908600D01*
X137671675Y-111816977D01*
X137637640Y-111802949D01*
X137603832Y-111788459D01*
X137598417Y-111786782D01*
X137411581Y-111730373D01*
X137375411Y-111723211D01*
X137339491Y-111715576D01*
X137333864Y-111714984D01*
X137333853Y-111714982D01*
X137333843Y-111714982D01*
X137139619Y-111695938D01*
X137139618Y-111695938D01*
X137119941Y-111694000D01*
X123780059Y-111694000D01*
X123759398Y-111696035D01*
X123746419Y-111696035D01*
X123740781Y-111696627D01*
X123546832Y-111718382D01*
X123510795Y-111726042D01*
X123474740Y-111733181D01*
X123469330Y-111734855D01*
X123469326Y-111734856D01*
X123469323Y-111734857D01*
X123469324Y-111734857D01*
X123283294Y-111793870D01*
X123249443Y-111808379D01*
X123215453Y-111822389D01*
X123210470Y-111825083D01*
X123210465Y-111825085D01*
X123210461Y-111825088D01*
X123039441Y-111919107D01*
X123009087Y-111939890D01*
X122978430Y-111960259D01*
X122974062Y-111963872D01*
X122824556Y-112089323D01*
X122798815Y-112115608D01*
X122772698Y-112141544D01*
X122769120Y-112145931D01*
X122769116Y-112145935D01*
X122769115Y-112145937D01*
X122646824Y-112298037D01*
X122626658Y-112328853D01*
X122606100Y-112359333D01*
X122603438Y-112364338D01*
X122513018Y-112537294D01*
X122499229Y-112571423D01*
X122484973Y-112605337D01*
X122483334Y-112610764D01*
X122428231Y-112797990D01*
X122421333Y-112834154D01*
X122413938Y-112870179D01*
X122413384Y-112875821D01*
X122395695Y-113070183D01*
X107406000Y-113070183D01*
X107406000Y-110989775D01*
X109189830Y-110989775D01*
X109429976Y-111377018D01*
X109923877Y-111637641D01*
X110459133Y-111796901D01*
X111015174Y-111848678D01*
X111570632Y-111790981D01*
X112104161Y-111626028D01*
X112451606Y-111440314D01*
X121094000Y-111440314D01*
X121094000Y-111559686D01*
X121117288Y-111676764D01*
X121162970Y-111787049D01*
X121229289Y-111886302D01*
X121313698Y-111970711D01*
X121412951Y-112037030D01*
X121523236Y-112082712D01*
X121640314Y-112106000D01*
X121759686Y-112106000D01*
X121876764Y-112082712D01*
X121987049Y-112037030D01*
X122086302Y-111970711D01*
X122170711Y-111886302D01*
X122237030Y-111787049D01*
X122282712Y-111676764D01*
X122306000Y-111559686D01*
X122306000Y-111440314D01*
X122282712Y-111323236D01*
X122237030Y-111212951D01*
X122170711Y-111113698D01*
X122086302Y-111029289D01*
X122027166Y-110989775D01*
X147189830Y-110989775D01*
X147429976Y-111377018D01*
X147923877Y-111637641D01*
X148459133Y-111796901D01*
X149015174Y-111848678D01*
X149570632Y-111790981D01*
X150104161Y-111626028D01*
X150570024Y-111377018D01*
X150810170Y-110989775D01*
X149000000Y-109179605D01*
X147189830Y-110989775D01*
X122027166Y-110989775D01*
X121987049Y-110962970D01*
X121876764Y-110917288D01*
X121759686Y-110894000D01*
X121640314Y-110894000D01*
X121523236Y-110917288D01*
X121412951Y-110962970D01*
X121313698Y-111029289D01*
X121229289Y-111113698D01*
X121162970Y-111212951D01*
X121117288Y-111323236D01*
X121094000Y-111440314D01*
X112451606Y-111440314D01*
X112570024Y-111377018D01*
X112810170Y-110989775D01*
X111000000Y-109179605D01*
X109189830Y-110989775D01*
X107406000Y-110989775D01*
X107406000Y-109015174D01*
X108151322Y-109015174D01*
X108209019Y-109570632D01*
X108373972Y-110104161D01*
X108622982Y-110570024D01*
X109010225Y-110810170D01*
X110820395Y-109000000D01*
X111179605Y-109000000D01*
X112989775Y-110810170D01*
X113377018Y-110570024D01*
X113423117Y-110482663D01*
X113423236Y-110482712D01*
X113540314Y-110506000D01*
X113659686Y-110506000D01*
X113776764Y-110482712D01*
X113887049Y-110437030D01*
X113986302Y-110370711D01*
X114070711Y-110286302D01*
X114137030Y-110187049D01*
X114182712Y-110076764D01*
X114206000Y-109959686D01*
X114206000Y-109870602D01*
X114287049Y-109837030D01*
X114386302Y-109770711D01*
X114470711Y-109686302D01*
X114537030Y-109587049D01*
X114582712Y-109476764D01*
X114606000Y-109359686D01*
X114606000Y-109340314D01*
X132094000Y-109340314D01*
X132094000Y-109459686D01*
X132117288Y-109576764D01*
X132162970Y-109687049D01*
X132229289Y-109786302D01*
X132313698Y-109870711D01*
X132412951Y-109937030D01*
X132523236Y-109982712D01*
X132640314Y-110006000D01*
X132759686Y-110006000D01*
X132876764Y-109982712D01*
X132987049Y-109937030D01*
X133086302Y-109870711D01*
X133170711Y-109786302D01*
X133237030Y-109687049D01*
X133282712Y-109576764D01*
X133306000Y-109459686D01*
X133306000Y-109370602D01*
X133387049Y-109337030D01*
X133486302Y-109270711D01*
X133570711Y-109186302D01*
X133637030Y-109087049D01*
X133666801Y-109015174D01*
X146151322Y-109015174D01*
X146209019Y-109570632D01*
X146373972Y-110104161D01*
X146622982Y-110570024D01*
X147010225Y-110810170D01*
X148820395Y-109000000D01*
X149179605Y-109000000D01*
X150989775Y-110810170D01*
X151377018Y-110570024D01*
X151637641Y-110076123D01*
X151796901Y-109540867D01*
X151848678Y-108984826D01*
X151790981Y-108429368D01*
X151626028Y-107895839D01*
X151377018Y-107429976D01*
X150989775Y-107189830D01*
X149179605Y-109000000D01*
X148820395Y-109000000D01*
X147010225Y-107189830D01*
X146622982Y-107429976D01*
X146362359Y-107923877D01*
X146203099Y-108459133D01*
X146151322Y-109015174D01*
X133666801Y-109015174D01*
X133682712Y-108976764D01*
X133706000Y-108859686D01*
X133706000Y-108740314D01*
X133682712Y-108623236D01*
X133637030Y-108512951D01*
X133570711Y-108413698D01*
X133486302Y-108329289D01*
X133387049Y-108262970D01*
X133276764Y-108217288D01*
X133159686Y-108194000D01*
X133040314Y-108194000D01*
X132923236Y-108217288D01*
X132812951Y-108262970D01*
X132713698Y-108329289D01*
X132629289Y-108413698D01*
X132562970Y-108512951D01*
X132517288Y-108623236D01*
X132494000Y-108740314D01*
X132494000Y-108829398D01*
X132412951Y-108862970D01*
X132313698Y-108929289D01*
X132229289Y-109013698D01*
X132162970Y-109112951D01*
X132117288Y-109223236D01*
X132094000Y-109340314D01*
X114606000Y-109340314D01*
X114606000Y-109240314D01*
X114582712Y-109123236D01*
X114537030Y-109012951D01*
X114470711Y-108913698D01*
X114386302Y-108829289D01*
X114287049Y-108762970D01*
X114176764Y-108717288D01*
X114059686Y-108694000D01*
X113940314Y-108694000D01*
X113823236Y-108717288D01*
X113820985Y-108718220D01*
X113790981Y-108429368D01*
X113626028Y-107895839D01*
X113446433Y-107559841D01*
X121013527Y-107559841D01*
X121013527Y-107679213D01*
X121036815Y-107796291D01*
X121082497Y-107906576D01*
X121148816Y-108005829D01*
X121233225Y-108090238D01*
X121332478Y-108156557D01*
X121442763Y-108202239D01*
X121559841Y-108225527D01*
X121679213Y-108225527D01*
X121796291Y-108202239D01*
X121906576Y-108156557D01*
X122005829Y-108090238D01*
X122090238Y-108005829D01*
X122156557Y-107906576D01*
X122202239Y-107796291D01*
X122225527Y-107679213D01*
X122225527Y-107559841D01*
X122202239Y-107442763D01*
X122156557Y-107332478D01*
X122090238Y-107233225D01*
X122005829Y-107148816D01*
X121906576Y-107082497D01*
X121796291Y-107036815D01*
X121679213Y-107013527D01*
X121559841Y-107013527D01*
X121442763Y-107036815D01*
X121332478Y-107082497D01*
X121233225Y-107148816D01*
X121148816Y-107233225D01*
X121082497Y-107332478D01*
X121036815Y-107442763D01*
X121013527Y-107559841D01*
X113446433Y-107559841D01*
X113377018Y-107429976D01*
X112989775Y-107189830D01*
X111179605Y-109000000D01*
X110820395Y-109000000D01*
X109010225Y-107189830D01*
X108622982Y-107429976D01*
X108362359Y-107923877D01*
X108203099Y-108459133D01*
X108151322Y-109015174D01*
X107406000Y-109015174D01*
X107406000Y-107010225D01*
X109189830Y-107010225D01*
X111000000Y-108820395D01*
X112810170Y-107010225D01*
X112570024Y-106622982D01*
X112194481Y-106424814D01*
X113893227Y-106424814D01*
X113893227Y-106544186D01*
X113916515Y-106661264D01*
X113962197Y-106771549D01*
X114028516Y-106870802D01*
X114112925Y-106955211D01*
X114212178Y-107021530D01*
X114322463Y-107067212D01*
X114439541Y-107090500D01*
X114558913Y-107090500D01*
X114675991Y-107067212D01*
X114786276Y-107021530D01*
X114803195Y-107010225D01*
X147189830Y-107010225D01*
X149000000Y-108820395D01*
X150810170Y-107010225D01*
X150570024Y-106622982D01*
X150076123Y-106362359D01*
X149540867Y-106203099D01*
X148984826Y-106151322D01*
X148429368Y-106209019D01*
X147895839Y-106373972D01*
X147429976Y-106622982D01*
X147189830Y-107010225D01*
X114803195Y-107010225D01*
X114885529Y-106955211D01*
X114969938Y-106870802D01*
X115036257Y-106771549D01*
X115081939Y-106661264D01*
X115105227Y-106544186D01*
X115105227Y-106424814D01*
X115081939Y-106307736D01*
X115036257Y-106197451D01*
X114969938Y-106098198D01*
X114885529Y-106013789D01*
X114786276Y-105947470D01*
X114675991Y-105901788D01*
X114558913Y-105878500D01*
X114439541Y-105878500D01*
X114322463Y-105901788D01*
X114212178Y-105947470D01*
X114112925Y-106013789D01*
X114028516Y-106098198D01*
X113962197Y-106197451D01*
X113916515Y-106307736D01*
X113893227Y-106424814D01*
X112194481Y-106424814D01*
X112076123Y-106362359D01*
X111540867Y-106203099D01*
X110984826Y-106151322D01*
X110429368Y-106209019D01*
X109895839Y-106373972D01*
X109429976Y-106622982D01*
X109189830Y-107010225D01*
X107406000Y-107010225D01*
X107406000Y-105340316D01*
X118144000Y-105340316D01*
X118144000Y-105459688D01*
X118167288Y-105576766D01*
X118212970Y-105687051D01*
X118279289Y-105786304D01*
X118363698Y-105870713D01*
X118462951Y-105937032D01*
X118573236Y-105982714D01*
X118690314Y-106006002D01*
X118809686Y-106006002D01*
X118926764Y-105982714D01*
X119037049Y-105937032D01*
X119136302Y-105870713D01*
X119153280Y-105853735D01*
X119223236Y-105882712D01*
X119340314Y-105906000D01*
X119459686Y-105906000D01*
X119576764Y-105882712D01*
X119687049Y-105837030D01*
X119756964Y-105790314D01*
X120194000Y-105790314D01*
X120194000Y-105909686D01*
X120217288Y-106026764D01*
X120262970Y-106137049D01*
X120329289Y-106236302D01*
X120413698Y-106320711D01*
X120512951Y-106387030D01*
X120623236Y-106432712D01*
X120740314Y-106456000D01*
X120859686Y-106456000D01*
X120976764Y-106432712D01*
X121087049Y-106387030D01*
X121186302Y-106320711D01*
X121270711Y-106236302D01*
X121337030Y-106137049D01*
X121382712Y-106026764D01*
X121406000Y-105909686D01*
X121406000Y-105790314D01*
X121386621Y-105692888D01*
X137146574Y-105692888D01*
X137146574Y-105812260D01*
X137169862Y-105929338D01*
X137215544Y-106039623D01*
X137281863Y-106138876D01*
X137366272Y-106223285D01*
X137465525Y-106289604D01*
X137575810Y-106335286D01*
X137692888Y-106358574D01*
X137812260Y-106358574D01*
X137929338Y-106335286D01*
X138039623Y-106289604D01*
X138138876Y-106223285D01*
X138223285Y-106138876D01*
X138289604Y-106039623D01*
X138335286Y-105929338D01*
X138358574Y-105812260D01*
X138358574Y-105692888D01*
X138335286Y-105575810D01*
X138289604Y-105465525D01*
X138223285Y-105366272D01*
X138138876Y-105281863D01*
X138039623Y-105215544D01*
X137929338Y-105169862D01*
X137812260Y-105146574D01*
X137692888Y-105146574D01*
X137575810Y-105169862D01*
X137465525Y-105215544D01*
X137366272Y-105281863D01*
X137281863Y-105366272D01*
X137215544Y-105465525D01*
X137169862Y-105575810D01*
X137146574Y-105692888D01*
X121386621Y-105692888D01*
X121382712Y-105673236D01*
X121337030Y-105562951D01*
X121270711Y-105463698D01*
X121186302Y-105379289D01*
X121087049Y-105312970D01*
X120976764Y-105267288D01*
X120859686Y-105244000D01*
X120740314Y-105244000D01*
X120623236Y-105267288D01*
X120512951Y-105312970D01*
X120413698Y-105379289D01*
X120329289Y-105463698D01*
X120262970Y-105562951D01*
X120217288Y-105673236D01*
X120194000Y-105790314D01*
X119756964Y-105790314D01*
X119786302Y-105770711D01*
X119870711Y-105686302D01*
X119937030Y-105587049D01*
X119982712Y-105476764D01*
X120006000Y-105359686D01*
X120006000Y-105240314D01*
X119982712Y-105123236D01*
X119937030Y-105012951D01*
X119870711Y-104913698D01*
X119786302Y-104829289D01*
X119687049Y-104762970D01*
X119576764Y-104717288D01*
X119459686Y-104694000D01*
X119340314Y-104694000D01*
X119223236Y-104717288D01*
X119112951Y-104762970D01*
X119013698Y-104829289D01*
X118996720Y-104846267D01*
X118926764Y-104817290D01*
X118809686Y-104794002D01*
X118690314Y-104794002D01*
X118573236Y-104817290D01*
X118462951Y-104862972D01*
X118363698Y-104929291D01*
X118279289Y-105013700D01*
X118212970Y-105112953D01*
X118167288Y-105223238D01*
X118144000Y-105340316D01*
X107406000Y-105340316D01*
X107406000Y-103390314D01*
X111994000Y-103390314D01*
X111994000Y-103509686D01*
X112017288Y-103626764D01*
X112062970Y-103737049D01*
X112129289Y-103836302D01*
X112213698Y-103920711D01*
X112312951Y-103987030D01*
X112423236Y-104032712D01*
X112540314Y-104056000D01*
X112659686Y-104056000D01*
X112776764Y-104032712D01*
X112887049Y-103987030D01*
X112986302Y-103920711D01*
X113070711Y-103836302D01*
X113137030Y-103737049D01*
X113182712Y-103626764D01*
X113206000Y-103509686D01*
X113206000Y-103390314D01*
X113201028Y-103365314D01*
X129744000Y-103365314D01*
X129744000Y-103484686D01*
X129767288Y-103601764D01*
X129812970Y-103712049D01*
X129879289Y-103811302D01*
X129963698Y-103895711D01*
X130062951Y-103962030D01*
X130173236Y-104007712D01*
X130290314Y-104031000D01*
X130409686Y-104031000D01*
X130526764Y-104007712D01*
X130637049Y-103962030D01*
X130736302Y-103895711D01*
X130820711Y-103811302D01*
X130887030Y-103712049D01*
X130932712Y-103601764D01*
X130956000Y-103484686D01*
X130956000Y-103365314D01*
X130932712Y-103248236D01*
X130887030Y-103137951D01*
X130820711Y-103038698D01*
X130736302Y-102954289D01*
X130637049Y-102887970D01*
X130526764Y-102842288D01*
X130409686Y-102819000D01*
X130290314Y-102819000D01*
X130173236Y-102842288D01*
X130062951Y-102887970D01*
X129963698Y-102954289D01*
X129879289Y-103038698D01*
X129812970Y-103137951D01*
X129767288Y-103248236D01*
X129744000Y-103365314D01*
X113201028Y-103365314D01*
X113182712Y-103273236D01*
X113137030Y-103162951D01*
X113070711Y-103063698D01*
X112986302Y-102979289D01*
X112887049Y-102912970D01*
X112776764Y-102867288D01*
X112659686Y-102844000D01*
X112540314Y-102844000D01*
X112423236Y-102867288D01*
X112312951Y-102912970D01*
X112213698Y-102979289D01*
X112129289Y-103063698D01*
X112062970Y-103162951D01*
X112017288Y-103273236D01*
X111994000Y-103390314D01*
X107406000Y-103390314D01*
X107406000Y-101840314D01*
X114778490Y-101840314D01*
X114778490Y-101959686D01*
X114801778Y-102076764D01*
X114847460Y-102187049D01*
X114913779Y-102286302D01*
X114998188Y-102370711D01*
X115097441Y-102437030D01*
X115207726Y-102482712D01*
X115324804Y-102506000D01*
X115444176Y-102506000D01*
X115561254Y-102482712D01*
X115671539Y-102437030D01*
X115770792Y-102370711D01*
X115855201Y-102286302D01*
X115921520Y-102187049D01*
X115967202Y-102076764D01*
X115990490Y-101959686D01*
X115990490Y-101840314D01*
X115967202Y-101723236D01*
X115921520Y-101612951D01*
X115855201Y-101513698D01*
X115770792Y-101429289D01*
X115671539Y-101362970D01*
X115561254Y-101317288D01*
X115444176Y-101294000D01*
X115324804Y-101294000D01*
X115207726Y-101317288D01*
X115097441Y-101362970D01*
X114998188Y-101429289D01*
X114913779Y-101513698D01*
X114847460Y-101612951D01*
X114801778Y-101723236D01*
X114778490Y-101840314D01*
X107406000Y-101840314D01*
X107406000Y-100490314D01*
X114544000Y-100490314D01*
X114544000Y-100609686D01*
X114567288Y-100726764D01*
X114612970Y-100837049D01*
X114679289Y-100936302D01*
X114763698Y-101020711D01*
X114862951Y-101087030D01*
X114973236Y-101132712D01*
X115090314Y-101156000D01*
X115209686Y-101156000D01*
X115326764Y-101132712D01*
X115437049Y-101087030D01*
X115536302Y-101020711D01*
X115620711Y-100936302D01*
X115687030Y-100837049D01*
X115732712Y-100726764D01*
X115744660Y-100666695D01*
X143795683Y-100666695D01*
X143795940Y-100703491D01*
X143795683Y-100740287D01*
X143796236Y-100745929D01*
X143806436Y-100842977D01*
X143813839Y-100879043D01*
X143820731Y-100915169D01*
X143822369Y-100920596D01*
X143851225Y-101013815D01*
X143865495Y-101047762D01*
X143879271Y-101081858D01*
X143881926Y-101086853D01*
X143881930Y-101086861D01*
X143881935Y-101086868D01*
X143928344Y-101172701D01*
X143948944Y-101203242D01*
X143969070Y-101233997D01*
X143972653Y-101238391D01*
X144034855Y-101313580D01*
X144061005Y-101339548D01*
X144086709Y-101365796D01*
X144091071Y-101369405D01*
X144091079Y-101369413D01*
X144091088Y-101369419D01*
X144166697Y-101431086D01*
X144197360Y-101451459D01*
X144227714Y-101472242D01*
X144232701Y-101474939D01*
X144318861Y-101520751D01*
X144352911Y-101534785D01*
X144386701Y-101549267D01*
X144392116Y-101550944D01*
X144485534Y-101579149D01*
X144521625Y-101586295D01*
X144557628Y-101593948D01*
X144563257Y-101594539D01*
X144563262Y-101594540D01*
X144563266Y-101594540D01*
X144660383Y-101604063D01*
X144660393Y-101604063D01*
X144680059Y-101606000D01*
X151519941Y-101606000D01*
X151540115Y-101604013D01*
X151546597Y-101604013D01*
X151552235Y-101603421D01*
X151649210Y-101592544D01*
X151685210Y-101584892D01*
X151721302Y-101577746D01*
X151726718Y-101576070D01*
X151819733Y-101546563D01*
X151853566Y-101532062D01*
X151887575Y-101518045D01*
X151892558Y-101515351D01*
X151892563Y-101515349D01*
X151892567Y-101515346D01*
X151978075Y-101468338D01*
X152008455Y-101447536D01*
X152039089Y-101427183D01*
X152043457Y-101423570D01*
X152118209Y-101360845D01*
X152143968Y-101334541D01*
X152170063Y-101308627D01*
X152173647Y-101304234D01*
X152234793Y-101228184D01*
X152254949Y-101197382D01*
X152275519Y-101166885D01*
X152278181Y-101161880D01*
X152323391Y-101075400D01*
X152337172Y-101041291D01*
X152351434Y-101007363D01*
X152353073Y-101001936D01*
X152380625Y-100908324D01*
X152387525Y-100872155D01*
X152394920Y-100836129D01*
X152395473Y-100830487D01*
X152404317Y-100733304D01*
X152404060Y-100696509D01*
X152404317Y-100659714D01*
X152403764Y-100654072D01*
X152393564Y-100557023D01*
X152386161Y-100520957D01*
X152379269Y-100484831D01*
X152377631Y-100479404D01*
X152348775Y-100386185D01*
X152334505Y-100352238D01*
X152320729Y-100318142D01*
X152318068Y-100313136D01*
X152271655Y-100227299D01*
X152251078Y-100196793D01*
X152230930Y-100166003D01*
X152227347Y-100161609D01*
X152165145Y-100086420D01*
X152138995Y-100060452D01*
X152113291Y-100034204D01*
X152108929Y-100030595D01*
X152108921Y-100030587D01*
X152108912Y-100030581D01*
X152033302Y-99968914D01*
X152002658Y-99948553D01*
X151972286Y-99927758D01*
X151967299Y-99925061D01*
X151881138Y-99879249D01*
X151847102Y-99865221D01*
X151813299Y-99850733D01*
X151807884Y-99849056D01*
X151714466Y-99820851D01*
X151678345Y-99813699D01*
X151642372Y-99806053D01*
X151636743Y-99805461D01*
X151636738Y-99805460D01*
X151636734Y-99805460D01*
X151539740Y-99795950D01*
X151519941Y-99794000D01*
X144680059Y-99794000D01*
X144659885Y-99795987D01*
X144653403Y-99795987D01*
X144647765Y-99796579D01*
X144550790Y-99807456D01*
X144514790Y-99815108D01*
X144478698Y-99822254D01*
X144473282Y-99823930D01*
X144380267Y-99853436D01*
X144346426Y-99867940D01*
X144312424Y-99881955D01*
X144307437Y-99884651D01*
X144221925Y-99931662D01*
X144191560Y-99952453D01*
X144160911Y-99972817D01*
X144156543Y-99976430D01*
X144081791Y-100039155D01*
X144056032Y-100065459D01*
X144029937Y-100091373D01*
X144026353Y-100095766D01*
X143965207Y-100171816D01*
X143945051Y-100202618D01*
X143924481Y-100233115D01*
X143921819Y-100238120D01*
X143876609Y-100324599D01*
X143862817Y-100358736D01*
X143848566Y-100392638D01*
X143846927Y-100398065D01*
X143819375Y-100491676D01*
X143812476Y-100527838D01*
X143805080Y-100563871D01*
X143804527Y-100569513D01*
X143795683Y-100666695D01*
X115744660Y-100666695D01*
X115756000Y-100609686D01*
X115756000Y-100490314D01*
X115732712Y-100373236D01*
X115687030Y-100262951D01*
X115620711Y-100163698D01*
X115536302Y-100079289D01*
X115437049Y-100012970D01*
X115326764Y-99967288D01*
X115209686Y-99944000D01*
X115090314Y-99944000D01*
X114973236Y-99967288D01*
X114862951Y-100012970D01*
X114763698Y-100079289D01*
X114679289Y-100163698D01*
X114612970Y-100262951D01*
X114567288Y-100373236D01*
X114544000Y-100490314D01*
X107406000Y-100490314D01*
X107406000Y-99023078D01*
X122069000Y-99023078D01*
X122069000Y-99176922D01*
X122099013Y-99327809D01*
X122157887Y-99469942D01*
X122243358Y-99597859D01*
X122352141Y-99706642D01*
X122480058Y-99792113D01*
X122622191Y-99850987D01*
X122773078Y-99881000D01*
X122926922Y-99881000D01*
X123077809Y-99850987D01*
X123219942Y-99792113D01*
X123347859Y-99706642D01*
X123456642Y-99597859D01*
X123542113Y-99469942D01*
X123600000Y-99330192D01*
X123657887Y-99469942D01*
X123743358Y-99597859D01*
X123852141Y-99706642D01*
X123980058Y-99792113D01*
X124122191Y-99850987D01*
X124273078Y-99881000D01*
X124426922Y-99881000D01*
X124577809Y-99850987D01*
X124719942Y-99792113D01*
X124847859Y-99706642D01*
X124956642Y-99597859D01*
X125042113Y-99469942D01*
X125100987Y-99327809D01*
X125131000Y-99176922D01*
X125131000Y-99119940D01*
X142094000Y-99119940D01*
X142095987Y-99140114D01*
X142095987Y-99146597D01*
X142096579Y-99152235D01*
X142107456Y-99249210D01*
X142115108Y-99285210D01*
X142122254Y-99321302D01*
X142123930Y-99326718D01*
X142153437Y-99419733D01*
X142167938Y-99453566D01*
X142181955Y-99487575D01*
X142184649Y-99492558D01*
X142184651Y-99492563D01*
X142184654Y-99492567D01*
X142231662Y-99578075D01*
X142252464Y-99608455D01*
X142272817Y-99639089D01*
X142276430Y-99643457D01*
X142339155Y-99718209D01*
X142365459Y-99743968D01*
X142391373Y-99770063D01*
X142395766Y-99773647D01*
X142471816Y-99834793D01*
X142502618Y-99854949D01*
X142533115Y-99875519D01*
X142538120Y-99878181D01*
X142624600Y-99923391D01*
X142658709Y-99937172D01*
X142692637Y-99951434D01*
X142698064Y-99953073D01*
X142791676Y-99980625D01*
X142827845Y-99987525D01*
X142863871Y-99994920D01*
X142869507Y-99995472D01*
X142869510Y-99995473D01*
X142869513Y-99995473D01*
X142966696Y-100004317D01*
X143003492Y-100004060D01*
X143040287Y-100004317D01*
X143045929Y-100003764D01*
X143045933Y-100003764D01*
X143142977Y-99993564D01*
X143179043Y-99986161D01*
X143215169Y-99979269D01*
X143220596Y-99977631D01*
X143313815Y-99948775D01*
X143347762Y-99934505D01*
X143381858Y-99920729D01*
X143386853Y-99918074D01*
X143386861Y-99918070D01*
X143386868Y-99918065D01*
X143472701Y-99871656D01*
X143503242Y-99851056D01*
X143533997Y-99830930D01*
X143538391Y-99827347D01*
X143613580Y-99765145D01*
X143639548Y-99738995D01*
X143665796Y-99713291D01*
X143669405Y-99708929D01*
X143669413Y-99708921D01*
X143669419Y-99708912D01*
X143731086Y-99633303D01*
X143751459Y-99602640D01*
X143772242Y-99572286D01*
X143774939Y-99567299D01*
X143820751Y-99481139D01*
X143834785Y-99447089D01*
X143849267Y-99413299D01*
X143850944Y-99407884D01*
X143879149Y-99314466D01*
X143886295Y-99278375D01*
X143893948Y-99242372D01*
X143894540Y-99236734D01*
X143904063Y-99139617D01*
X143904063Y-99139607D01*
X143906000Y-99119941D01*
X143906000Y-96551448D01*
X143929289Y-96586302D01*
X144013698Y-96670711D01*
X144112951Y-96737030D01*
X144223236Y-96782712D01*
X144340314Y-96806000D01*
X144459686Y-96806000D01*
X144576764Y-96782712D01*
X144687049Y-96737030D01*
X144786302Y-96670711D01*
X144870711Y-96586302D01*
X144937030Y-96487049D01*
X144982712Y-96376764D01*
X145006000Y-96259686D01*
X145006000Y-96140314D01*
X144982712Y-96023236D01*
X144937030Y-95912951D01*
X144870711Y-95813698D01*
X144786302Y-95729289D01*
X144687049Y-95662970D01*
X144576764Y-95617288D01*
X144459686Y-95594000D01*
X144340314Y-95594000D01*
X144223236Y-95617288D01*
X144112951Y-95662970D01*
X144013698Y-95729289D01*
X143929289Y-95813698D01*
X143906000Y-95848552D01*
X143906000Y-95040314D01*
X148944000Y-95040314D01*
X148944000Y-95159686D01*
X148967288Y-95276764D01*
X149012970Y-95387049D01*
X149079289Y-95486302D01*
X149163698Y-95570711D01*
X149262951Y-95637030D01*
X149373236Y-95682712D01*
X149490314Y-95706000D01*
X149609686Y-95706000D01*
X149726764Y-95682712D01*
X149837049Y-95637030D01*
X149936302Y-95570711D01*
X150020711Y-95486302D01*
X150087030Y-95387049D01*
X150132712Y-95276764D01*
X150156000Y-95159686D01*
X150156000Y-95040314D01*
X150132712Y-94923236D01*
X150087030Y-94812951D01*
X150020711Y-94713698D01*
X149936302Y-94629289D01*
X149837049Y-94562970D01*
X149726764Y-94517288D01*
X149609686Y-94494000D01*
X149490314Y-94494000D01*
X149373236Y-94517288D01*
X149262951Y-94562970D01*
X149163698Y-94629289D01*
X149079289Y-94713698D01*
X149012970Y-94812951D01*
X148967288Y-94923236D01*
X148944000Y-95040314D01*
X143906000Y-95040314D01*
X143906000Y-92980059D01*
X143904013Y-92959885D01*
X143904013Y-92953403D01*
X143903421Y-92947765D01*
X143892544Y-92850790D01*
X143884892Y-92814790D01*
X143877746Y-92778698D01*
X143876070Y-92773282D01*
X143846564Y-92680267D01*
X143832060Y-92646426D01*
X143818045Y-92612424D01*
X143815349Y-92607437D01*
X143768338Y-92521925D01*
X143747547Y-92491560D01*
X143727183Y-92460911D01*
X143723570Y-92456543D01*
X143660845Y-92381791D01*
X143634541Y-92356032D01*
X143608627Y-92329937D01*
X143604234Y-92326353D01*
X143528184Y-92265207D01*
X143497382Y-92245051D01*
X143466885Y-92224481D01*
X143461880Y-92221819D01*
X143375401Y-92176609D01*
X143341264Y-92162817D01*
X143307362Y-92148566D01*
X143301935Y-92146927D01*
X143301933Y-92146926D01*
X143301929Y-92146925D01*
X143208324Y-92119375D01*
X143172162Y-92112476D01*
X143136129Y-92105080D01*
X143130493Y-92104528D01*
X143130490Y-92104527D01*
X143130487Y-92104527D01*
X143033305Y-92095683D01*
X142996509Y-92095940D01*
X142959714Y-92095683D01*
X142954072Y-92096236D01*
X142954068Y-92096236D01*
X142857023Y-92106436D01*
X142820957Y-92113839D01*
X142784831Y-92120731D01*
X142779404Y-92122369D01*
X142686185Y-92151225D01*
X142652238Y-92165495D01*
X142618142Y-92179271D01*
X142613143Y-92181928D01*
X142613139Y-92181930D01*
X142613136Y-92181932D01*
X142527299Y-92228345D01*
X142496793Y-92248922D01*
X142466003Y-92269070D01*
X142461609Y-92272653D01*
X142386420Y-92334855D01*
X142360452Y-92361005D01*
X142334204Y-92386709D01*
X142330595Y-92391071D01*
X142330587Y-92391079D01*
X142330581Y-92391088D01*
X142268914Y-92466698D01*
X142248553Y-92497342D01*
X142227758Y-92527714D01*
X142225061Y-92532701D01*
X142179249Y-92618862D01*
X142165221Y-92652898D01*
X142150733Y-92686701D01*
X142149056Y-92692116D01*
X142120851Y-92785534D01*
X142113699Y-92821655D01*
X142106053Y-92857628D01*
X142105460Y-92863266D01*
X142095938Y-92960383D01*
X142095938Y-92960393D01*
X142094001Y-92980059D01*
X142094000Y-99119940D01*
X125131000Y-99119940D01*
X125131000Y-99023078D01*
X125100987Y-98872191D01*
X125042113Y-98730058D01*
X124956642Y-98602141D01*
X124847859Y-98493358D01*
X124719942Y-98407887D01*
X124577809Y-98349013D01*
X124426922Y-98319000D01*
X124273078Y-98319000D01*
X124122191Y-98349013D01*
X123980058Y-98407887D01*
X123852141Y-98493358D01*
X123743358Y-98602141D01*
X123657887Y-98730058D01*
X123600000Y-98869808D01*
X123542113Y-98730058D01*
X123456642Y-98602141D01*
X123347859Y-98493358D01*
X123219942Y-98407887D01*
X123077809Y-98349013D01*
X122926922Y-98319000D01*
X122773078Y-98319000D01*
X122622191Y-98349013D01*
X122480058Y-98407887D01*
X122352141Y-98493358D01*
X122243358Y-98602141D01*
X122157887Y-98730058D01*
X122099013Y-98872191D01*
X122069000Y-99023078D01*
X107406000Y-99023078D01*
X107406000Y-97824586D01*
X123800756Y-97726998D01*
X123824776Y-97724560D01*
X123848601Y-97717333D01*
X123870557Y-97705597D01*
X123889803Y-97689803D01*
X123905597Y-97670557D01*
X123917333Y-97648601D01*
X123924560Y-97624776D01*
X123927000Y-97600000D01*
X123927000Y-97340314D01*
X128594000Y-97340314D01*
X128594000Y-97459686D01*
X128617288Y-97576764D01*
X128662970Y-97687049D01*
X128729289Y-97786302D01*
X128813698Y-97870711D01*
X128912951Y-97937030D01*
X129023236Y-97982712D01*
X129140314Y-98006000D01*
X129259686Y-98006000D01*
X129376764Y-97982712D01*
X129487049Y-97937030D01*
X129586302Y-97870711D01*
X129670711Y-97786302D01*
X129737030Y-97687049D01*
X129782712Y-97576764D01*
X129806000Y-97459686D01*
X129806000Y-97340314D01*
X129782712Y-97223236D01*
X129737030Y-97112951D01*
X129670711Y-97013698D01*
X129586302Y-96929289D01*
X129487049Y-96862970D01*
X129376764Y-96817288D01*
X129259686Y-96794000D01*
X129140314Y-96794000D01*
X129023236Y-96817288D01*
X128912951Y-96862970D01*
X128813698Y-96929289D01*
X128729289Y-97013698D01*
X128662970Y-97112951D01*
X128617288Y-97223236D01*
X128594000Y-97340314D01*
X123927000Y-97340314D01*
X123927000Y-95640314D01*
X128294000Y-95640314D01*
X128294000Y-95759686D01*
X128317288Y-95876764D01*
X128362970Y-95987049D01*
X128429289Y-96086302D01*
X128513698Y-96170711D01*
X128612951Y-96237030D01*
X128723236Y-96282712D01*
X128840314Y-96306000D01*
X128959686Y-96306000D01*
X129076764Y-96282712D01*
X129187049Y-96237030D01*
X129286302Y-96170711D01*
X129370711Y-96086302D01*
X129437030Y-95987049D01*
X129456388Y-95940314D01*
X136294000Y-95940314D01*
X136294000Y-96059686D01*
X136317288Y-96176764D01*
X136362970Y-96287049D01*
X136429289Y-96386302D01*
X136513698Y-96470711D01*
X136612951Y-96537030D01*
X136723236Y-96582712D01*
X136840314Y-96606000D01*
X136959686Y-96606000D01*
X137076764Y-96582712D01*
X137187049Y-96537030D01*
X137286302Y-96470711D01*
X137370711Y-96386302D01*
X137437030Y-96287049D01*
X137482712Y-96176764D01*
X137506000Y-96059686D01*
X137506000Y-95940314D01*
X137482712Y-95823236D01*
X137437030Y-95712951D01*
X137370711Y-95613698D01*
X137286302Y-95529289D01*
X137187049Y-95462970D01*
X137076764Y-95417288D01*
X136959686Y-95394000D01*
X136840314Y-95394000D01*
X136723236Y-95417288D01*
X136612951Y-95462970D01*
X136513698Y-95529289D01*
X136429289Y-95613698D01*
X136362970Y-95712951D01*
X136317288Y-95823236D01*
X136294000Y-95940314D01*
X129456388Y-95940314D01*
X129482712Y-95876764D01*
X129506000Y-95759686D01*
X129506000Y-95640314D01*
X129482712Y-95523236D01*
X129437030Y-95412951D01*
X129370711Y-95313698D01*
X129286302Y-95229289D01*
X129187049Y-95162970D01*
X129076764Y-95117288D01*
X128959686Y-95094000D01*
X128840314Y-95094000D01*
X128723236Y-95117288D01*
X128612951Y-95162970D01*
X128513698Y-95229289D01*
X128429289Y-95313698D01*
X128362970Y-95412951D01*
X128317288Y-95523236D01*
X128294000Y-95640314D01*
X123927000Y-95640314D01*
X123927000Y-91906000D01*
X149980146Y-91906000D01*
X150503463Y-91957312D01*
%TA.AperFunction,Conductor*%
D18*
G36*
X150503463Y-91957312D02*
G01*
X150987756Y-92103529D01*
X151434422Y-92341025D01*
X151826450Y-92660755D01*
X152148907Y-93050539D01*
X152389518Y-93495540D01*
X152539111Y-93978796D01*
X152594000Y-94501029D01*
X152594001Y-123480136D01*
X152542688Y-124003464D01*
X152396472Y-124487756D01*
X152158975Y-124934422D01*
X151839245Y-125326450D01*
X151449458Y-125648910D01*
X151004460Y-125889518D01*
X150521205Y-126039111D01*
X149998971Y-126094000D01*
X146592943Y-126094000D01*
X146686896Y-126016896D01*
X146790116Y-125891121D01*
X146866816Y-125747626D01*
X146914048Y-125591924D01*
X146926000Y-125470572D01*
X146926000Y-124729428D01*
X146914048Y-124608076D01*
X146866816Y-124452374D01*
X146790116Y-124308879D01*
X146686896Y-124183104D01*
X146561121Y-124079884D01*
X146417626Y-124003184D01*
X146261924Y-123955952D01*
X146100000Y-123940004D01*
X145938077Y-123955952D01*
X145782375Y-124003184D01*
X145638880Y-124079884D01*
X145513105Y-124183104D01*
X145409885Y-124308879D01*
X145333185Y-124452374D01*
X145285952Y-124608076D01*
X145274000Y-124729428D01*
X145274000Y-125470571D01*
X145285952Y-125591923D01*
X145333184Y-125747625D01*
X145409884Y-125891120D01*
X145513104Y-126016896D01*
X145607056Y-126094000D01*
X139592943Y-126094000D01*
X139686896Y-126016896D01*
X139790116Y-125891121D01*
X139866816Y-125747626D01*
X139914048Y-125591924D01*
X139926000Y-125470572D01*
X139926000Y-124729428D01*
X139914048Y-124608076D01*
X139866816Y-124452374D01*
X139790116Y-124308879D01*
X139686896Y-124183104D01*
X139561121Y-124079884D01*
X139417626Y-124003184D01*
X139261924Y-123955952D01*
X139100000Y-123940004D01*
X138938077Y-123955952D01*
X138782375Y-124003184D01*
X138638880Y-124079884D01*
X138513105Y-124183104D01*
X138409885Y-124308879D01*
X138333185Y-124452374D01*
X138285952Y-124608076D01*
X138274000Y-124729428D01*
X138274000Y-125470571D01*
X138285952Y-125591923D01*
X138333184Y-125747625D01*
X138409884Y-125891120D01*
X138513104Y-126016896D01*
X138607056Y-126094000D01*
X110019854Y-126094000D01*
X109496536Y-126042688D01*
X109012244Y-125896472D01*
X108565578Y-125658975D01*
X108173550Y-125339245D01*
X107851090Y-124949458D01*
X107610482Y-124504460D01*
X107460889Y-124021205D01*
X107406000Y-123498971D01*
X107406000Y-122640314D01*
X121144000Y-122640314D01*
X121144000Y-122759686D01*
X121167288Y-122876764D01*
X121212970Y-122987049D01*
X121279289Y-123086302D01*
X121363698Y-123170711D01*
X121462951Y-123237030D01*
X121573236Y-123282712D01*
X121690314Y-123306000D01*
X121809686Y-123306000D01*
X121926764Y-123282712D01*
X122037049Y-123237030D01*
X122136302Y-123170711D01*
X122220711Y-123086302D01*
X122287030Y-122987049D01*
X122332712Y-122876764D01*
X122356000Y-122759686D01*
X122356000Y-122640314D01*
X122332712Y-122523236D01*
X122287030Y-122412951D01*
X122278377Y-122400000D01*
X139089859Y-122400000D01*
X139106386Y-122567805D01*
X139155333Y-122729162D01*
X139234819Y-122877869D01*
X139341788Y-123008212D01*
X139472131Y-123115181D01*
X139620838Y-123194667D01*
X139782195Y-123243614D01*
X139907955Y-123256000D01*
X140292045Y-123256000D01*
X140417805Y-123243614D01*
X140579162Y-123194667D01*
X140727869Y-123115181D01*
X140858212Y-123008212D01*
X140965181Y-122877869D01*
X141044667Y-122729162D01*
X141093614Y-122567805D01*
X141110141Y-122400000D01*
X144089859Y-122400000D01*
X144106386Y-122567805D01*
X144155333Y-122729162D01*
X144234819Y-122877869D01*
X144341788Y-123008212D01*
X144472131Y-123115181D01*
X144620838Y-123194667D01*
X144782195Y-123243614D01*
X144907955Y-123256000D01*
X145292045Y-123256000D01*
X145417805Y-123243614D01*
X145579162Y-123194667D01*
X145727869Y-123115181D01*
X145858212Y-123008212D01*
X145965181Y-122877869D01*
X146044667Y-122729162D01*
X146093614Y-122567805D01*
X146110141Y-122400000D01*
X146093614Y-122232195D01*
X146044667Y-122070838D01*
X145965181Y-121922131D01*
X145858212Y-121791788D01*
X145727869Y-121684819D01*
X145579162Y-121605333D01*
X145417805Y-121556386D01*
X145292045Y-121544000D01*
X144907955Y-121544000D01*
X144782195Y-121556386D01*
X144620838Y-121605333D01*
X144472131Y-121684819D01*
X144341788Y-121791788D01*
X144234819Y-121922131D01*
X144155333Y-122070838D01*
X144106386Y-122232195D01*
X144089859Y-122400000D01*
X141110141Y-122400000D01*
X141093614Y-122232195D01*
X141044667Y-122070838D01*
X140965181Y-121922131D01*
X140858212Y-121791788D01*
X140727869Y-121684819D01*
X140579162Y-121605333D01*
X140417805Y-121556386D01*
X140292045Y-121544000D01*
X139907955Y-121544000D01*
X139782195Y-121556386D01*
X139620838Y-121605333D01*
X139472131Y-121684819D01*
X139341788Y-121791788D01*
X139234819Y-121922131D01*
X139155333Y-122070838D01*
X139106386Y-122232195D01*
X139089859Y-122400000D01*
X122278377Y-122400000D01*
X122220711Y-122313698D01*
X122136302Y-122229289D01*
X122037049Y-122162970D01*
X121926764Y-122117288D01*
X121809686Y-122094000D01*
X121690314Y-122094000D01*
X121573236Y-122117288D01*
X121462951Y-122162970D01*
X121363698Y-122229289D01*
X121279289Y-122313698D01*
X121212970Y-122412951D01*
X121167288Y-122523236D01*
X121144000Y-122640314D01*
X107406000Y-122640314D01*
X107406000Y-121040314D01*
X111794000Y-121040314D01*
X111794000Y-121159686D01*
X111817288Y-121276764D01*
X111862970Y-121387049D01*
X111929289Y-121486302D01*
X112013698Y-121570711D01*
X112112951Y-121637030D01*
X112223236Y-121682712D01*
X112340314Y-121706000D01*
X112459686Y-121706000D01*
X112576764Y-121682712D01*
X112687049Y-121637030D01*
X112786302Y-121570711D01*
X112870711Y-121486302D01*
X112937030Y-121387049D01*
X112982712Y-121276764D01*
X113006000Y-121159686D01*
X113006000Y-121040314D01*
X112982712Y-120923236D01*
X112937030Y-120812951D01*
X112870711Y-120713698D01*
X112786302Y-120629289D01*
X112687049Y-120562970D01*
X112576764Y-120517288D01*
X112459686Y-120494000D01*
X112340314Y-120494000D01*
X112223236Y-120517288D01*
X112112951Y-120562970D01*
X112013698Y-120629289D01*
X111929289Y-120713698D01*
X111862970Y-120812951D01*
X111817288Y-120923236D01*
X111794000Y-121040314D01*
X107406000Y-121040314D01*
X107406000Y-119240314D01*
X110794000Y-119240314D01*
X110794000Y-119359686D01*
X110817288Y-119476764D01*
X110862970Y-119587049D01*
X110929289Y-119686302D01*
X111013698Y-119770711D01*
X111112951Y-119837030D01*
X111223236Y-119882712D01*
X111340314Y-119906000D01*
X111459686Y-119906000D01*
X111576764Y-119882712D01*
X111687049Y-119837030D01*
X111786302Y-119770711D01*
X111870711Y-119686302D01*
X111937030Y-119587049D01*
X111982712Y-119476764D01*
X112006000Y-119359686D01*
X112006000Y-119240314D01*
X111982712Y-119123236D01*
X111937030Y-119012951D01*
X111870711Y-118913698D01*
X111786302Y-118829289D01*
X111687049Y-118762970D01*
X111576764Y-118717288D01*
X111459686Y-118694000D01*
X111340314Y-118694000D01*
X111223236Y-118717288D01*
X111112951Y-118762970D01*
X111013698Y-118829289D01*
X110929289Y-118913698D01*
X110862970Y-119012951D01*
X110817288Y-119123236D01*
X110794000Y-119240314D01*
X107406000Y-119240314D01*
X107406000Y-118040314D01*
X122294000Y-118040314D01*
X122294000Y-118159686D01*
X122317288Y-118276764D01*
X122362970Y-118387049D01*
X122429289Y-118486302D01*
X122513698Y-118570711D01*
X122612951Y-118637030D01*
X122723236Y-118682712D01*
X122840314Y-118706000D01*
X122959686Y-118706000D01*
X123076764Y-118682712D01*
X123187049Y-118637030D01*
X123286302Y-118570711D01*
X123370711Y-118486302D01*
X123437030Y-118387049D01*
X123482712Y-118276764D01*
X123506000Y-118159686D01*
X123506000Y-118040314D01*
X123482712Y-117923236D01*
X123437030Y-117812951D01*
X123370711Y-117713698D01*
X123286302Y-117629289D01*
X123187049Y-117562970D01*
X123076764Y-117517288D01*
X122959686Y-117494000D01*
X122840314Y-117494000D01*
X122723236Y-117517288D01*
X122612951Y-117562970D01*
X122513698Y-117629289D01*
X122429289Y-117713698D01*
X122362970Y-117812951D01*
X122317288Y-117923236D01*
X122294000Y-118040314D01*
X107406000Y-118040314D01*
X107406000Y-115940314D01*
X114294000Y-115940314D01*
X114294000Y-116059686D01*
X114317288Y-116176764D01*
X114362970Y-116287049D01*
X114429289Y-116386302D01*
X114513698Y-116470711D01*
X114612951Y-116537030D01*
X114723236Y-116582712D01*
X114840314Y-116606000D01*
X114959686Y-116606000D01*
X115076764Y-116582712D01*
X115187049Y-116537030D01*
X115286302Y-116470711D01*
X115316699Y-116440314D01*
X135294000Y-116440314D01*
X135294000Y-116559686D01*
X135317288Y-116676764D01*
X135362970Y-116787049D01*
X135405033Y-116850000D01*
X135362970Y-116912951D01*
X135317288Y-117023236D01*
X135294000Y-117140314D01*
X135294000Y-117259686D01*
X135317288Y-117376764D01*
X135362970Y-117487049D01*
X135429289Y-117586302D01*
X135513698Y-117670711D01*
X135612951Y-117737030D01*
X135723236Y-117782712D01*
X135840314Y-117806000D01*
X135959686Y-117806000D01*
X136076764Y-117782712D01*
X136179120Y-117740314D01*
X139594000Y-117740314D01*
X139594000Y-117859686D01*
X139617288Y-117976764D01*
X139662970Y-118087049D01*
X139729289Y-118186302D01*
X139813698Y-118270711D01*
X139912951Y-118337030D01*
X140023236Y-118382712D01*
X140140314Y-118406000D01*
X140259686Y-118406000D01*
X140376764Y-118382712D01*
X140487049Y-118337030D01*
X140586302Y-118270711D01*
X140670711Y-118186302D01*
X140737030Y-118087049D01*
X140782712Y-117976764D01*
X140806000Y-117859686D01*
X140806000Y-117740314D01*
X144294000Y-117740314D01*
X144294000Y-117859686D01*
X144317288Y-117976764D01*
X144362970Y-118087049D01*
X144429289Y-118186302D01*
X144513698Y-118270711D01*
X144612951Y-118337030D01*
X144723236Y-118382712D01*
X144840314Y-118406000D01*
X144959686Y-118406000D01*
X145076764Y-118382712D01*
X145187049Y-118337030D01*
X145286302Y-118270711D01*
X145370711Y-118186302D01*
X145437030Y-118087049D01*
X145482712Y-117976764D01*
X145506000Y-117859686D01*
X145506000Y-117740314D01*
X145482712Y-117623236D01*
X145437030Y-117512951D01*
X145370711Y-117413698D01*
X145286302Y-117329289D01*
X145187049Y-117262970D01*
X145076764Y-117217288D01*
X144959686Y-117194000D01*
X144840314Y-117194000D01*
X144723236Y-117217288D01*
X144612951Y-117262970D01*
X144513698Y-117329289D01*
X144429289Y-117413698D01*
X144362970Y-117512951D01*
X144317288Y-117623236D01*
X144294000Y-117740314D01*
X140806000Y-117740314D01*
X140782712Y-117623236D01*
X140737030Y-117512951D01*
X140670711Y-117413698D01*
X140586302Y-117329289D01*
X140487049Y-117262970D01*
X140376764Y-117217288D01*
X140259686Y-117194000D01*
X140140314Y-117194000D01*
X140023236Y-117217288D01*
X139912951Y-117262970D01*
X139813698Y-117329289D01*
X139729289Y-117413698D01*
X139662970Y-117512951D01*
X139617288Y-117623236D01*
X139594000Y-117740314D01*
X136179120Y-117740314D01*
X136187049Y-117737030D01*
X136286302Y-117670711D01*
X136370711Y-117586302D01*
X136437030Y-117487049D01*
X136482712Y-117376764D01*
X136506000Y-117259686D01*
X136506000Y-117140314D01*
X136482712Y-117023236D01*
X136437030Y-116912951D01*
X136394967Y-116850000D01*
X136437030Y-116787049D01*
X136482712Y-116676764D01*
X136506000Y-116559686D01*
X136506000Y-116440314D01*
X136482712Y-116323236D01*
X136448365Y-116240314D01*
X141894000Y-116240314D01*
X141894000Y-116359686D01*
X141917288Y-116476764D01*
X141962970Y-116587049D01*
X142029289Y-116686302D01*
X142113698Y-116770711D01*
X142212951Y-116837030D01*
X142323236Y-116882712D01*
X142440314Y-116906000D01*
X142559686Y-116906000D01*
X142676764Y-116882712D01*
X142787049Y-116837030D01*
X142886302Y-116770711D01*
X142970711Y-116686302D01*
X143037030Y-116587049D01*
X143082712Y-116476764D01*
X143106000Y-116359686D01*
X143106000Y-116240314D01*
X143082712Y-116123236D01*
X143048365Y-116040314D01*
X149594000Y-116040314D01*
X149594000Y-116159686D01*
X149617288Y-116276764D01*
X149662970Y-116387049D01*
X149729289Y-116486302D01*
X149813698Y-116570711D01*
X149912951Y-116637030D01*
X150023236Y-116682712D01*
X150140314Y-116706000D01*
X150259686Y-116706000D01*
X150376764Y-116682712D01*
X150487049Y-116637030D01*
X150586302Y-116570711D01*
X150670711Y-116486302D01*
X150737030Y-116387049D01*
X150782712Y-116276764D01*
X150806000Y-116159686D01*
X150806000Y-116040314D01*
X150782712Y-115923236D01*
X150737030Y-115812951D01*
X150670711Y-115713698D01*
X150586302Y-115629289D01*
X150487049Y-115562970D01*
X150376764Y-115517288D01*
X150259686Y-115494000D01*
X150140314Y-115494000D01*
X150023236Y-115517288D01*
X149912951Y-115562970D01*
X149813698Y-115629289D01*
X149729289Y-115713698D01*
X149662970Y-115812951D01*
X149617288Y-115923236D01*
X149594000Y-116040314D01*
X143048365Y-116040314D01*
X143037030Y-116012951D01*
X142970711Y-115913698D01*
X142886302Y-115829289D01*
X142787049Y-115762970D01*
X142676764Y-115717288D01*
X142559686Y-115694000D01*
X142440314Y-115694000D01*
X142323236Y-115717288D01*
X142212951Y-115762970D01*
X142113698Y-115829289D01*
X142029289Y-115913698D01*
X141962970Y-116012951D01*
X141917288Y-116123236D01*
X141894000Y-116240314D01*
X136448365Y-116240314D01*
X136437030Y-116212951D01*
X136370711Y-116113698D01*
X136286302Y-116029289D01*
X136187049Y-115962970D01*
X136076764Y-115917288D01*
X135959686Y-115894000D01*
X135840314Y-115894000D01*
X135723236Y-115917288D01*
X135612951Y-115962970D01*
X135513698Y-116029289D01*
X135429289Y-116113698D01*
X135362970Y-116212951D01*
X135317288Y-116323236D01*
X135294000Y-116440314D01*
X115316699Y-116440314D01*
X115370711Y-116386302D01*
X115437030Y-116287049D01*
X115482712Y-116176764D01*
X115506000Y-116059686D01*
X115506000Y-115940314D01*
X115482712Y-115823236D01*
X115437030Y-115712951D01*
X115402717Y-115661599D01*
X115452530Y-115587049D01*
X115498212Y-115476764D01*
X115521500Y-115359686D01*
X115521500Y-115240314D01*
X115508690Y-115175912D01*
X115602559Y-115137030D01*
X115701812Y-115070711D01*
X115786221Y-114986302D01*
X115852540Y-114887049D01*
X115871898Y-114840314D01*
X119494000Y-114840314D01*
X119494000Y-114959686D01*
X119517288Y-115076764D01*
X119562970Y-115187049D01*
X119629289Y-115286302D01*
X119713698Y-115370711D01*
X119812951Y-115437030D01*
X119923236Y-115482712D01*
X120040314Y-115506000D01*
X120159686Y-115506000D01*
X120276764Y-115482712D01*
X120387049Y-115437030D01*
X120486302Y-115370711D01*
X120570711Y-115286302D01*
X120637030Y-115187049D01*
X120682712Y-115076764D01*
X120706000Y-114959686D01*
X120706000Y-114840314D01*
X120682712Y-114723236D01*
X120637030Y-114612951D01*
X120570711Y-114513698D01*
X120486302Y-114429289D01*
X120387049Y-114362970D01*
X120276764Y-114317288D01*
X120159686Y-114294000D01*
X120040314Y-114294000D01*
X119923236Y-114317288D01*
X119812951Y-114362970D01*
X119713698Y-114429289D01*
X119629289Y-114513698D01*
X119562970Y-114612951D01*
X119517288Y-114723236D01*
X119494000Y-114840314D01*
X115871898Y-114840314D01*
X115898222Y-114776764D01*
X115921510Y-114659686D01*
X115921510Y-114540314D01*
X115898222Y-114423236D01*
X115852540Y-114312951D01*
X115786221Y-114213698D01*
X115701812Y-114129289D01*
X115602559Y-114062970D01*
X115492274Y-114017288D01*
X115375196Y-113994000D01*
X115255824Y-113994000D01*
X115138746Y-114017288D01*
X115028461Y-114062970D01*
X114929208Y-114129289D01*
X114844799Y-114213698D01*
X114778480Y-114312951D01*
X114732798Y-114423236D01*
X114709510Y-114540314D01*
X114709510Y-114659686D01*
X114722320Y-114724088D01*
X114628451Y-114762970D01*
X114529198Y-114829289D01*
X114444789Y-114913698D01*
X114378470Y-115012951D01*
X114332788Y-115123236D01*
X114309500Y-115240314D01*
X114309500Y-115359686D01*
X114332788Y-115476764D01*
X114378470Y-115587049D01*
X114412783Y-115638401D01*
X114362970Y-115712951D01*
X114317288Y-115823236D01*
X114294000Y-115940314D01*
X107406000Y-115940314D01*
X107406000Y-113070183D01*
X122395695Y-113070183D01*
X122395952Y-113106981D01*
X122395695Y-113143779D01*
X122396248Y-113149421D01*
X122416649Y-113343518D01*
X122424056Y-113379604D01*
X122430944Y-113415708D01*
X122432582Y-113421135D01*
X122490294Y-113607573D01*
X122504555Y-113641500D01*
X122518338Y-113675613D01*
X122520999Y-113680619D01*
X122613824Y-113852296D01*
X122634414Y-113882821D01*
X122654551Y-113913594D01*
X122658134Y-113917988D01*
X122782538Y-114068365D01*
X122808670Y-114094316D01*
X122834394Y-114120584D01*
X122838756Y-114124193D01*
X122838762Y-114124199D01*
X122838769Y-114124203D01*
X122990004Y-114247548D01*
X123020684Y-114267932D01*
X123051016Y-114288701D01*
X123055998Y-114291395D01*
X123056002Y-114291398D01*
X123056006Y-114291400D01*
X123228325Y-114383023D01*
X123262348Y-114397046D01*
X123296168Y-114411541D01*
X123301583Y-114413218D01*
X123488420Y-114469627D01*
X123524575Y-114476786D01*
X123560509Y-114484424D01*
X123566138Y-114485016D01*
X123566148Y-114485018D01*
X123566157Y-114485018D01*
X123760380Y-114504062D01*
X123760382Y-114504062D01*
X123780059Y-114506000D01*
X137119941Y-114506000D01*
X137140602Y-114503965D01*
X137153580Y-114503965D01*
X137159218Y-114503373D01*
X137353168Y-114481618D01*
X137389205Y-114473958D01*
X137425260Y-114466819D01*
X137430670Y-114465145D01*
X137430674Y-114465144D01*
X137430677Y-114465143D01*
X137616706Y-114406130D01*
X137650557Y-114391621D01*
X137684547Y-114377611D01*
X137689530Y-114374917D01*
X137689535Y-114374915D01*
X137689539Y-114374912D01*
X137860560Y-114280893D01*
X137890931Y-114260098D01*
X137920707Y-114240314D01*
X148794000Y-114240314D01*
X148794000Y-114359686D01*
X148817288Y-114476764D01*
X148862970Y-114587049D01*
X148929289Y-114686302D01*
X149013698Y-114770711D01*
X149112951Y-114837030D01*
X149223236Y-114882712D01*
X149340314Y-114906000D01*
X149459686Y-114906000D01*
X149576764Y-114882712D01*
X149687049Y-114837030D01*
X149786302Y-114770711D01*
X149870711Y-114686302D01*
X149937030Y-114587049D01*
X149982712Y-114476764D01*
X150006000Y-114359686D01*
X150006000Y-114240314D01*
X149982712Y-114123236D01*
X149937030Y-114012951D01*
X149870711Y-113913698D01*
X149786302Y-113829289D01*
X149687049Y-113762970D01*
X149576764Y-113717288D01*
X149459686Y-113694000D01*
X149340314Y-113694000D01*
X149223236Y-113717288D01*
X149112951Y-113762970D01*
X149013698Y-113829289D01*
X148929289Y-113913698D01*
X148862970Y-114012951D01*
X148817288Y-114123236D01*
X148794000Y-114240314D01*
X137920707Y-114240314D01*
X137921570Y-114239741D01*
X137925933Y-114236131D01*
X137925939Y-114236127D01*
X137925944Y-114236122D01*
X138075444Y-114110677D01*
X138101204Y-114084373D01*
X138127301Y-114058456D01*
X138130880Y-114054069D01*
X138130884Y-114054065D01*
X138130887Y-114054061D01*
X138253176Y-113901964D01*
X138273342Y-113871147D01*
X138293900Y-113840668D01*
X138296562Y-113835662D01*
X138386982Y-113662707D01*
X138400776Y-113628566D01*
X138415027Y-113594664D01*
X138416666Y-113589236D01*
X138471769Y-113402011D01*
X138478668Y-113365846D01*
X138486062Y-113329821D01*
X138486616Y-113324179D01*
X138504305Y-113129817D01*
X138504048Y-113093019D01*
X138504305Y-113056221D01*
X138503752Y-113050579D01*
X138492163Y-112940314D01*
X141894000Y-112940314D01*
X141894000Y-113059686D01*
X141917288Y-113176764D01*
X141962970Y-113287049D01*
X142029289Y-113386302D01*
X142113698Y-113470711D01*
X142212951Y-113537030D01*
X142323236Y-113582712D01*
X142440314Y-113606000D01*
X142559686Y-113606000D01*
X142676764Y-113582712D01*
X142787049Y-113537030D01*
X142886302Y-113470711D01*
X142970711Y-113386302D01*
X143037030Y-113287049D01*
X143082712Y-113176764D01*
X143106000Y-113059686D01*
X143106000Y-112940314D01*
X143082712Y-112823236D01*
X143037030Y-112712951D01*
X142970711Y-112613698D01*
X142886302Y-112529289D01*
X142787049Y-112462970D01*
X142676764Y-112417288D01*
X142559686Y-112394000D01*
X142440314Y-112394000D01*
X142323236Y-112417288D01*
X142212951Y-112462970D01*
X142113698Y-112529289D01*
X142029289Y-112613698D01*
X141962970Y-112712951D01*
X141917288Y-112823236D01*
X141894000Y-112940314D01*
X138492163Y-112940314D01*
X138483351Y-112856482D01*
X138475944Y-112820396D01*
X138469056Y-112784292D01*
X138467418Y-112778865D01*
X138409706Y-112592427D01*
X138395445Y-112558500D01*
X138381662Y-112524387D01*
X138379001Y-112519381D01*
X138286176Y-112347704D01*
X138265558Y-112317137D01*
X138245448Y-112286406D01*
X138241866Y-112282012D01*
X138117462Y-112131634D01*
X138091311Y-112105664D01*
X138065606Y-112079416D01*
X138061244Y-112075807D01*
X138061238Y-112075801D01*
X138061231Y-112075797D01*
X137909996Y-111952452D01*
X137879331Y-111932078D01*
X137848984Y-111911299D01*
X137844002Y-111908605D01*
X137843998Y-111908602D01*
X137843994Y-111908600D01*
X137671675Y-111816977D01*
X137637640Y-111802949D01*
X137603832Y-111788459D01*
X137598417Y-111786782D01*
X137411581Y-111730373D01*
X137375411Y-111723211D01*
X137339491Y-111715576D01*
X137333864Y-111714984D01*
X137333853Y-111714982D01*
X137333843Y-111714982D01*
X137139619Y-111695938D01*
X137139618Y-111695938D01*
X137119941Y-111694000D01*
X123780059Y-111694000D01*
X123759398Y-111696035D01*
X123746419Y-111696035D01*
X123740781Y-111696627D01*
X123546832Y-111718382D01*
X123510795Y-111726042D01*
X123474740Y-111733181D01*
X123469330Y-111734855D01*
X123469326Y-111734856D01*
X123469323Y-111734857D01*
X123469324Y-111734857D01*
X123283294Y-111793870D01*
X123249443Y-111808379D01*
X123215453Y-111822389D01*
X123210470Y-111825083D01*
X123210465Y-111825085D01*
X123210461Y-111825088D01*
X123039441Y-111919107D01*
X123009087Y-111939890D01*
X122978430Y-111960259D01*
X122974062Y-111963872D01*
X122824556Y-112089323D01*
X122798815Y-112115608D01*
X122772698Y-112141544D01*
X122769120Y-112145931D01*
X122769116Y-112145935D01*
X122769115Y-112145937D01*
X122646824Y-112298037D01*
X122626658Y-112328853D01*
X122606100Y-112359333D01*
X122603438Y-112364338D01*
X122513018Y-112537294D01*
X122499229Y-112571423D01*
X122484973Y-112605337D01*
X122483334Y-112610764D01*
X122428231Y-112797990D01*
X122421333Y-112834154D01*
X122413938Y-112870179D01*
X122413384Y-112875821D01*
X122395695Y-113070183D01*
X107406000Y-113070183D01*
X107406000Y-110989775D01*
X109189830Y-110989775D01*
X109429976Y-111377018D01*
X109923877Y-111637641D01*
X110459133Y-111796901D01*
X111015174Y-111848678D01*
X111570632Y-111790981D01*
X112104161Y-111626028D01*
X112451606Y-111440314D01*
X121094000Y-111440314D01*
X121094000Y-111559686D01*
X121117288Y-111676764D01*
X121162970Y-111787049D01*
X121229289Y-111886302D01*
X121313698Y-111970711D01*
X121412951Y-112037030D01*
X121523236Y-112082712D01*
X121640314Y-112106000D01*
X121759686Y-112106000D01*
X121876764Y-112082712D01*
X121987049Y-112037030D01*
X122086302Y-111970711D01*
X122170711Y-111886302D01*
X122237030Y-111787049D01*
X122282712Y-111676764D01*
X122306000Y-111559686D01*
X122306000Y-111440314D01*
X122282712Y-111323236D01*
X122237030Y-111212951D01*
X122170711Y-111113698D01*
X122086302Y-111029289D01*
X122027166Y-110989775D01*
X147189830Y-110989775D01*
X147429976Y-111377018D01*
X147923877Y-111637641D01*
X148459133Y-111796901D01*
X149015174Y-111848678D01*
X149570632Y-111790981D01*
X150104161Y-111626028D01*
X150570024Y-111377018D01*
X150810170Y-110989775D01*
X149000000Y-109179605D01*
X147189830Y-110989775D01*
X122027166Y-110989775D01*
X121987049Y-110962970D01*
X121876764Y-110917288D01*
X121759686Y-110894000D01*
X121640314Y-110894000D01*
X121523236Y-110917288D01*
X121412951Y-110962970D01*
X121313698Y-111029289D01*
X121229289Y-111113698D01*
X121162970Y-111212951D01*
X121117288Y-111323236D01*
X121094000Y-111440314D01*
X112451606Y-111440314D01*
X112570024Y-111377018D01*
X112810170Y-110989775D01*
X111000000Y-109179605D01*
X109189830Y-110989775D01*
X107406000Y-110989775D01*
X107406000Y-109015174D01*
X108151322Y-109015174D01*
X108209019Y-109570632D01*
X108373972Y-110104161D01*
X108622982Y-110570024D01*
X109010225Y-110810170D01*
X110820395Y-109000000D01*
X111179605Y-109000000D01*
X112989775Y-110810170D01*
X113377018Y-110570024D01*
X113423117Y-110482663D01*
X113423236Y-110482712D01*
X113540314Y-110506000D01*
X113659686Y-110506000D01*
X113776764Y-110482712D01*
X113887049Y-110437030D01*
X113986302Y-110370711D01*
X114070711Y-110286302D01*
X114137030Y-110187049D01*
X114182712Y-110076764D01*
X114206000Y-109959686D01*
X114206000Y-109870602D01*
X114287049Y-109837030D01*
X114386302Y-109770711D01*
X114470711Y-109686302D01*
X114537030Y-109587049D01*
X114582712Y-109476764D01*
X114606000Y-109359686D01*
X114606000Y-109340314D01*
X132094000Y-109340314D01*
X132094000Y-109459686D01*
X132117288Y-109576764D01*
X132162970Y-109687049D01*
X132229289Y-109786302D01*
X132313698Y-109870711D01*
X132412951Y-109937030D01*
X132523236Y-109982712D01*
X132640314Y-110006000D01*
X132759686Y-110006000D01*
X132876764Y-109982712D01*
X132987049Y-109937030D01*
X133086302Y-109870711D01*
X133170711Y-109786302D01*
X133237030Y-109687049D01*
X133282712Y-109576764D01*
X133306000Y-109459686D01*
X133306000Y-109370602D01*
X133387049Y-109337030D01*
X133486302Y-109270711D01*
X133570711Y-109186302D01*
X133637030Y-109087049D01*
X133666801Y-109015174D01*
X146151322Y-109015174D01*
X146209019Y-109570632D01*
X146373972Y-110104161D01*
X146622982Y-110570024D01*
X147010225Y-110810170D01*
X148820395Y-109000000D01*
X149179605Y-109000000D01*
X150989775Y-110810170D01*
X151377018Y-110570024D01*
X151637641Y-110076123D01*
X151796901Y-109540867D01*
X151848678Y-108984826D01*
X151790981Y-108429368D01*
X151626028Y-107895839D01*
X151377018Y-107429976D01*
X150989775Y-107189830D01*
X149179605Y-109000000D01*
X148820395Y-109000000D01*
X147010225Y-107189830D01*
X146622982Y-107429976D01*
X146362359Y-107923877D01*
X146203099Y-108459133D01*
X146151322Y-109015174D01*
X133666801Y-109015174D01*
X133682712Y-108976764D01*
X133706000Y-108859686D01*
X133706000Y-108740314D01*
X133682712Y-108623236D01*
X133637030Y-108512951D01*
X133570711Y-108413698D01*
X133486302Y-108329289D01*
X133387049Y-108262970D01*
X133276764Y-108217288D01*
X133159686Y-108194000D01*
X133040314Y-108194000D01*
X132923236Y-108217288D01*
X132812951Y-108262970D01*
X132713698Y-108329289D01*
X132629289Y-108413698D01*
X132562970Y-108512951D01*
X132517288Y-108623236D01*
X132494000Y-108740314D01*
X132494000Y-108829398D01*
X132412951Y-108862970D01*
X132313698Y-108929289D01*
X132229289Y-109013698D01*
X132162970Y-109112951D01*
X132117288Y-109223236D01*
X132094000Y-109340314D01*
X114606000Y-109340314D01*
X114606000Y-109240314D01*
X114582712Y-109123236D01*
X114537030Y-109012951D01*
X114470711Y-108913698D01*
X114386302Y-108829289D01*
X114287049Y-108762970D01*
X114176764Y-108717288D01*
X114059686Y-108694000D01*
X113940314Y-108694000D01*
X113823236Y-108717288D01*
X113820985Y-108718220D01*
X113790981Y-108429368D01*
X113626028Y-107895839D01*
X113446433Y-107559841D01*
X121013527Y-107559841D01*
X121013527Y-107679213D01*
X121036815Y-107796291D01*
X121082497Y-107906576D01*
X121148816Y-108005829D01*
X121233225Y-108090238D01*
X121332478Y-108156557D01*
X121442763Y-108202239D01*
X121559841Y-108225527D01*
X121679213Y-108225527D01*
X121796291Y-108202239D01*
X121906576Y-108156557D01*
X122005829Y-108090238D01*
X122090238Y-108005829D01*
X122156557Y-107906576D01*
X122202239Y-107796291D01*
X122225527Y-107679213D01*
X122225527Y-107559841D01*
X122202239Y-107442763D01*
X122156557Y-107332478D01*
X122090238Y-107233225D01*
X122005829Y-107148816D01*
X121906576Y-107082497D01*
X121796291Y-107036815D01*
X121679213Y-107013527D01*
X121559841Y-107013527D01*
X121442763Y-107036815D01*
X121332478Y-107082497D01*
X121233225Y-107148816D01*
X121148816Y-107233225D01*
X121082497Y-107332478D01*
X121036815Y-107442763D01*
X121013527Y-107559841D01*
X113446433Y-107559841D01*
X113377018Y-107429976D01*
X112989775Y-107189830D01*
X111179605Y-109000000D01*
X110820395Y-109000000D01*
X109010225Y-107189830D01*
X108622982Y-107429976D01*
X108362359Y-107923877D01*
X108203099Y-108459133D01*
X108151322Y-109015174D01*
X107406000Y-109015174D01*
X107406000Y-107010225D01*
X109189830Y-107010225D01*
X111000000Y-108820395D01*
X112810170Y-107010225D01*
X112570024Y-106622982D01*
X112194481Y-106424814D01*
X113893227Y-106424814D01*
X113893227Y-106544186D01*
X113916515Y-106661264D01*
X113962197Y-106771549D01*
X114028516Y-106870802D01*
X114112925Y-106955211D01*
X114212178Y-107021530D01*
X114322463Y-107067212D01*
X114439541Y-107090500D01*
X114558913Y-107090500D01*
X114675991Y-107067212D01*
X114786276Y-107021530D01*
X114803195Y-107010225D01*
X147189830Y-107010225D01*
X149000000Y-108820395D01*
X150810170Y-107010225D01*
X150570024Y-106622982D01*
X150076123Y-106362359D01*
X149540867Y-106203099D01*
X148984826Y-106151322D01*
X148429368Y-106209019D01*
X147895839Y-106373972D01*
X147429976Y-106622982D01*
X147189830Y-107010225D01*
X114803195Y-107010225D01*
X114885529Y-106955211D01*
X114969938Y-106870802D01*
X115036257Y-106771549D01*
X115081939Y-106661264D01*
X115105227Y-106544186D01*
X115105227Y-106424814D01*
X115081939Y-106307736D01*
X115036257Y-106197451D01*
X114969938Y-106098198D01*
X114885529Y-106013789D01*
X114786276Y-105947470D01*
X114675991Y-105901788D01*
X114558913Y-105878500D01*
X114439541Y-105878500D01*
X114322463Y-105901788D01*
X114212178Y-105947470D01*
X114112925Y-106013789D01*
X114028516Y-106098198D01*
X113962197Y-106197451D01*
X113916515Y-106307736D01*
X113893227Y-106424814D01*
X112194481Y-106424814D01*
X112076123Y-106362359D01*
X111540867Y-106203099D01*
X110984826Y-106151322D01*
X110429368Y-106209019D01*
X109895839Y-106373972D01*
X109429976Y-106622982D01*
X109189830Y-107010225D01*
X107406000Y-107010225D01*
X107406000Y-105340316D01*
X118144000Y-105340316D01*
X118144000Y-105459688D01*
X118167288Y-105576766D01*
X118212970Y-105687051D01*
X118279289Y-105786304D01*
X118363698Y-105870713D01*
X118462951Y-105937032D01*
X118573236Y-105982714D01*
X118690314Y-106006002D01*
X118809686Y-106006002D01*
X118926764Y-105982714D01*
X119037049Y-105937032D01*
X119136302Y-105870713D01*
X119153280Y-105853735D01*
X119223236Y-105882712D01*
X119340314Y-105906000D01*
X119459686Y-105906000D01*
X119576764Y-105882712D01*
X119687049Y-105837030D01*
X119756964Y-105790314D01*
X120194000Y-105790314D01*
X120194000Y-105909686D01*
X120217288Y-106026764D01*
X120262970Y-106137049D01*
X120329289Y-106236302D01*
X120413698Y-106320711D01*
X120512951Y-106387030D01*
X120623236Y-106432712D01*
X120740314Y-106456000D01*
X120859686Y-106456000D01*
X120976764Y-106432712D01*
X121087049Y-106387030D01*
X121186302Y-106320711D01*
X121270711Y-106236302D01*
X121337030Y-106137049D01*
X121382712Y-106026764D01*
X121406000Y-105909686D01*
X121406000Y-105790314D01*
X121386621Y-105692888D01*
X137146574Y-105692888D01*
X137146574Y-105812260D01*
X137169862Y-105929338D01*
X137215544Y-106039623D01*
X137281863Y-106138876D01*
X137366272Y-106223285D01*
X137465525Y-106289604D01*
X137575810Y-106335286D01*
X137692888Y-106358574D01*
X137812260Y-106358574D01*
X137929338Y-106335286D01*
X138039623Y-106289604D01*
X138138876Y-106223285D01*
X138223285Y-106138876D01*
X138289604Y-106039623D01*
X138335286Y-105929338D01*
X138358574Y-105812260D01*
X138358574Y-105692888D01*
X138335286Y-105575810D01*
X138289604Y-105465525D01*
X138223285Y-105366272D01*
X138138876Y-105281863D01*
X138039623Y-105215544D01*
X137929338Y-105169862D01*
X137812260Y-105146574D01*
X137692888Y-105146574D01*
X137575810Y-105169862D01*
X137465525Y-105215544D01*
X137366272Y-105281863D01*
X137281863Y-105366272D01*
X137215544Y-105465525D01*
X137169862Y-105575810D01*
X137146574Y-105692888D01*
X121386621Y-105692888D01*
X121382712Y-105673236D01*
X121337030Y-105562951D01*
X121270711Y-105463698D01*
X121186302Y-105379289D01*
X121087049Y-105312970D01*
X120976764Y-105267288D01*
X120859686Y-105244000D01*
X120740314Y-105244000D01*
X120623236Y-105267288D01*
X120512951Y-105312970D01*
X120413698Y-105379289D01*
X120329289Y-105463698D01*
X120262970Y-105562951D01*
X120217288Y-105673236D01*
X120194000Y-105790314D01*
X119756964Y-105790314D01*
X119786302Y-105770711D01*
X119870711Y-105686302D01*
X119937030Y-105587049D01*
X119982712Y-105476764D01*
X120006000Y-105359686D01*
X120006000Y-105240314D01*
X119982712Y-105123236D01*
X119937030Y-105012951D01*
X119870711Y-104913698D01*
X119786302Y-104829289D01*
X119687049Y-104762970D01*
X119576764Y-104717288D01*
X119459686Y-104694000D01*
X119340314Y-104694000D01*
X119223236Y-104717288D01*
X119112951Y-104762970D01*
X119013698Y-104829289D01*
X118996720Y-104846267D01*
X118926764Y-104817290D01*
X118809686Y-104794002D01*
X118690314Y-104794002D01*
X118573236Y-104817290D01*
X118462951Y-104862972D01*
X118363698Y-104929291D01*
X118279289Y-105013700D01*
X118212970Y-105112953D01*
X118167288Y-105223238D01*
X118144000Y-105340316D01*
X107406000Y-105340316D01*
X107406000Y-103390314D01*
X111994000Y-103390314D01*
X111994000Y-103509686D01*
X112017288Y-103626764D01*
X112062970Y-103737049D01*
X112129289Y-103836302D01*
X112213698Y-103920711D01*
X112312951Y-103987030D01*
X112423236Y-104032712D01*
X112540314Y-104056000D01*
X112659686Y-104056000D01*
X112776764Y-104032712D01*
X112887049Y-103987030D01*
X112986302Y-103920711D01*
X113070711Y-103836302D01*
X113137030Y-103737049D01*
X113182712Y-103626764D01*
X113206000Y-103509686D01*
X113206000Y-103390314D01*
X113201028Y-103365314D01*
X129744000Y-103365314D01*
X129744000Y-103484686D01*
X129767288Y-103601764D01*
X129812970Y-103712049D01*
X129879289Y-103811302D01*
X129963698Y-103895711D01*
X130062951Y-103962030D01*
X130173236Y-104007712D01*
X130290314Y-104031000D01*
X130409686Y-104031000D01*
X130526764Y-104007712D01*
X130637049Y-103962030D01*
X130736302Y-103895711D01*
X130820711Y-103811302D01*
X130887030Y-103712049D01*
X130932712Y-103601764D01*
X130956000Y-103484686D01*
X130956000Y-103365314D01*
X130932712Y-103248236D01*
X130887030Y-103137951D01*
X130820711Y-103038698D01*
X130736302Y-102954289D01*
X130637049Y-102887970D01*
X130526764Y-102842288D01*
X130409686Y-102819000D01*
X130290314Y-102819000D01*
X130173236Y-102842288D01*
X130062951Y-102887970D01*
X129963698Y-102954289D01*
X129879289Y-103038698D01*
X129812970Y-103137951D01*
X129767288Y-103248236D01*
X129744000Y-103365314D01*
X113201028Y-103365314D01*
X113182712Y-103273236D01*
X113137030Y-103162951D01*
X113070711Y-103063698D01*
X112986302Y-102979289D01*
X112887049Y-102912970D01*
X112776764Y-102867288D01*
X112659686Y-102844000D01*
X112540314Y-102844000D01*
X112423236Y-102867288D01*
X112312951Y-102912970D01*
X112213698Y-102979289D01*
X112129289Y-103063698D01*
X112062970Y-103162951D01*
X112017288Y-103273236D01*
X111994000Y-103390314D01*
X107406000Y-103390314D01*
X107406000Y-101840314D01*
X114778490Y-101840314D01*
X114778490Y-101959686D01*
X114801778Y-102076764D01*
X114847460Y-102187049D01*
X114913779Y-102286302D01*
X114998188Y-102370711D01*
X115097441Y-102437030D01*
X115207726Y-102482712D01*
X115324804Y-102506000D01*
X115444176Y-102506000D01*
X115561254Y-102482712D01*
X115671539Y-102437030D01*
X115770792Y-102370711D01*
X115855201Y-102286302D01*
X115921520Y-102187049D01*
X115967202Y-102076764D01*
X115990490Y-101959686D01*
X115990490Y-101840314D01*
X115967202Y-101723236D01*
X115921520Y-101612951D01*
X115855201Y-101513698D01*
X115770792Y-101429289D01*
X115671539Y-101362970D01*
X115561254Y-101317288D01*
X115444176Y-101294000D01*
X115324804Y-101294000D01*
X115207726Y-101317288D01*
X115097441Y-101362970D01*
X114998188Y-101429289D01*
X114913779Y-101513698D01*
X114847460Y-101612951D01*
X114801778Y-101723236D01*
X114778490Y-101840314D01*
X107406000Y-101840314D01*
X107406000Y-100490314D01*
X114544000Y-100490314D01*
X114544000Y-100609686D01*
X114567288Y-100726764D01*
X114612970Y-100837049D01*
X114679289Y-100936302D01*
X114763698Y-101020711D01*
X114862951Y-101087030D01*
X114973236Y-101132712D01*
X115090314Y-101156000D01*
X115209686Y-101156000D01*
X115326764Y-101132712D01*
X115437049Y-101087030D01*
X115536302Y-101020711D01*
X115620711Y-100936302D01*
X115687030Y-100837049D01*
X115732712Y-100726764D01*
X115744660Y-100666695D01*
X143795683Y-100666695D01*
X143795940Y-100703491D01*
X143795683Y-100740287D01*
X143796236Y-100745929D01*
X143806436Y-100842977D01*
X143813839Y-100879043D01*
X143820731Y-100915169D01*
X143822369Y-100920596D01*
X143851225Y-101013815D01*
X143865495Y-101047762D01*
X143879271Y-101081858D01*
X143881926Y-101086853D01*
X143881930Y-101086861D01*
X143881935Y-101086868D01*
X143928344Y-101172701D01*
X143948944Y-101203242D01*
X143969070Y-101233997D01*
X143972653Y-101238391D01*
X144034855Y-101313580D01*
X144061005Y-101339548D01*
X144086709Y-101365796D01*
X144091071Y-101369405D01*
X144091079Y-101369413D01*
X144091088Y-101369419D01*
X144166697Y-101431086D01*
X144197360Y-101451459D01*
X144227714Y-101472242D01*
X144232701Y-101474939D01*
X144318861Y-101520751D01*
X144352911Y-101534785D01*
X144386701Y-101549267D01*
X144392116Y-101550944D01*
X144485534Y-101579149D01*
X144521625Y-101586295D01*
X144557628Y-101593948D01*
X144563257Y-101594539D01*
X144563262Y-101594540D01*
X144563266Y-101594540D01*
X144660383Y-101604063D01*
X144660393Y-101604063D01*
X144680059Y-101606000D01*
X151519941Y-101606000D01*
X151540115Y-101604013D01*
X151546597Y-101604013D01*
X151552235Y-101603421D01*
X151649210Y-101592544D01*
X151685210Y-101584892D01*
X151721302Y-101577746D01*
X151726718Y-101576070D01*
X151819733Y-101546563D01*
X151853566Y-101532062D01*
X151887575Y-101518045D01*
X151892558Y-101515351D01*
X151892563Y-101515349D01*
X151892567Y-101515346D01*
X151978075Y-101468338D01*
X152008455Y-101447536D01*
X152039089Y-101427183D01*
X152043457Y-101423570D01*
X152118209Y-101360845D01*
X152143968Y-101334541D01*
X152170063Y-101308627D01*
X152173647Y-101304234D01*
X152234793Y-101228184D01*
X152254949Y-101197382D01*
X152275519Y-101166885D01*
X152278181Y-101161880D01*
X152323391Y-101075400D01*
X152337172Y-101041291D01*
X152351434Y-101007363D01*
X152353073Y-101001936D01*
X152380625Y-100908324D01*
X152387525Y-100872155D01*
X152394920Y-100836129D01*
X152395473Y-100830487D01*
X152404317Y-100733304D01*
X152404060Y-100696509D01*
X152404317Y-100659714D01*
X152403764Y-100654072D01*
X152393564Y-100557023D01*
X152386161Y-100520957D01*
X152379269Y-100484831D01*
X152377631Y-100479404D01*
X152348775Y-100386185D01*
X152334505Y-100352238D01*
X152320729Y-100318142D01*
X152318068Y-100313136D01*
X152271655Y-100227299D01*
X152251078Y-100196793D01*
X152230930Y-100166003D01*
X152227347Y-100161609D01*
X152165145Y-100086420D01*
X152138995Y-100060452D01*
X152113291Y-100034204D01*
X152108929Y-100030595D01*
X152108921Y-100030587D01*
X152108912Y-100030581D01*
X152033302Y-99968914D01*
X152002658Y-99948553D01*
X151972286Y-99927758D01*
X151967299Y-99925061D01*
X151881138Y-99879249D01*
X151847102Y-99865221D01*
X151813299Y-99850733D01*
X151807884Y-99849056D01*
X151714466Y-99820851D01*
X151678345Y-99813699D01*
X151642372Y-99806053D01*
X151636743Y-99805461D01*
X151636738Y-99805460D01*
X151636734Y-99805460D01*
X151539740Y-99795950D01*
X151519941Y-99794000D01*
X144680059Y-99794000D01*
X144659885Y-99795987D01*
X144653403Y-99795987D01*
X144647765Y-99796579D01*
X144550790Y-99807456D01*
X144514790Y-99815108D01*
X144478698Y-99822254D01*
X144473282Y-99823930D01*
X144380267Y-99853436D01*
X144346426Y-99867940D01*
X144312424Y-99881955D01*
X144307437Y-99884651D01*
X144221925Y-99931662D01*
X144191560Y-99952453D01*
X144160911Y-99972817D01*
X144156543Y-99976430D01*
X144081791Y-100039155D01*
X144056032Y-100065459D01*
X144029937Y-100091373D01*
X144026353Y-100095766D01*
X143965207Y-100171816D01*
X143945051Y-100202618D01*
X143924481Y-100233115D01*
X143921819Y-100238120D01*
X143876609Y-100324599D01*
X143862817Y-100358736D01*
X143848566Y-100392638D01*
X143846927Y-100398065D01*
X143819375Y-100491676D01*
X143812476Y-100527838D01*
X143805080Y-100563871D01*
X143804527Y-100569513D01*
X143795683Y-100666695D01*
X115744660Y-100666695D01*
X115756000Y-100609686D01*
X115756000Y-100490314D01*
X115732712Y-100373236D01*
X115687030Y-100262951D01*
X115620711Y-100163698D01*
X115536302Y-100079289D01*
X115437049Y-100012970D01*
X115326764Y-99967288D01*
X115209686Y-99944000D01*
X115090314Y-99944000D01*
X114973236Y-99967288D01*
X114862951Y-100012970D01*
X114763698Y-100079289D01*
X114679289Y-100163698D01*
X114612970Y-100262951D01*
X114567288Y-100373236D01*
X114544000Y-100490314D01*
X107406000Y-100490314D01*
X107406000Y-99023078D01*
X122069000Y-99023078D01*
X122069000Y-99176922D01*
X122099013Y-99327809D01*
X122157887Y-99469942D01*
X122243358Y-99597859D01*
X122352141Y-99706642D01*
X122480058Y-99792113D01*
X122622191Y-99850987D01*
X122773078Y-99881000D01*
X122926922Y-99881000D01*
X123077809Y-99850987D01*
X123219942Y-99792113D01*
X123347859Y-99706642D01*
X123456642Y-99597859D01*
X123542113Y-99469942D01*
X123600000Y-99330192D01*
X123657887Y-99469942D01*
X123743358Y-99597859D01*
X123852141Y-99706642D01*
X123980058Y-99792113D01*
X124122191Y-99850987D01*
X124273078Y-99881000D01*
X124426922Y-99881000D01*
X124577809Y-99850987D01*
X124719942Y-99792113D01*
X124847859Y-99706642D01*
X124956642Y-99597859D01*
X125042113Y-99469942D01*
X125100987Y-99327809D01*
X125131000Y-99176922D01*
X125131000Y-99119940D01*
X142094000Y-99119940D01*
X142095987Y-99140114D01*
X142095987Y-99146597D01*
X142096579Y-99152235D01*
X142107456Y-99249210D01*
X142115108Y-99285210D01*
X142122254Y-99321302D01*
X142123930Y-99326718D01*
X142153437Y-99419733D01*
X142167938Y-99453566D01*
X142181955Y-99487575D01*
X142184649Y-99492558D01*
X142184651Y-99492563D01*
X142184654Y-99492567D01*
X142231662Y-99578075D01*
X142252464Y-99608455D01*
X142272817Y-99639089D01*
X142276430Y-99643457D01*
X142339155Y-99718209D01*
X142365459Y-99743968D01*
X142391373Y-99770063D01*
X142395766Y-99773647D01*
X142471816Y-99834793D01*
X142502618Y-99854949D01*
X142533115Y-99875519D01*
X142538120Y-99878181D01*
X142624600Y-99923391D01*
X142658709Y-99937172D01*
X142692637Y-99951434D01*
X142698064Y-99953073D01*
X142791676Y-99980625D01*
X142827845Y-99987525D01*
X142863871Y-99994920D01*
X142869507Y-99995472D01*
X142869510Y-99995473D01*
X142869513Y-99995473D01*
X142966696Y-100004317D01*
X143003492Y-100004060D01*
X143040287Y-100004317D01*
X143045929Y-100003764D01*
X143045933Y-100003764D01*
X143142977Y-99993564D01*
X143179043Y-99986161D01*
X143215169Y-99979269D01*
X143220596Y-99977631D01*
X143313815Y-99948775D01*
X143347762Y-99934505D01*
X143381858Y-99920729D01*
X143386853Y-99918074D01*
X143386861Y-99918070D01*
X143386868Y-99918065D01*
X143472701Y-99871656D01*
X143503242Y-99851056D01*
X143533997Y-99830930D01*
X143538391Y-99827347D01*
X143613580Y-99765145D01*
X143639548Y-99738995D01*
X143665796Y-99713291D01*
X143669405Y-99708929D01*
X143669413Y-99708921D01*
X143669419Y-99708912D01*
X143731086Y-99633303D01*
X143751459Y-99602640D01*
X143772242Y-99572286D01*
X143774939Y-99567299D01*
X143820751Y-99481139D01*
X143834785Y-99447089D01*
X143849267Y-99413299D01*
X143850944Y-99407884D01*
X143879149Y-99314466D01*
X143886295Y-99278375D01*
X143893948Y-99242372D01*
X143894540Y-99236734D01*
X143904063Y-99139617D01*
X143904063Y-99139607D01*
X143906000Y-99119941D01*
X143906000Y-96551448D01*
X143929289Y-96586302D01*
X144013698Y-96670711D01*
X144112951Y-96737030D01*
X144223236Y-96782712D01*
X144340314Y-96806000D01*
X144459686Y-96806000D01*
X144576764Y-96782712D01*
X144687049Y-96737030D01*
X144786302Y-96670711D01*
X144870711Y-96586302D01*
X144937030Y-96487049D01*
X144982712Y-96376764D01*
X145006000Y-96259686D01*
X145006000Y-96140314D01*
X144982712Y-96023236D01*
X144937030Y-95912951D01*
X144870711Y-95813698D01*
X144786302Y-95729289D01*
X144687049Y-95662970D01*
X144576764Y-95617288D01*
X144459686Y-95594000D01*
X144340314Y-95594000D01*
X144223236Y-95617288D01*
X144112951Y-95662970D01*
X144013698Y-95729289D01*
X143929289Y-95813698D01*
X143906000Y-95848552D01*
X143906000Y-95040314D01*
X148944000Y-95040314D01*
X148944000Y-95159686D01*
X148967288Y-95276764D01*
X149012970Y-95387049D01*
X149079289Y-95486302D01*
X149163698Y-95570711D01*
X149262951Y-95637030D01*
X149373236Y-95682712D01*
X149490314Y-95706000D01*
X149609686Y-95706000D01*
X149726764Y-95682712D01*
X149837049Y-95637030D01*
X149936302Y-95570711D01*
X150020711Y-95486302D01*
X150087030Y-95387049D01*
X150132712Y-95276764D01*
X150156000Y-95159686D01*
X150156000Y-95040314D01*
X150132712Y-94923236D01*
X150087030Y-94812951D01*
X150020711Y-94713698D01*
X149936302Y-94629289D01*
X149837049Y-94562970D01*
X149726764Y-94517288D01*
X149609686Y-94494000D01*
X149490314Y-94494000D01*
X149373236Y-94517288D01*
X149262951Y-94562970D01*
X149163698Y-94629289D01*
X149079289Y-94713698D01*
X149012970Y-94812951D01*
X148967288Y-94923236D01*
X148944000Y-95040314D01*
X143906000Y-95040314D01*
X143906000Y-92980059D01*
X143904013Y-92959885D01*
X143904013Y-92953403D01*
X143903421Y-92947765D01*
X143892544Y-92850790D01*
X143884892Y-92814790D01*
X143877746Y-92778698D01*
X143876070Y-92773282D01*
X143846564Y-92680267D01*
X143832060Y-92646426D01*
X143818045Y-92612424D01*
X143815349Y-92607437D01*
X143768338Y-92521925D01*
X143747547Y-92491560D01*
X143727183Y-92460911D01*
X143723570Y-92456543D01*
X143660845Y-92381791D01*
X143634541Y-92356032D01*
X143608627Y-92329937D01*
X143604234Y-92326353D01*
X143528184Y-92265207D01*
X143497382Y-92245051D01*
X143466885Y-92224481D01*
X143461880Y-92221819D01*
X143375401Y-92176609D01*
X143341264Y-92162817D01*
X143307362Y-92148566D01*
X143301935Y-92146927D01*
X143301933Y-92146926D01*
X143301929Y-92146925D01*
X143208324Y-92119375D01*
X143172162Y-92112476D01*
X143136129Y-92105080D01*
X143130493Y-92104528D01*
X143130490Y-92104527D01*
X143130487Y-92104527D01*
X143033305Y-92095683D01*
X142996509Y-92095940D01*
X142959714Y-92095683D01*
X142954072Y-92096236D01*
X142954068Y-92096236D01*
X142857023Y-92106436D01*
X142820957Y-92113839D01*
X142784831Y-92120731D01*
X142779404Y-92122369D01*
X142686185Y-92151225D01*
X142652238Y-92165495D01*
X142618142Y-92179271D01*
X142613143Y-92181928D01*
X142613139Y-92181930D01*
X142613136Y-92181932D01*
X142527299Y-92228345D01*
X142496793Y-92248922D01*
X142466003Y-92269070D01*
X142461609Y-92272653D01*
X142386420Y-92334855D01*
X142360452Y-92361005D01*
X142334204Y-92386709D01*
X142330595Y-92391071D01*
X142330587Y-92391079D01*
X142330581Y-92391088D01*
X142268914Y-92466698D01*
X142248553Y-92497342D01*
X142227758Y-92527714D01*
X142225061Y-92532701D01*
X142179249Y-92618862D01*
X142165221Y-92652898D01*
X142150733Y-92686701D01*
X142149056Y-92692116D01*
X142120851Y-92785534D01*
X142113699Y-92821655D01*
X142106053Y-92857628D01*
X142105460Y-92863266D01*
X142095938Y-92960383D01*
X142095938Y-92960393D01*
X142094001Y-92980059D01*
X142094000Y-99119940D01*
X125131000Y-99119940D01*
X125131000Y-99023078D01*
X125100987Y-98872191D01*
X125042113Y-98730058D01*
X124956642Y-98602141D01*
X124847859Y-98493358D01*
X124719942Y-98407887D01*
X124577809Y-98349013D01*
X124426922Y-98319000D01*
X124273078Y-98319000D01*
X124122191Y-98349013D01*
X123980058Y-98407887D01*
X123852141Y-98493358D01*
X123743358Y-98602141D01*
X123657887Y-98730058D01*
X123600000Y-98869808D01*
X123542113Y-98730058D01*
X123456642Y-98602141D01*
X123347859Y-98493358D01*
X123219942Y-98407887D01*
X123077809Y-98349013D01*
X122926922Y-98319000D01*
X122773078Y-98319000D01*
X122622191Y-98349013D01*
X122480058Y-98407887D01*
X122352141Y-98493358D01*
X122243358Y-98602141D01*
X122157887Y-98730058D01*
X122099013Y-98872191D01*
X122069000Y-99023078D01*
X107406000Y-99023078D01*
X107406000Y-97824586D01*
X123800756Y-97726998D01*
X123824776Y-97724560D01*
X123848601Y-97717333D01*
X123870557Y-97705597D01*
X123889803Y-97689803D01*
X123905597Y-97670557D01*
X123917333Y-97648601D01*
X123924560Y-97624776D01*
X123927000Y-97600000D01*
X123927000Y-97340314D01*
X128594000Y-97340314D01*
X128594000Y-97459686D01*
X128617288Y-97576764D01*
X128662970Y-97687049D01*
X128729289Y-97786302D01*
X128813698Y-97870711D01*
X128912951Y-97937030D01*
X129023236Y-97982712D01*
X129140314Y-98006000D01*
X129259686Y-98006000D01*
X129376764Y-97982712D01*
X129487049Y-97937030D01*
X129586302Y-97870711D01*
X129670711Y-97786302D01*
X129737030Y-97687049D01*
X129782712Y-97576764D01*
X129806000Y-97459686D01*
X129806000Y-97340314D01*
X129782712Y-97223236D01*
X129737030Y-97112951D01*
X129670711Y-97013698D01*
X129586302Y-96929289D01*
X129487049Y-96862970D01*
X129376764Y-96817288D01*
X129259686Y-96794000D01*
X129140314Y-96794000D01*
X129023236Y-96817288D01*
X128912951Y-96862970D01*
X128813698Y-96929289D01*
X128729289Y-97013698D01*
X128662970Y-97112951D01*
X128617288Y-97223236D01*
X128594000Y-97340314D01*
X123927000Y-97340314D01*
X123927000Y-95640314D01*
X128294000Y-95640314D01*
X128294000Y-95759686D01*
X128317288Y-95876764D01*
X128362970Y-95987049D01*
X128429289Y-96086302D01*
X128513698Y-96170711D01*
X128612951Y-96237030D01*
X128723236Y-96282712D01*
X128840314Y-96306000D01*
X128959686Y-96306000D01*
X129076764Y-96282712D01*
X129187049Y-96237030D01*
X129286302Y-96170711D01*
X129370711Y-96086302D01*
X129437030Y-95987049D01*
X129456388Y-95940314D01*
X136294000Y-95940314D01*
X136294000Y-96059686D01*
X136317288Y-96176764D01*
X136362970Y-96287049D01*
X136429289Y-96386302D01*
X136513698Y-96470711D01*
X136612951Y-96537030D01*
X136723236Y-96582712D01*
X136840314Y-96606000D01*
X136959686Y-96606000D01*
X137076764Y-96582712D01*
X137187049Y-96537030D01*
X137286302Y-96470711D01*
X137370711Y-96386302D01*
X137437030Y-96287049D01*
X137482712Y-96176764D01*
X137506000Y-96059686D01*
X137506000Y-95940314D01*
X137482712Y-95823236D01*
X137437030Y-95712951D01*
X137370711Y-95613698D01*
X137286302Y-95529289D01*
X137187049Y-95462970D01*
X137076764Y-95417288D01*
X136959686Y-95394000D01*
X136840314Y-95394000D01*
X136723236Y-95417288D01*
X136612951Y-95462970D01*
X136513698Y-95529289D01*
X136429289Y-95613698D01*
X136362970Y-95712951D01*
X136317288Y-95823236D01*
X136294000Y-95940314D01*
X129456388Y-95940314D01*
X129482712Y-95876764D01*
X129506000Y-95759686D01*
X129506000Y-95640314D01*
X129482712Y-95523236D01*
X129437030Y-95412951D01*
X129370711Y-95313698D01*
X129286302Y-95229289D01*
X129187049Y-95162970D01*
X129076764Y-95117288D01*
X128959686Y-95094000D01*
X128840314Y-95094000D01*
X128723236Y-95117288D01*
X128612951Y-95162970D01*
X128513698Y-95229289D01*
X128429289Y-95313698D01*
X128362970Y-95412951D01*
X128317288Y-95523236D01*
X128294000Y-95640314D01*
X123927000Y-95640314D01*
X123927000Y-91906000D01*
X149980146Y-91906000D01*
X150503463Y-91957312D01*
G37*
%TD.AperFunction*%
%TD*%
M02*
